<?xml version="1.0" encoding="UTF-8" standalone="no"?>
<!-- Created with Inkscape (http://www.inkscape.org/) -->

<svg
   xmlns:dc="http://purl.org/dc/elements/1.1/"
   xmlns:cc="http://creativecommons.org/ns#"
   xmlns:rdf="http://www.w3.org/1999/02/22-rdf-syntax-ns#"
   xmlns:svg="http://www.w3.org/2000/svg"
   xmlns="http://www.w3.org/2000/svg"
   xmlns:sodipodi="http://sodipodi.sourceforge.net/DTD/sodipodi-0.dtd"
   xmlns:inkscape="http://www.inkscape.org/namespaces/inkscape"
   width="210mm"
   height="297mm"
   viewBox="0 0 744.09448819 1052.3622047"
   id="svg3346"
   version="1.1"
   inkscape:version="0.91 r13725"
   sodipodi:docname="happycat.svg"
   inkscape:export-filename="/home/pdurbin/github/pdurbin/cats-in-action/happycat.svg.png"
   inkscape:export-xdpi="90"
   inkscape:export-ydpi="90">
  <defs
     id="defs3348" />
  <sodipodi:namedview
     id="base"
     pagecolor="#ffffff"
     bordercolor="#666666"
     borderopacity="1.0"
     inkscape:pageopacity="0.0"
     inkscape:pageshadow="2"
     inkscape:zoom="0.54"
     inkscape:cx="-38.960955"
     inkscape:cy="520"
     inkscape:document-units="px"
     inkscape:current-layer="layer1"
     showgrid="false"
     inkscape:window-width="1366"
     inkscape:window-height="744"
     inkscape:window-x="0"
     inkscape:window-y="24"
     inkscape:window-maximized="1" />
  <metadata
     id="metadata3351">
    <rdf:RDF>
      <cc:Work
         rdf:about="">
        <dc:format>image/svg+xml</dc:format>
        <dc:type
           rdf:resource="http://purl.org/dc/dcmitype/StillImage" />
        <dc:title></dc:title>
      </cc:Work>
    </rdf:RDF>
  </metadata>
  <g
     inkscape:label="Layer 1"
     inkscape:groupmode="layer"
     id="layer1">
    <path
       style="fill:#000000"
       id="path3438"
       d="m 398.54778,191.25263 c -4.11461,-1.98919 -8.40591,-3.61004 -12.51067,-5.60683 -3.43946,-1.44654 -6.80982,-3.08085 -10.29685,-4.41018 -4.35858,-1.25282 -8.83644,-2.15999 -13.30973,-2.9192 -5.31345,-0.81912 -10.69786,-0.94037 -16.06278,-1.03906 -5.13412,-0.0612 -10.26873,-0.0452 -15.40307,-0.0317 -4.21229,0.017 -8.42458,0.0166 -12.63688,0.0164 -4.68896,-0.0197 -9.3271,0.9649 -13.89509,1.93943 -5.44206,0.8148 -10.64902,2.6329 -15.98582,3.90009 -4.89076,1.0339 -9.75036,2.21528 -14.58657,3.48387 -4.23092,1.26496 -8.26279,2.8597 -12.25099,4.73193 -1.84743,1.02603 -3.74373,1.94206 -5.59197,2.96677 -0.68846,0.38171 -2.74719,1.53869 -2.06454,1.14666 1.87093,-1.07441 7.49051,-4.28546 5.62952,-3.19392 -3.29705,1.93385 -6.62531,3.814 -9.93797,5.72099 1.88565,-1.07842 3.7627,-2.17202 5.65695,-3.23528 0.77586,-0.43549 -1.53942,0.89271 -2.30152,1.35186 -3.26301,1.96588 -6.39162,4.14753 -9.51863,6.3205 -4.80714,3.254 -9.0409,7.14866 -12.71504,11.62792 -3.49336,4.30571 -6.25831,9.10097 -9.01363,13.89016 -2.82976,5.5327 -5.45664,11.14953 -7.91138,16.85619 -3.12605,7.14891 -6.2388,14.30127 -9.5159,21.38274 -3.34269,7.30222 -7.13056,14.38209 -10.45611,21.6906 -2.97291,6.2538 -3.89889,13.12668 -4.94329,19.89602 -1.27093,8.74197 -0.49795,17.60473 0.30264,26.35114 1.27687,9.51207 2.827,18.98957 4.47382,28.44449 1.59829,7.994 2.90668,16.02841 4.22636,24.07086 1.16966,7.74293 1.76484,15.54493 3.22722,23.24361 1.31496,6.94648 4.80234,12.91264 9.36873,18.19638 4.4322,4.63082 9.97969,7.26453 15.9141,9.35676 7.10251,2.01935 14.49243,2.92738 21.81266,3.7969 8.54001,0.89322 17.11626,1.62749 25.55347,3.2568 9.20363,2.12478 18.16737,5.25468 26.80883,9.04719 9.58341,4.21992 18.55221,9.66182 27.71753,14.69346 8.09903,4.45434 16.83145,7.05762 25.91594,8.45612 7.13595,1.0459 14.35457,0.71321 21.44367,-0.47566 5.39357,-1.02958 10.81735,-1.83059 16.11114,-3.31253 5.76155,-1.45107 11.40434,-3.26479 16.86045,-5.6181 2.19617,-1.23062 12.27099,-6.23104 0.81207,-0.18081 -0.98733,0.5213 1.92337,-1.13474 2.87372,-1.72076 0.56373,-0.34761 5.09483,-3.24319 5.62112,-3.57915 5.73955,-3.77824 11.49852,-7.52284 17.02067,-11.61506 6.86426,-5.47587 13.76147,-10.91028 20.49494,-16.54697 7.8568,-6.55289 15.15474,-13.70198 21.91156,-21.37565 5.58811,-6.11605 10.99807,-12.45243 15.66249,-19.30805 3.65462,-5.21719 6.49516,-10.88099 8.84257,-16.78652 3.14286,-8.28706 4.66851,-17.04475 6.61186,-25.65813 1.86448,-9.17152 3.58168,-18.3827 4.91975,-27.64757 0.99782,-5.02383 0.23022,-9.7424 -2.05892,-14.25718 -2.9687,-4.67498 -5.78188,-9.42787 -8.53735,-14.23374 -3.07902,-5.57885 -5.11781,-11.5795 -7.04045,-17.62567 -2.50072,-6.98952 -4.21926,-14.22216 -6.61387,-21.24308 -2.30681,-6.51317 -5.78504,-12.5053 -9.45627,-18.32677 -3.54026,-5.70189 -8.02943,-10.76478 -12.36586,-15.87147 -2.96669,-4.06799 -6.20972,-7.89981 -10.10995,-11.09812 -3.92618,-2.61042 -8.16056,-4.73589 -12.25152,-7.08245 -3.65069,-1.69356 -6.98289,-3.98688 -10.61053,-5.70956 -2.93947,-1.55052 -5.99068,-2.91996 -8.84882,-4.61519 -2.20964,-1.22483 -4.50178,-2.38458 -6.5307,-3.89169 -1.74566,-0.91376 -3.25024,-2.23502 -4.97948,-3.15751 -1.13218,-0.65615 -2.30605,-0.91673 -3.58825,-1.02118 -1.48433,0.24491 -2.5318,-0.49293 -3.85121,-0.99641 -1.31423,-0.6525 -2.80977,-0.51551 -4.10213,-1.15733 -1.13532,-0.73024 -2.35629,-1.24116 -3.69758,-1.4177 -1.29459,0.0281 -2.21512,-0.82422 -3.29408,-1.45587 -0.7706,-0.43785 -1.74818,-0.51192 -2.62804,-0.52384 -1.22288,0.2081 -1.70664,-0.43592 -2.64331,-1.07336 -0.69559,-0.59735 -1.54961,-0.66604 -2.42723,-0.76938 -0.77973,-0.0407 -1.56387,-0.0147 -2.34529,-0.0145 -0.88227,0.003 -1.76455,0.003 -2.64682,0.001 0,0 7.44648,-5.41253 7.44648,-5.41253 l 0,0 c 0.8881,-0.005 1.77619,-0.009 2.66429,-0.0144 0.81261,-0.004 1.63425,-0.0149 2.43668,0.12969 0.96664,0.19001 1.87645,0.47095 2.64613,1.11667 0.83914,0.58034 1.31484,0.72816 2.37013,0.66505 1.00036,0.1189 2.01396,0.3089 2.86713,0.87975 1.0113,0.60283 1.88751,1.18238 3.1096,1.19612 1.34971,0.32848 2.5855,0.89269 3.79544,1.56906 1.3616,0.39985 2.80565,0.51533 4.09721,1.15929 1.24274,0.52424 2.35995,0.83705 3.72914,0.78239 1.34781,0.20273 2.59054,0.65039 3.77108,1.34334 1.70606,1.02539 3.30624,2.22853 5.02149,3.24518 2.06139,1.42003 4.26984,2.62474 6.46318,3.82913 2.87857,1.62349 5.85043,3.08199 8.80098,4.57017 3.59636,1.80971 6.97771,4.02809 10.61025,5.7797 4.13992,2.35608 8.4189,4.5113 12.3432,7.21333 3.88871,3.28589 7.17052,7.13471 10.13594,11.26755 4.34795,5.15235 8.86161,10.24644 12.42456,15.98474 3.69723,5.88888 7.21068,11.93991 9.54158,18.52059 2.39068,7.02753 4.11451,14.26321 6.635,21.25111 1.91876,5.9783 3.9278,11.92136 6.97247,17.4442 2.76612,4.81901 5.60009,9.57562 8.60489,14.24778 2.3816,4.66982 3.29688,9.58327 2.23694,14.7957 -1.39662,9.29431 -3.15843,18.5343 -4.98016,27.75267 -1.95046,8.62186 -3.38484,17.40189 -6.44792,25.72887 -2.28242,5.97948 -5.08907,11.71545 -8.76963,16.97054 -4.59022,6.95452 -10.10134,13.29554 -15.7007,19.45033 -6.72647,7.72749 -14.01562,14.91342 -21.86652,21.50481 -6.6945,5.64664 -13.57988,11.05588 -20.39023,16.56074 -5.49532,4.13131 -11.24661,7.88215 -16.98132,11.67052 -8.05939,5.14367 -16.16837,10.28503 -24.83161,14.36574 -5.50023,2.30051 -11.18625,4.0681 -16.96308,5.53927 -5.32111,1.38196 -10.74046,2.24554 -16.14734,3.21835 -7.14719,1.05948 -14.39403,1.34036 -21.55909,0.20827 -9.12707,-1.51041 -17.9012,-4.23275 -26.02766,-8.75305 -9.13734,-5.03837 -18.10608,-10.44182 -27.68853,-14.6135 -8.62442,-3.71819 -17.54706,-6.83297 -26.72926,-8.8596 -8.43911,-1.56675 -17.00501,-2.299 -25.53599,-3.1953 -7.37533,-0.90279 -14.83396,-1.78242 -21.96565,-3.93381 -6.05253,-2.16626 -11.68293,-4.99686 -16.16145,-9.75591 -4.6359,-5.42092 -8.2136,-11.52618 -9.58666,-18.6141 -1.47689,-7.70552 -2.04168,-15.52027 -3.22604,-23.27011 -1.32917,-8.0427 -2.57822,-16.09093 -4.17883,-24.08708 -1.64392,-9.48006 -3.17307,-18.98488 -4.49045,-28.51576 -0.83448,-8.79483 -1.65964,-17.70959 -0.46732,-26.51127 0.99855,-6.83623 1.89191,-13.79325 4.83746,-20.1218 3.31035,-7.32672 7.12086,-14.40204 10.4783,-21.70893 3.27689,-7.06062 6.37652,-14.19663 9.47372,-21.33701 2.47336,-5.71548 5.04642,-11.36921 7.83963,-16.93912 2.77974,-4.80275 5.46809,-9.67093 8.9551,-14.01671 3.60897,-4.58242 7.80649,-8.56733 12.62967,-11.87106 6.96941,-4.90131 14.13783,-9.46404 21.67062,-13.47728 -16.40522,9.55803 7.8238,-4.81354 12.02774,-6.60133 3.99171,-1.87337 8.10924,-3.33091 12.33787,-4.58815 4.83321,-1.26002 9.69911,-2.39834 14.57911,-3.45979 5.32575,-1.33925 10.57348,-3.01881 16.01114,-3.88354 4.61215,-0.96634 9.29518,-1.88089 14.02794,-1.80241 4.20955,-0.004 8.41911,-0.0128 12.62867,-0.0115 5.12985,-0.001 10.26009,-0.0159 15.38948,0.065 5.39873,0.11055 10.81707,0.26766 16.15687,1.14168 4.51711,0.79826 9.06372,1.65443 13.43578,3.05193 3.49094,1.3768 6.91435,2.93747 10.34006,4.4668 4.13566,1.96185 8.38801,3.68544 12.54849,5.59912 0,0 -7.65369,5.03586 -7.65369,5.03586 z"
       inkscape:connector-curvature="0" />
    <path
       style="fill:#000000"
       id="path3440"
       d="m 205.55335,228.90754 c 1.67078,-5.75565 2.95937,-11.60554 4.77219,-17.32327 2.24964,-7.65529 4.94371,-15.16438 7.32562,-22.77795 3.04402,-8.54088 5.5833,-17.22341 7.89754,-25.98559 2.75885,-9.43038 4.70733,-19.06098 6.93324,-28.62272 2.07112,-10.33758 4.80452,-20.50739 7.97342,-30.55676 2.89407,-8.944928 6.508,-17.636893 10.64265,-26.074442 2.75153,-5.692012 6.13795,-11.032011 9.97709,-16.044504 3.11458,-4.003428 7.63184,-7.789414 12.91718,-8.218185 2.36388,0.475772 4.4695,1.594565 6.54229,2.779304 2.89991,1.72115 5.62897,3.710223 8.47873,5.510536 3.9589,2.488561 7.57187,5.472156 10.8008,8.844846 3.98474,3.858574 6.87802,8.451336 9.54933,13.256865 2.40272,4.491977 4.39563,9.163408 5.86894,14.038641 1.77715,5.681779 3.05526,11.512339 4.06147,17.376109 1.43122,6.54278 2.3782,13.17558 3.89958,19.69867 1.73476,6.41591 2.97157,12.93344 4.34085,19.42967 1.40366,5.48648 1.6244,11.15498 2.45439,16.72729 0.62109,3.54303 1.30383,7.07688 1.67297,10.65717 -0.10631,1.95647 0.59011,3.60788 1.27196,5.38122 0.25186,1.01719 0.62706,1.36099 1.61179,1.57681 0.0805,0.13138 0.16098,0.26277 0.24146,0.39415 0,0 -8.07504,4.52202 -8.07504,4.52202 l 0,0 c 0.0639,0.0913 0.12782,0.18269 0.19174,0.27403 -1.07362,-0.45286 -1.75034,-1.12914 -2.01713,-2.2922 -0.6913,-1.84805 -1.50945,-3.57516 -1.35749,-5.6128 -0.32388,-3.57805 -0.94977,-7.11505 -1.58269,-10.64953 -0.85055,-5.55635 -0.98116,-11.2253 -2.3935,-16.70034 -1.36713,-6.49196 -2.55316,-13.01528 -4.31549,-19.42068 -1.53226,-6.53833 -2.49666,-13.18455 -3.92921,-19.74443 -0.99517,-5.825 -2.28609,-11.6145 -4.0498,-17.25748 -1.42972,-4.822202 -3.42999,-9.418638 -5.77236,-13.86802 -2.62633,-4.74076 -5.47825,-9.266212 -9.4258,-13.052705 -3.22379,-3.291458 -6.80167,-6.213123 -10.72712,-8.639296 -2.82448,-1.815342 -5.57878,-3.742901 -8.47306,-5.447677 -1.94093,-1.042777 -3.96375,-2.227964 -6.22534,-2.265855 -3.63402,0.828144 -0.97449,0.319463 6.23863,-4.016551 0.22949,-0.137955 -0.48897,0.221178 -0.719,0.358236 -1.1467,0.683242 -1.84393,1.766956 -2.69848,2.767431 -3.92886,4.947609 -7.39871,10.241375 -10.17124,15.930117 -4.20705,8.387607 -7.82675,17.067083 -10.7688,25.981097 -3.18334,10.026233 -5.94869,20.168023 -8.00048,30.492783 -2.22311,9.56039 -4.11801,19.20081 -6.88324,28.62829 -2.31863,8.76698 -4.77676,17.48044 -7.86707,26.01377 -2.35061,7.61181 -5.04245,15.10912 -7.26931,22.75951 -1.83392,5.68537 -3.16399,11.49393 -4.64434,17.27544 0,0 -8.29787,3.89698 -8.29787,3.89698 z"
       inkscape:connector-curvature="0" />
    <path
       style="fill:#000000"
       id="path3442"
       d="m 403.71628,191.66403 c 2.42701,-6.88213 5.5402,-13.50011 8.46308,-20.18104 4.52785,-10.02141 9.69441,-19.72729 14.86907,-29.42434 6.70932,-12.21531 13.04465,-24.62109 19.34764,-37.04884 5.79902,-11.830762 11.22543,-23.840332 16.70563,-35.821256 3.83308,-8.411447 7.77407,-16.769838 12.12193,-24.928058 3.004,-5.572034 6.61514,-10.797672 11.00497,-15.361496 4.8216,-4.973592 11.1252,-8.025858 17.30652,-10.994658 2.2378,-1.093189 4.25738,-1.193703 6.45072,-0.02908 2.30013,1.396569 3.5,4.057765 4.67808,6.379125 2.53721,4.688083 4.00488,9.878274 5.31791,15.017747 1.82498,8.455242 2.1218,17.13749 2.92461,25.728397 0.4285,9.63419 0.0307,19.282153 -0.15322,28.918509 -0.74469,9.93306 -1.14581,19.89405 -1.96412,29.82044 -0.93085,8.82684 -1.48111,17.68006 -1.76893,26.54898 0.0672,8.21289 -0.7523,16.38284 -1.31832,24.56607 -0.70324,7.38195 -1.94213,14.71046 -3.49892,21.95774 -1.04924,5.28454 -2.14168,10.54857 -3.3145,15.80676 -0.52772,3.44095 -1.22988,6.82303 -2.01741,10.21151 -0.64189,2.83069 -0.89443,5.7178 -1.0273,8.61008 0.16078,2.14384 -0.41196,4.11787 -1.09826,6.1163 -0.5177,1.43476 -0.66285,2.95043 -0.75748,4.46081 -0.0723,1.31952 0.14265,2.64188 -0.44589,3.86167 -0.63495,0.9755 -1.04026,2.05846 -1.71689,3.00781 -0.76804,1.04218 -1.29723,2.15387 -2.17897,3.11468 -0.50708,0.72291 -1.00968,1.47784 -1.1664,2.35705 -0.014,0.12964 -0.028,0.25927 -0.042,0.3889 0,0 -8.26125,4.12186 -8.26125,4.12186 l 0,0 c 0.009,-0.14205 0.018,-0.2841 0.027,-0.42614 0.0898,-1.05017 0.37249,-1.89831 0.98284,-2.78829 0.65751,-1.09593 1.76511,-1.85026 2.17147,-3.12777 0.74629,-0.91102 1.28765,-1.85594 1.72953,-2.96041 0.9522,-0.96088 0.61066,-2.12599 0.67439,-3.40717 0.0529,-1.58669 0.19819,-3.17773 0.64213,-4.70846 0.71993,-1.92431 1.42858,-3.78628 1.24785,-5.88037 0.11417,-2.94447 0.35846,-5.88231 0.97564,-8.77004 0.75825,-3.4014 1.58591,-6.76204 2.0523,-10.22366 1.17331,-5.27213 2.36803,-10.52722 3.37749,-15.83524 1.63423,-7.20231 2.83826,-14.51382 3.60289,-21.85986 0.56602,-8.17576 1.40717,-16.33668 1.34407,-24.54225 0.29018,-8.88948 0.81477,-17.76499 1.78659,-26.60916 0.84583,-9.9072 1.21979,-19.85355 1.98938,-29.7681 0.17609,-9.605244 0.56892,-19.220171 0.18899,-28.824209 -0.80035,-8.537042 -1.13514,-17.161782 -2.92534,-25.566391 -1.31532,-5.065096 -2.79314,-10.176978 -5.32626,-14.78554 -1.09309,-2.139593 -2.19891,-4.641752 -4.39817,-5.835435 -2.12086,-0.82609 -3.93935,-0.365442 -5.94308,0.663053 -2.87655,1.394463 -8.84856,4.690674 3.31489,-2.280149 0.54407,-0.311799 -1.06669,0.662837 -1.56721,1.040599 -0.85904,0.648354 -2.75737,2.378402 -3.50111,3.043141 -4.51551,4.416629 -8.12267,9.648876 -11.19112,15.156833 -4.3914,8.156666 -8.39043,16.506163 -12.25126,24.926739 -5.53574,11.991127 -10.98434,24.025413 -16.7817,35.892819 -6.28424,12.41817 -12.59684,24.81565 -19.26655,37.03294 -5.15599,9.65925 -10.28878,19.33433 -14.80044,29.31632 -2.88495,6.61826 -5.93785,13.18315 -8.34715,19.99347 0,0 -8.26831,3.92706 -8.26831,3.92706 z"
       inkscape:connector-curvature="0" />
    <path
       style="fill:#000000"
       id="path3444"
       d="m 271.31205,444.01725 c 2.65607,5.60743 3.32794,11.56472 3.4719,17.67822 0.0646,6.83641 -1.1095,13.61945 -2.14162,20.35768 -1.51719,8.52842 -3.33849,16.99694 -4.98384,25.50047 -1.2775,8.31158 -2.58931,16.62451 -3.50969,24.98555 -0.37054,4.82002 -0.94692,9.66855 -0.59906,14.50291 0,0 -8.09007,4.19826 -8.09007,4.19826 l 0,0 c -0.37788,-4.89944 0.24722,-9.81068 0.61128,-14.69751 0.94489,-8.38991 2.27102,-16.72916 3.53236,-25.0751 1.60991,-8.49061 3.43561,-16.93819 4.95268,-25.44681 1.0083,-6.69026 2.16762,-13.4202 2.17721,-20.20143 -0.1177,-5.97819 -0.64593,-11.82711 -3.38284,-17.26898 0,0 7.96169,-4.53326 7.96169,-4.53326 z"
       inkscape:connector-curvature="0" />
    <path
       style="fill:#000000"
       id="path3446"
       d="m 387.60422,470.29515 c 0.78511,6.6534 1.14838,13.34336 1.38389,20.03539 0.49582,7.77008 -0.716,15.40001 -2.6652,22.88873 -1.91085,8.02979 -4.69978,15.79206 -8.09898,23.30183 -1.74998,4.0215 -3.78985,7.90711 -5.93206,11.73094 0,0 -8.36434,3.72656 -8.36434,3.72656 l 0,0 c 2.23308,-3.79913 4.33957,-7.67915 6.10765,-11.71964 3.46332,-7.44419 6.26565,-15.17276 8.17806,-23.1677 1.97756,-7.39711 3.22899,-14.94716 2.75233,-22.63771 -0.22991,-6.64305 -0.53954,-13.29656 -1.46009,-19.88607 0,0 8.09874,-4.27233 8.09874,-4.27233 z"
       inkscape:connector-curvature="0" />
    <path
       style="fill:#000000"
       id="path3448"
       d="m 332.91863,331.68134 c -3.16586,6.1375 -5.95919,12.45287 -8.9584,18.66995 -2.91222,6.02514 -6.33411,11.77786 -10.24284,17.20507 -5.31524,6.03533 -12.49237,11.75894 -20.3511,13.76765 -4.17432,0.87065 -7.24943,-1.83937 -10.2041,-4.38588 -0.574,-0.45437 -1.14801,-0.90873 -1.72201,-1.3631 0,0 7.71672,-4.85007 7.71672,-4.85007 l 0,0 c 0.57915,0.46289 1.1583,0.92578 1.73744,1.38867 2.87386,2.41054 5.72919,4.74615 9.69249,3.63837 3.703,-1.2673 3.68334,-1.41109 -3.7338,2.72048 -0.74903,0.41723 1.45507,-0.9101 2.14787,-1.41525 2.34776,-1.71185 4.54155,-3.67155 6.40274,-5.90507 3.96209,-5.36291 7.41186,-11.07303 10.33479,-17.07043 3.03427,-6.18106 5.83246,-12.47924 8.83009,-18.67822 0,0 8.35011,-3.72217 8.35011,-3.72217 z"
       inkscape:connector-curvature="0" />
    <path
       style="fill:#000000"
       id="path3450"
       d="m 313.53014,342.51737 c 0.51312,6.1457 2.25116,12.08351 3.54112,18.08883 1.47173,5.86145 2.87717,11.74508 4.04373,17.67568 1.06698,5.15422 2.29088,10.25686 3.73603,15.31708 0.35543,0.86796 0.85153,5.90128 2.48056,5.52085 2.50074,-1.84514 6.16984,-2.4888 -5.83716,3.12478 -0.50993,0.23841 0.81568,-0.77702 1.1982,-1.18999 1.26334,-1.36386 1.719,-2.03901 2.88884,-3.56425 4.45723,-5.46315 8.49451,-11.20363 12.17138,-17.21541 2.32707,-4.49219 1.26515,-2.24733 3.20267,-6.72656 0,0 8.19727,-3.76817 8.19727,-3.76817 l 0,0 c -1.92249,4.55978 -0.87198,2.27385 -3.1669,6.8507 -3.63017,6.02827 -7.59082,11.8098 -12.05268,17.25882 -3.27509,4.49555 -8.10584,10.81005 -14.21328,10.43443 -2.15419,-1.26634 -2.29607,-4.17287 -2.88364,-6.36238 -1.39574,-5.10356 -2.64199,-10.22853 -3.71633,-15.41092 -1.13936,-5.9316 -2.56953,-11.80629 -4.02446,-17.66709 -1.27803,-6.01892 -2.9996,-11.95875 -3.66409,-18.09407 0,0 8.09874,-4.27233 8.09874,-4.27233 z"
       inkscape:connector-curvature="0" />
    <path
       style="fill:#000000"
       id="path3452"
       d="m 299.9978,351.12977 c 1.50457,-4.15478 4.57871,-7.12646 8.08185,-9.64679 5.12507,-2.95686 10.07786,-6.29553 15.73765,-8.11069 0.90564,-0.13044 3.06352,-0.60738 3.13905,-0.48122 0.18451,0.30821 0.28095,0.66122 0.42143,0.99183 -0.76613,2.17101 -3.09216,3.56464 -4.80201,4.94741 -3.68661,2.94409 -6.98537,6.32598 -10.54449,9.41341 -4.54817,4.32138 -9.75542,7.76737 -15.61252,10.18811 -2.80012,0.73889 0.16327,-3.6366 0.60887,-4.44063 1.84834,-3.3879 3.99581,-6.56025 6.51746,-9.47808 1.32909,-1.6286 2.636,-3.37282 4.32409,-4.65908 0.0316,0.0142 0.0633,0.0285 0.0949,0.0427 0.0268,0.25016 0.20617,0.53262 0.0803,0.75048 -0.11743,0.2033 -0.86167,0.36769 -0.65837,0.25026 13.14783,-7.59457 7.89249,-4.65858 5.24621,-2.71807 -2.24024,1.84157 -3.94842,4.13706 -5.58075,6.50349 -1.22612,1.64418 -2.22172,3.44662 -2.71421,5.44262 -0.13095,0.92244 -0.56505,1.99221 0.11699,2.7594 0.17478,-0.0848 0.33667,0.48076 0.53968,0.3907 0.28842,-0.12796 0.9298,-0.83718 0.65351,-0.6848 -7.58724,4.18461 -9.25926,6.35745 -6.80733,3.43011 1.95481,-3.06503 3.73923,-6.22741 5.54484,-9.38163 1.76331,-3.06573 3.43178,-6.21933 5.36208,-9.18694 0.10291,-0.13215 0.15348,-0.33359 0.30873,-0.39645 6.64492,-2.69044 10.1047,-5.39089 7.37123,-2.02102 -1.10676,1.36442 -2.24206,2.71444 -3.38293,4.05106 -1.48459,2.21327 -3.72331,3.76031 -5.31055,5.87244 -0.63482,0.80181 -0.87719,1.68137 -0.94943,2.67939 -0.0279,0.86252 -0.0209,1.72745 0.0166,2.5897 -1.15119,-3.69385 0.15257,-0.52925 -7.79715,3.37081 -0.67384,0.33059 0.7935,-1.27499 1.15803,-1.93109 1.10392,-1.98689 0.43538,-0.85364 1.73966,-2.94655 2.60969,-3.61789 5.48281,-7.032 8.17553,-10.59127 3.14437,-3.72488 3.63485,-4.37523 10.21709,-5.3161 0.16409,-0.0235 -0.6136,0.84658 -2.49553,2.99988 -2.90698,2.94252 -6.18772,5.45715 -9.65516,7.69631 -3.7572,2.31026 -1.32487,0.8273 -9.62291,5.59905 -0.36396,0.20929 -0.88871,0.90166 -1.12937,0.55764 -0.24291,-0.34725 -0.34276,-0.77516 -0.51414,-1.16273 0.64133,-0.79478 1.15466,-1.55609 1.59328,-2.48771 1.16908,-1.96808 2.03205,-4.09204 3.04414,-6.13918 0.78415,-1.43634 0.40034,-0.75405 1.14713,-2.04927 0,0 8.39897,-3.72822 8.39897,-3.72822 l 0,0 c -0.774,1.27226 -0.3767,0.60358 -1.18799,2.00836 -1.07962,2.00832 -1.83853,4.17873 -2.99987,6.13841 -0.54328,0.87356 -0.58743,1.93294 -1.55218,2.48804 -0.75516,-0.89292 -1.01967,-0.65638 -0.49509,-0.94207 0.28432,-0.15484 1.12889,-0.63442 0.84889,-0.4719 -9.03899,5.24648 -9.2361,5.36464 -6.06558,3.50515 3.50514,-2.16969 6.78882,-4.62357 9.78153,-7.4696 0.45592,-0.5071 0.92034,-1.00668 1.36775,-1.5213 0.38756,-0.44578 0.62793,-1.05939 1.13674,-1.35942 15.26289,-9.00011 9.83576,-5.73498 6.56347,-1.95142 -2.69425,3.53869 -5.4837,6.99136 -8.19129,10.51588 -2.14398,3.2999 -6.73653,13.5818 -11.69089,9.4106 -0.016,-0.88709 -0.0249,-1.77435 -0.0414,-2.66146 0.0357,-1.11602 0.0954,-2.21047 0.76138,-3.1555 1.46254,-2.28879 3.81008,-3.72831 5.32704,-5.99543 5.71482,-6.30074 2.01799,-3.96783 12.97202,-9.07993 0.14155,-0.0661 -0.26256,0.16928 -0.39384,0.25393 -2.30431,2.645 -3.56901,6.22334 -5.50144,9.12444 -1.81821,3.14578 -3.59893,6.30923 -5.41157,9.45298 -2.24205,3.22446 -7.39367,8.16452 -10.7526,5.23198 -0.83207,-1.10203 -0.76409,-2.17943 -0.49155,-3.4953 0.41986,-2.10671 1.28976,-4.0707 2.60571,-5.78447 1.66231,-2.38721 3.25019,-4.79749 5.46708,-6.73043 1.12163,-1.03014 0.58355,-0.65251 1.84289,-1.37621 2.89854,-1.66568 5.77337,-3.37356 8.69979,-4.98976 0.21857,-0.12071 0.4758,-0.27038 0.71851,-0.21176 0.75969,0.18348 0.75791,0.5166 0.91968,1.04776 -0.5255,1.9584 -3.77089,2.77085 -4.32684,4.88084 -2.56149,2.84289 -4.75743,5.90855 -6.58832,9.27633 -0.0756,0.14731 -1.66665,3.18992 -1.7633,3.23467 -0.24152,0.11185 -0.8566,-0.33662 -0.63502,-0.48406 0.19322,-0.12856 0.4286,-0.17818 0.64291,-0.26728 3.23756,-1.53481 0.91972,-0.46655 -5.89369,3.55083 -0.43156,0.25446 0.88906,-0.46641 1.30469,-0.74613 1.65064,-1.11086 3.11153,-2.51618 4.55817,-3.86834 3.61749,-3.00545 6.84154,-6.45433 10.50145,-9.41683 1.70191,-1.39194 3.55822,-2.6323 4.94669,-4.35512 0.17422,0.18953 0.38217,0.35287 0.52266,0.5686 0.39053,0.59964 -3.18235,-0.27101 -3.01019,0.5592 -3.4524,1.19746 -13.31638,6.5927 0.0244,-0.8749 -3.49413,2.33714 -6.71089,5.06884 -8.28535,9.09437 0,0 -8.29786,3.89699 -8.29786,3.89699 z"
       inkscape:connector-curvature="0" />
    <path
       style="fill:#000000"
       id="path3454"
       d="m 279.81277,225.96647 c -1.14307,7.28633 -2.38412,14.5261 -2.64322,21.90898 -0.008,6.71875 0.35046,13.65388 3.56365,19.67778 1.21554,1.47997 2.5349,2.28302 4.50271,1.69988 0.6817,-0.20201 2.54964,-1.25889 1.92278,-0.92338 -6.99021,3.74129 -7.14135,4.23887 -3.35815,0.82887 6.30787,-7.05879 10.73915,-15.52042 14.52699,-24.12932 1.73574,-4.7745 5.94629,-13.48116 4.75758,-18.69338 -0.14529,-0.63706 -0.56852,-1.17668 -0.85279,-1.76503 -0.50934,-0.31048 -0.94712,-0.79595 -1.52804,-0.93145 -4.49698,-1.04894 -15.32157,5.57149 -19.09574,7.61597 0.71202,-0.33969 2.76633,-1.49355 2.13606,-1.01907 -1.70428,1.28304 -3.60575,2.28138 -5.38202,3.46274 -4.74533,3.15602 -9.29402,6.54664 -13.80494,10.02397 0,0 -8.28745,3.30953 -8.28745,3.30953 l 0,0 c 10.21242,-7.90727 20.87597,-15.17664 32.25229,-21.34219 4.19248,-2.24492 14.88559,-8.89165 19.87712,-6.96048 0.68932,0.26669 1.17656,0.89491 1.76485,1.34237 0.33172,0.69774 0.81358,1.34228 0.99517,2.09322 1.28743,5.32398 -2.93321,14.25405 -4.719,19.14163 -3.74456,8.67272 -8.17033,17.13776 -14.26621,24.41611 -4.67873,4.53193 -2.75819,2.99738 -12.18584,8.2362 -2.74905,1.52761 -5.40662,0.43792 -7.14946,-1.88873 -3.23374,-6.19758 -3.69261,-13.24628 -3.68478,-20.14276 0.20254,-7.38385 1.42806,-14.61995 2.44173,-21.92066 0,0 8.21671,-4.0408 8.21671,-4.0408 z"
       inkscape:connector-curvature="0" />
    <path
       style="fill:#000000"
       id="path3456"
       d="m 382.21697,261.01333 c -4.5161,-5.24551 -10.0611,-7.53997 -16.78063,-8.43853 -3.73157,0.28869 -4.23722,0.0752 -7.8416,1.4039 -1.36035,0.50148 -3.94859,3.26153 -3.95427,1.81169 -0.006,-1.48507 3.47867,-3.46156 3.95332,-2.05437 0.50125,1.48604 -2.50004,1.90377 -3.64127,2.97949 -1.1988,1.12997 -2.24161,2.41474 -3.36242,3.62212 -6.47801,8.14835 -9.28933,17.06905 -9.75297,27.3437 0.30788,7.13498 1.70951,14.68427 6.88591,20.01295 0.84829,0.87323 1.87107,1.55808 2.8066,2.33712 7.50397,4.2117 13.50717,3.55196 20.87683,-0.37536 -1.53254,0.66274 -3.10135,2.72924 -4.59761,1.98822 -1.18196,-0.58536 1.84529,-1.89876 2.61386,-2.97066 0.79536,-1.10927 1.47407,-2.30663 2.0555,-3.54154 2.01654,-4.28302 2.39169,-8.21947 2.39353,-12.86964 -1.11798,-7.97017 -5.68922,-15.00055 -12.50899,-19.34167 -1.39878,-0.89039 -2.93783,-1.53841 -4.40674,-2.30762 -1.59818,-0.56514 -3.19635,-1.13028 -4.79453,-1.69541 0,0 7.39582,-4.99095 7.39582,-4.99095 l 0,0 c 1.62344,0.5993 3.24688,1.1986 4.87033,1.7979 1.49699,0.81077 3.06641,1.50012 4.49096,2.43229 6.98211,4.56886 11.67631,11.81916 12.9311,20.03112 0.0291,1.55636 0.20917,3.11722 0.0874,4.66909 -0.36323,4.63033 -2.89661,12.48231 -6.77944,15.43085 -3.41334,2.59202 -7.19046,4.66639 -10.78569,6.99958 -7.75605,3.70791 -13.90619,4.02585 -21.48978,-0.4839 -0.96252,-0.83302 -2.01389,-1.57327 -2.88755,-2.49906 -5.24214,-5.55499 -6.7792,-13.22813 -7.14538,-20.59412 0.37862,-10.4237 3.08828,-19.52886 9.50372,-27.91366 1.10046,-1.24266 2.12218,-2.55978 3.30138,-3.72799 6.84493,-6.78105 17.25732,-12.56392 27.14777,-12.68269 6.90271,1.10914 12.55173,3.61674 17.28284,8.92458 0,0 -7.86803,4.70257 -7.86803,4.70257 z"
       inkscape:connector-curvature="0" />
    <path
       style="fill:#000000"
       id="path3458"
       d="m 252.91143,535.0915 c -4.00135,3.10123 -7.99539,6.2131 -12.00162,9.30947 -0.45374,0.3085 -0.88899,0.64612 -1.36122,0.92549 -13.71359,8.11275 -10.1166,5.66368 -2.03324,1.27832 0.31222,-0.16939 -0.58652,0.40139 -0.86915,0.61656 -0.866,0.65933 -0.84544,0.70265 -1.65189,1.52625 -3.00247,3.15842 -5.78292,6.49741 -8.40284,9.97742 -4.09754,5.3119 -8.27756,10.56145 -12.46628,15.80234 -3.49438,4.13762 -6.96532,8.29928 -10.13432,12.69431 -2.68426,3.4553 -4.92028,7.15985 -6.82701,11.08992 -1.78933,4.21599 -3.22008,8.56504 -4.65189,12.91161 -1.80538,5.9805 -3.91536,11.8687 -6.19089,17.68534 -2.80877,6.40412 -4.94999,13.06731 -7.50202,19.57063 -2.14416,5.56131 -3.80436,11.27673 -5.39342,17.01404 -1.64645,5.40304 -2.20203,11.01098 -2.52321,16.62191 0.20324,5.97965 0.91655,11.92524 1.27681,17.89725 0.49561,4.9033 0.28235,9.731 -0.40306,14.59225 -0.45463,3.03498 -0.78912,6.08409 -0.94616,9.14868 0.0441,2.2569 -0.85387,4.36359 -1.37742,6.52464 -0.51142,1.80578 -0.45566,3.40465 0.22301,5.13387 0.64962,1.8057 1.83631,3.37954 2.76911,5.05248 1.59236,2.69144 2.90273,5.50602 4.18772,8.35267 2.37563,4.58528 5.41996,8.76962 8.00592,13.23531 3.2654,5.09344 5.20427,10.88897 6.63048,16.73082 1.00059,5.93305 1.59455,11.91556 2.47773,17.86967 0.63227,3.31383 1.77276,6.39503 4.04567,8.91361 2.03416,1.50563 4.32217,2.57732 6.63948,3.56413 2.72823,1.72242 5.75167,2.87448 8.62948,4.31196 3.48048,1.91269 7.17163,3.15857 10.94076,4.34315 4.31662,1.40805 8.81897,1.84586 13.32351,2.11506 4.01951,0.18553 8.04464,0.18498 12.06747,0.16906 2.63259,-0.013 5.26518,-0.0275 7.89781,-0.0318 1.97838,-0.13981 4.04953,0.31545 5.95023,-0.31099 2.22403,-0.78215 4.53214,-1.16019 6.87128,-1.37573 2.13897,-0.19144 4.28852,-0.17676 6.43385,-0.18492 2.2444,0.47561 4.33904,1.32372 6.43914,2.20677 2.04473,0.58796 3.87763,1.44167 5.75933,2.41547 1.92784,0.7139 2.10099,2.32649 2.2864,4.18652 0.41262,3.55983 -0.18292,7.04193 -0.71179,10.5485 -0.58774,4.12328 -0.74075,8.26889 -1.49221,12.3675 -0.63591,2.84541 -1.05818,5.72613 -1.27889,8.63174 -0.14029,2.26024 -0.1438,4.52638 -0.13987,6.79011 0.001,2.59175 0.009,5.18345 0.006,7.7752 -0.37951,3.06397 -1.1239,6.05739 -1.4938,9.12442 -0.24935,2.30979 -0.32418,4.63303 -0.3431,6.95461 -0.011,1.66648 -0.009,3.3331 -10e-4,4.99961 -0.2225,1.50413 -1.03531,2.81796 -1.45336,4.26781 -0.1555,0.58509 -0.2647,1.1805 -0.35688,1.77829 -6.69722,4.82758 -6.8575,4.91457 -12.36298,4.88147 -2.49665,0.19462 -4.81978,-0.76095 -7.24104,-1.2238 -3.16048,-0.6433 -6.16799,-0.60564 -9.18841,0.53134 -2.85038,1.52587 -8.83576,4.32478 4.08822,-2.41252 0.36909,-0.19241 -0.6659,0.50549 -0.95306,0.8068 -0.76556,0.80329 -0.82365,1.14486 -1.29116,2.14507 -0.87852,4.02006 -1.2476,8.17081 -1.78365,12.26221 -0.80338,5.49728 -0.58939,11.05326 0.36201,16.51161 1.18229,4.83365 3.2264,6.7911 7.9143,8.0005 6.06055,0.3547 11.66791,-2.45009 16.97302,-5.03593 -1.95991,1.09242 8.12459,-4.49445 6.06018,-3.43243 -1.62943,0.83825 -3.10861,1.97978 -4.80819,2.66471 -1.01255,0.40806 1.82592,-1.19772 2.72052,-1.82338 2.18355,-1.52711 2.79234,-2.05718 4.85901,-3.69224 4.69191,-4.03344 8.50587,-8.74275 11.50116,-14.13057 3.62407,-7.57981 7.0466,-15.24701 10.76218,-22.78743 3.30284,-7.68292 6.35945,-15.46948 9.31818,-23.29085 1.61021,-4.62945 2.77264,-9.41991 3.75428,-14.22038 1.27589,-5.6872 2.53521,-11.3749 4.43864,-16.88959 1.62208,-4.42264 3.55912,-8.70568 5.01742,-13.18986 0.74512,-4.17373 6.78073,-9.78022 10.79209,-6.157 1.60296,1.51589 3.20367,2.722 5.32821,3.41211 2.94153,0.63848 5.97949,0.59956 8.97475,0.63167 4.27976,-0.0504 8.57044,0.21024 12.82947,-0.25657 5.04802,-0.72468 10.12141,-1.16086 15.21244,-1.4177 4.86846,-0.18586 9.74087,-0.19608 14.6121,-0.20382 4.24178,-0.004 8.48356,-8.1e-4 12.72533,6.9e-4 4.22444,-0.73192 8.51574,-1.01944 12.72978,-1.78909 5.74388,-0.9812 11.49021,-1.96511 17.20851,-3.08958 7.94004,-1.50396 15.90113,-2.86737 23.8736,-4.19512 8.36873,-0.98586 16.7038,-2.2406 25.09344,-3.04887 7.57901,-0.35368 15.10166,-1.33066 22.66001,-1.94937 7.39531,-0.54942 14.81323,-0.63603 22.22527,-0.69701 7.41898,0.14818 14.83473,-0.38178 22.18026,-1.40357 7.81177,-1.00756 15.37928,-3.30057 23.02192,-5.13842 6.86158,-1.1996 13.57119,-3.4504 20.55895,-3.762 4.42483,-0.2644 8.49404,1.02044 12.56929,2.5382 3.14445,1.78637 6.3149,3.45743 9.56134,5.04496 2.57382,1.4512 5.47564,1.98713 8.17066,3.14439 1.7193,0.60472 3.28938,1.53275 5.00591,0.6226 1.69888,-0.0322 2.7142,0.67308 3.76782,1.93066 1.43146,2.02185 2.20278,4.43388 2.78672,6.81868 0.84277,4.59953 0.78512,9.31438 0.83262,13.97467 0.21479,6.90335 -0.39256,13.79571 -1.31347,20.63079 -1.1444,8.19296 -2.98239,16.26477 -4.33933,24.42216 -1.18096,7.32811 -3.00509,14.52521 -4.30612,21.82947 -1.18484,4.96689 -2.03591,9.99618 -3.1404,14.97927 -1.12124,4.40846 -2.59934,8.7082 -3.88879,13.06597 -0.59666,2.95456 -1.8276,5.71913 -2.7212,8.5849 -0.75407,2.2481 -2.30771,3.89913 -4.13436,5.33589 -5.6178,5.09429 -10.49951,6.0442 -16.87822,7.85001 -3.77365,0.9278 -7.50682,2.0127 -11.22206,3.15758 -4.14827,1.05676 -8.20617,2.40217 -12.36178,3.43515 -1.25012,0.55619 -2.51227,1.08401 -3.75666,1.65308 -0.28283,0.12933 -1.11548,0.54876 -0.84572,0.394 7.76461,-4.4545 9.20262,-5.97498 6.55457,-3.39021 -1.89732,2.41369 -2.42993,5.75382 -3.07998,8.69593 -0.99284,5.55331 -1.08153,11.2171 -1.1891,16.84234 0.19693,4.86657 1.32792,9.7541 4.47927,13.54734 3.49022,3.67892 8.08778,5.5009 12.90479,6.69055 4.90599,1.293 9.6863,0.61783 14.4948,-0.62305 2.72882,-1.13609 10.60436,-4.6224 -1.75538,1.48013 -0.70671,0.34893 1.30594,-0.88378 1.93733,-1.35552 1.54015,-1.1507 2.32811,-1.88313 3.78278,-3.14715 4.52453,-4.55612 8.04307,-10.00497 11.70788,-15.25088 4.68523,-6.76127 9.54232,-13.36053 14.6521,-19.80506 4.44767,-5.22083 7.88583,-11.13178 10.70035,-17.35642 3.50568,-8.34516 6.62811,-16.84163 9.53949,-25.40985 3.68326,-11.26817 7.29031,-22.56098 10.96571,-33.83175 3.53249,-9.54183 6.39554,-19.27925 8.91046,-29.13113 1.66796,-7.14491 2.24662,-14.47254 3.52614,-21.68919 1.33142,-6.94991 2.8947,-13.83515 3.79375,-20.86044 0.7455,-3.89918 0.43492,-7.69719 -0.33608,-11.54309 -0.241,-1.54302 -1.03798,-2.88757 -1.98719,-4.09812 -0.46417,-1.38014 0.81641,-2.27771 1.71927,-3.0981 2.57161,-1.92683 4.82758,-4.2292 7.20503,-6.38655 3.19663,-2.70384 6.24751,-5.54331 9.19207,-8.52062 2.77812,-2.64894 5.25915,-5.53039 7.06731,-8.92444 1.33378,-2.56743 1.73151,-5.39546 1.91326,-8.24115 0.61135,-2.76925 1.23462,-5.50871 1.54719,-8.33352 0.80825,-3.54801 1.55906,-6.98797 1.34713,-10.63715 -0.13173,-3.77763 -1.23588,-7.39419 -1.95365,-11.07966 -1.04398,-4.07778 -2.16926,-8.13276 -3.18674,-12.21787 -0.97926,-3.9287 -1.84037,-7.89891 -2.89028,-11.80976 -0.76065,-3.39624 -1.85847,-6.68389 -2.8326,-10.0186 -1.09926,-3.30716 -2.3136,-6.56415 -3.50837,-9.83657 -1.3696,-3.24184 -2.64996,-6.53419 -3.70853,-9.89215 -1.37723,-3.40716 -2.16994,-6.98561 -3.39342,-10.44213 -1.16428,-3.22613 -1.46766,-6.63836 -1.65954,-10.03493 -0.0109,-3.33113 -0.96506,-6.54827 -1.44182,-9.82721 -0.18793,-2.66091 -0.53983,-5.21123 -1.30757,-7.76664 -0.73186,-1.98307 -0.57374,-4.17596 -1.18342,-6.17125 -0.75362,-1.21785 -1.25059,-2.47162 -1.5236,-3.877 -0.0233,-1.55822 -0.48696,-2.91556 -1.00557,-4.36161 -0.42449,-1.6214 -1.0495,-3.11214 -1.76151,-4.6248 -1.1905,-2.23277 -2.64985,-4.30256 -4.12344,-6.35948 -1.716,-2.089 -3.37747,-4.23527 -5.15859,-6.26379 -1.37099,-1.91634 -2.48793,-4.01516 -3.98124,-5.8474 -1.33979,-1.97394 -2.68092,-3.93453 -4.01445,-5.91032 -1.69207,-2.46327 -3.53688,-4.80731 -5.29137,-7.22256 -1.62326,-1.91525 -2.79809,-4.15937 -4.44567,-6.04314 -0.93103,-0.89734 -1.54188,-2.09809 -1.82063,-3.35272 -0.39773,-1.76848 0.20289,-3.39434 0.66699,-5.07927 1.54131,-4.50597 3.64539,-8.76474 5.95742,-12.91782 3.83919,-7.1602 8.18712,-14.01058 12.92098,-20.60788 4.68329,-6.27451 8.88094,-12.8712 12.64847,-19.72774 3.3444,-5.47836 6.1672,-11.23442 8.97228,-16.99941 3.89198,-7.19103 6.73235,-14.811 9.45989,-22.49484 3.29258,-9.48792 6.67079,-18.94599 10.14846,-28.36767 3.58074,-9.81839 7.29122,-19.5875 11.04686,-29.34 3.65208,-9.37044 7.40522,-18.7008 11.11673,-28.0477 3.73892,-9.17527 7.46135,-18.34349 10.59299,-27.74558 2.95352,-8.58819 4.45155,-17.49056 5.91884,-26.41418 1.37536,-7.64773 1.91922,-15.3953 2.2158,-23.14815 0.44102,-7.53078 -0.75902,-14.9904 -2.1659,-22.35849 -1.69771,-8.86569 -3.70336,-17.66278 -5.06492,-26.58913 -1.77069,-11.04077 -3.35557,-22.10521 -4.38661,-33.24071 -1.31136,-11.83816 -2.0834,-23.72205 -3.15807,-35.58184 -0.736,-10.56918 -2.09568,-21.08225 -3.96869,-31.50703 -1.35793,-8.18572 -3.44251,-16.24517 -6.19851,-24.06817 -2.27839,-6.40469 -5.2192,-12.50916 -8.12443,-18.64035 -2.30364,-4.60539 -4.85185,-9.08686 -7.79836,-13.31159 -1.85967,-2.64196 -3.95381,-5.01553 -6.52849,-6.95741 -2.29814,-1.65841 -5.09217,-2.56854 -7.80111,-3.33771 -4.35352,-0.90399 -8.82211,-0.9692 -13.25086,-1.06261 -4.16921,0.17694 -8.11745,1.40234 -12.1245,2.41779 -3.03151,1.00819 -5.80441,2.58159 -8.77135,3.72437 -12.72781,6.74089 24.60195,-14.208895 -5.40686,2.87402 -2.12645,1.21051 4.22287,-2.4744 6.36952,-3.6487 0.54778,-0.29965 -1.04618,0.68187 -1.56927,1.0228 -3.80522,2.19106 -7.25494,4.87366 -10.57023,7.73556 -3.67062,3.25114 -6.22626,7.34924 -8.81581,11.44612 -2.65095,4.71588 -4.84668,9.68713 -6.4988,14.83714 -1.79106,4.85252 -2.7314,9.93766 -3.85389,14.96957 -0.94307,5.36658 -1.68462,10.77155 -2.44986,16.16894 -0.79188,5.92526 -0.96441,11.90613 -1.0839,17.87522 -0.0814,5.35917 -0.0479,10.71895 -0.0462,16.07846 0.006,4.42476 0.5927,8.89232 1.54358,13.2137 0.94491,3.97265 2.08639,7.89397 3.24605,11.80883 1.41498,4.85371 3.51873,9.48781 5.52399,14.12223 2.63664,6.65148 4.86392,13.44799 7.28098,20.1789 2.81079,8.54655 5.02298,17.26085 7.4155,25.92808 2.49083,10.44359 5.21088,20.82674 7.70825,31.26844 3.07402,11.686 5.83907,23.43699 7.64046,35.38882 1.61652,12.84059 2.16278,25.80821 1.91294,38.74119 -0.34814,10.73042 -1.58231,21.42076 -3.16929,32.03263 -0.7763,6.1166 -1.60201,12.20112 -2.73242,18.26165 -0.51114,3.89239 -1.13963,7.73975 -1.91408,11.58823 -1.06126,4.42622 -2.90554,8.59357 -4.6774,12.76847 -2.18342,5.28853 -4.80339,10.35404 -7.47522,15.40533 -2.33555,4.10283 -4.72921,8.18953 -7.39751,12.08777 -1.92814,2.88048 -3.97918,5.66408 -5.83355,8.5955 -2.51033,3.26116 -4.86416,6.644 -7.1506,10.06535 -2.55277,3.90134 -5.47542,7.53315 -7.98223,11.4659 -1.91803,2.99025 -3.73474,6.0546 -5.32578,9.23242 -1.30838,2.24845 -2.54768,4.53471 -3.76957,6.83226 -1.22616,1.73422 -1.97513,3.77521 -3.31395,5.42329 -1.08006,1.45297 -2.09326,2.94207 -3.25609,4.33602 -1.82708,2.09599 -4.18428,3.67241 -6.44672,5.26394 -3.19571,2.36136 -6.61275,4.3866 -9.92722,6.56754 -4.74542,2.74508 -9.12604,6.891 -14.61702,7.85681 -2.14959,0.27557 -4.33187,0.19435 -6.49522,0.18237 -3.69804,-0.2765 -7.31788,0.35386 -10.97019,0.82977 -5.79635,1.16959 -11.5578,2.49238 -17.32285,3.81365 -7.07139,1.3962 -14.14498,2.76834 -21.30583,3.62149 -6.47258,0.41321 -12.89906,0.95814 -19.32751,1.81692 -4.18912,0.59842 -8.41307,0.83001 -12.639,0.93971 -3.97397,0.0739 -7.94885,0.0475 -11.92326,0.043 -4.55732,-0.002 -9.11462,-0.0152 -13.67194,-0.0176 -5.4174,-0.005 -10.83481,-0.009 -16.25222,-0.006 -5.05231,0.10235 -10.05482,-0.76014 -14.94481,-1.94813 -4.23815,-0.72475 -8.04205,-2.57569 -11.82691,-4.50508 -4.13077,-2.18469 -8.42584,-3.98159 -12.79446,-5.62283 -4.35968,-1.2507 -8.63084,-2.71714 -12.87336,-4.31588 -3.14982,-0.8994 -6.17686,-2.13653 -9.26109,-3.23134 -1.77008,-0.498 -3.40038,-1.44414 -5.07411,-2.21896 -1.57449,-0.55355 -2.98365,-1.62865 -4.4749,-2.41645 -2.38497,-1.4961 -4.87998,-2.41719 -7.63684,-2.95005 -3.40673,-1.13142 -6.92607,-1.73191 -10.48258,-2.12609 -2.16067,-0.0447 -4.06719,-1.13014 -6.09762,-1.73215 -0.6257,-0.17067 -1.25279,-0.34887 -1.89611,-0.43757 3.62906,-3.25364 6.22137,-6.48665 8.68829,-3.67148 0,0 -7.87933,4.74741 -7.87933,4.74741 l 0,0 c -2.59109,-3.06189 0.72202,-3.03328 6.7779,-6.37239 0.64293,0.17292 1.28624,0.34523 1.91984,0.5506 1.96072,0.64852 3.84066,1.58743 5.95418,1.62436 3.56884,0.45383 7.08042,1.14953 10.52864,2.1911 2.79868,0.6246 5.35996,1.65729 7.81185,3.15337 1.47276,0.81542 2.89143,1.77202 4.47758,2.35506 1.63269,0.78955 3.24245,1.67736 4.99546,2.16792 3.05782,1.13582 6.09731,2.31494 9.216,3.27666 4.23327,1.60999 8.53114,2.9862 12.85692,4.32289 4.40283,1.64234 8.68987,3.54323 12.86813,5.69833 3.73095,1.907 7.53712,3.58532 11.69706,4.3333 4.84459,1.15401 9.8007,1.90405 14.7962,1.79028 5.42173,0.003 10.84347,-8.9e-4 16.2652,-0.003 4.5634,10e-4 9.1268,-0.006 13.6902,0.005 3.97377,0.003 7.94818,0.011 11.92124,-0.0747 4.19465,-0.12989 8.38422,-0.39643 12.54286,-0.98447 6.41171,-0.82866 12.83551,-1.25673 19.27775,-1.77002 7.14593,-0.90118 14.21719,-2.27102 21.27182,-3.7103 5.79912,-1.30401 11.57295,-2.72589 17.42269,-3.78386 3.69182,-0.4901 7.36644,-1.008 11.10274,-0.77565 2.12853,3.7e-4 4.28939,0.0819 6.38328,-0.3632 3.22165,-0.94079 6.46667,-3.39873 -5.13172,3.44444 -0.35357,0.20861 0.71012,-0.41217 1.06279,-0.6223 1.36752,-0.81484 1.45195,-0.88005 2.86873,-1.76928 3.23886,-2.27624 6.77404,-4.12228 9.9086,-6.56307 2.27998,-1.4798 4.55972,-3.13112 6.50454,-5.01836 1.18933,-1.37284 2.34117,-2.76935 3.22748,-4.36283 1.54566,-1.47885 2.13847,-3.51857 3.43038,-5.21561 1.20985,-2.30729 2.41601,-4.60764 3.8013,-6.80905 1.50541,-3.25346 3.43142,-6.30992 5.32972,-9.34448 2.44332,-3.9846 5.39744,-7.59693 7.97926,-11.48791 2.229,-3.43802 4.5519,-6.85204 7.12718,-10.03729 1.86312,-2.94182 3.84245,-5.78268 5.82646,-8.63726 2.7362,-3.84554 5.10149,-7.94263 7.49195,-12.00643 2.65374,-5.03968 5.34989,-10.04742 7.49708,-15.33446 1.77714,-4.11291 3.54808,-8.23936 4.71285,-12.57592 0.76219,-3.85504 1.48856,-7.68517 1.94374,-11.59202 1.15808,-6.0735 2.11325,-12.15452 2.86934,-18.29443 1.67197,-10.58854 2.93849,-21.26685 3.3347,-31.98464 0.30409,-12.88724 -0.25749,-25.81 -1.84025,-38.60843 -1.79921,-11.92315 -4.55624,-23.64667 -7.64979,-35.29798 -2.50127,-10.42637 -5.23287,-20.7913 -7.73556,-31.21768 -2.40692,-8.63557 -4.6202,-17.32141 -7.44196,-25.83652 -2.42391,-6.70478 -4.64819,-13.47827 -7.30111,-20.09966 -2.04815,-4.65201 -4.18588,-9.31162 -5.61939,-14.19411 -1.19222,-3.92557 -2.33416,-7.86858 -3.28838,-11.85871 -1.0041,-4.37287 -1.56273,-8.92372 -1.60952,-13.40554 -0.0101,-5.36924 -0.002,-10.73887 0.0638,-16.10774 0.10635,-6.00018 0.28645,-12.01059 1.03084,-17.97158 0.75924,-5.41455 1.51284,-10.83122 2.40161,-16.22266 1.09722,-5.05796 2.0428,-10.16854 3.82802,-15.04271 1.57615,-5.23105 3.83609,-10.22741 6.39034,-15.05103 2.62427,-4.12431 5.0623,-8.33338 8.70631,-11.68413 3.27814,-2.89437 6.65517,-5.69401 10.49348,-7.82862 4.35883,-3.01963 1.71672,-1.25066 10.83698,-6.45129 2.16675,-1.23554 -8.64058,4.98764 -6.46422,3.76911 4.0043,-2.24198 7.72634,-4.80532 11.93949,-6.56713 2.91783,-1.26063 5.76565,-2.684318 8.82203,-3.606362 4.02939,-1.051563 8.05547,-2.149691 12.25704,-2.203036 4.48997,0.120573 9.0301,0.202244 13.42294,1.235195 2.79287,0.85507 5.66338,1.797025 7.99579,3.607383 2.63171,2.01524 4.73004,4.52281 6.64084,7.22854 2.92921,4.29618 5.51737,8.8078 7.81491,13.47328 2.89327,6.17175 5.86194,12.29814 8.13657,18.73896 2.77169,7.87209 4.8487,15.99261 6.20337,24.23011 1.87322,10.45708 3.20942,21.00541 3.94897,31.60554 1.06596,11.86045 1.81695,23.74604 3.15605,35.58132 1.01212,11.11544 2.61143,22.15327 4.4123,33.16696 1.36113,8.90915 3.39146,17.68253 5.10346,26.52768 1.46515,7.41837 2.68748,14.94303 2.27573,22.5341 -0.28549,7.79122 -0.80719,15.58024 -2.19436,23.26524 -1.50316,8.96234 -2.92571,17.92641 -5.89845,26.55879 -3.10694,9.42592 -6.81495,18.61362 -10.57802,27.79518 -3.69991,9.35158 -7.46778,18.67609 -11.12837,28.04328 -3.75095,9.75167 -7.49177,19.50667 -11.05256,29.32996 -3.48985,9.4028 -6.84659,18.85492 -10.11333,28.33742 -2.71874,7.69038 -5.44759,15.36253 -9.35317,22.55557 -2.79214,5.78276 -5.55884,11.58361 -8.95812,17.04378 -3.78551,6.8856 -7.9277,13.55616 -12.65003,19.84965 -4.75705,6.53644 -9.10898,13.34285 -12.90574,20.48606 -2.28334,4.08473 -4.33168,8.24724 -5.93241,12.65182 -0.39167,1.58623 -1.11439,3.03921 -0.80567,4.69912 0.14857,1.12791 0.76487,2.14466 1.55776,2.9449 1.62152,1.93733 2.81924,4.18391 4.45117,6.1235 1.76529,2.42066 3.60671,4.78033 5.31658,7.24319 1.32861,1.95044 2.66052,3.88959 3.99188,5.83924 1.45452,1.84735 2.59545,3.91226 3.95392,5.82251 1.7731,2.0758 3.47903,4.21545 5.1933,6.34374 1.49604,2.10936 3.00222,4.21307 4.23714,6.48618 0.71881,1.54355 1.41043,3.03608 1.79988,4.70204 0.5345,1.49133 1.14079,2.86806 1.09128,4.48831 0.22988,1.3819 0.72197,2.57331 1.45244,3.77105 0.6881,1.98957 0.4697,4.1946 1.18005,6.20138 0.77134,2.60431 1.23477,5.17855 1.34702,7.90004 0.46031,3.30858 1.43022,6.55064 1.46858,9.90357 0.16974,3.31305 0.4265,6.64752 1.54391,9.80083 1.22023,3.47134 2.00056,7.06367 3.39729,10.47772 1.03815,3.34971 2.33254,6.62383 3.70326,9.84929 1.17967,3.29836 2.40721,6.57251 3.535,9.88955 0.96175,3.34596 2.0807,6.63198 2.8212,10.04149 1.08064,3.90931 1.894,7.90474 2.88719,11.83648 1.0027,4.10297 2.15657,8.16533 3.22679,12.25034 0.70568,3.7252 1.85349,7.36644 2.00858,11.1784 0.27423,3.69722 -0.2866,7.19167 -1.26389,10.768 -0.26835,2.81185 -0.72285,5.57998 -1.55151,8.28698 -0.13724,2.94594 -0.47559,5.90729 -1.77991,8.59716 -1.69687,3.52266 -4.13153,6.51553 -6.97602,9.19185 -2.93252,2.99334 -5.91768,5.9038 -9.15717,8.56047 -2.36384,2.1575 -4.617,4.43207 -7.11548,6.42059 -0.79453,0.53558 -1.56152,1.53201 -2.32602,1.80505 0.98411,1.34513 1.88116,2.81922 2.14209,4.48984 0.76115,3.95269 1.18201,7.85615 0.36105,11.85907 -0.89757,7.04523 -2.4403,13.9513 -3.80066,20.91527 -1.32245,7.2361 -1.8716,14.59097 -3.5294,21.76442 -2.56119,9.88019 -5.40343,19.66783 -8.99158,29.23244 -3.67731,11.26408 -7.29394,22.54761 -10.93164,33.82449 -2.85234,8.57667 -5.95414,17.06634 -9.38188,25.43133 -2.77697,6.29876 -6.13887,12.32061 -10.63879,17.57583 -5.09844,6.44022 -10.03591,12.95969 -14.66653,19.74972 -3.64614,5.27593 -7.18575,10.69989 -11.54594,15.41944 -5.72939,5.12403 -12.24318,9.63292 -19.62704,11.98262 -4.90107,1.1697 -9.80282,1.5948 -14.74189,0.2454 -4.95984,-1.3287 -9.67138,-3.3181 -13.2331,-7.16429 -3.23225,-4.01146 -4.52806,-9.01924 -4.75252,-14.12779 0.11021,-5.66612 0.18373,-11.36397 1.06526,-16.97402 0.62168,-3.04049 1.18787,-6.44859 2.81502,-9.09905 3.17768,-4.04704 9.00635,-5.9243 13.78283,-7.77519 4.13469,-1.04835 8.19063,-2.37374 12.31622,-3.45577 3.73554,-1.11346 7.4712,-2.22552 11.2584,-3.14962 1.6627,-0.42538 3.38057,-0.72858 4.98813,-1.34341 0.49211,-0.18821 1.89066,-0.92182 1.44464,-0.64136 -2.13039,1.33959 -4.33908,2.55041 -6.50862,3.82561 0.38772,-0.25329 0.77545,-0.50659 1.16317,-0.75988 1.90198,-1.18476 3.40904,-2.73272 4.3705,-4.76295 0.79308,-2.91366 2.24842,-5.62414 2.7816,-8.61363 1.25183,-4.35877 2.7832,-8.63047 3.93706,-13.02064 1.08199,-4.98631 1.97803,-10.00538 3.1907,-14.96451 1.31589,-7.31688 3.18265,-14.5164 4.38684,-21.85551 1.33747,-8.14605 3.15918,-16.20567 4.31309,-24.38224 0.95369,-6.78171 1.55393,-13.63341 1.32691,-20.48715 -0.0618,-4.58711 -0.0195,-9.22124 -0.81291,-13.75364 -0.53297,-2.24675 -1.25362,-4.51378 -2.60983,-6.40859 -0.91421,-0.98341 -1.79728,-1.44259 -3.15701,-1.02471 -1.89003,0.37719 -3.62861,-0.55902 -5.37179,-1.19293 -2.70471,-1.1225 -5.61571,-1.70136 -8.16271,-3.20623 -3.23395,-1.55136 -6.32761,-3.31594 -9.50444,-4.97707 -3.98942,-1.4688 -8.00924,-2.55864 -12.31795,-2.25546 -6.91429,0.49914 -13.5894,2.5678 -20.38403,3.8336 -7.65684,1.86738 -15.25696,4.12341 -23.09931,5.07891 -7.37778,0.94868 -14.80605,1.47202 -22.24862,1.31484 -7.399,0.0697 -14.80398,0.17177 -22.18431,0.75012 -7.54863,0.64108 -15.07033,1.56027 -22.63923,1.95019 -8.37037,0.83347 -16.69882,2.03779 -25.04297,3.08754 -7.98371,1.34079 -15.9582,2.71093 -23.90616,4.2485 -5.74733,1.09545 -11.50382,2.14356 -17.27315,3.11479 -4.25903,0.68975 -8.56118,1.16058 -12.84299,1.67843 -4.23326,-0.006 -8.46651,-0.0172 -12.69977,-0.0161 -4.86135,0.0108 -9.72484,0.0233 -14.58234,0.23874 -5.08457,0.27463 -10.14523,0.77255 -15.19241,1.45063 -4.29785,0.34379 -8.61284,0.1786 -12.92194,0.20303 -3.06989,-0.0462 -6.20503,-0.0103 -9.18195,-0.8589 -2.13764,-0.84063 -3.85031,-2.13263 -5.52391,-3.68161 -2.89773,-2.31797 -0.81194,-0.32925 6.76952,-5.16316 0.14102,-0.0899 -0.30671,0.13914 -0.44188,0.23763 -0.75386,0.54925 -0.67591,1.51316 -1.02483,2.31724 -1.49245,4.50469 -3.38962,8.83002 -5.09951,13.25064 -1.96805,5.45094 -3.18534,11.10303 -4.44723,16.75098 -0.9521,4.8616 -2.15094,9.6991 -3.7544,14.38671 -2.99544,7.85103 -6.12751,15.64734 -9.35932,23.40402 -3.71734,7.52407 -7.1575,15.16277 -10.6633,22.7826 -2.93478,5.50328 -6.6615,10.29335 -11.34374,14.45497 -7.47777,6.04015 -15.82218,10.78932 -24.30234,15.28761 -5.44532,2.58185 -11.25292,5.36537 -17.43908,4.56505 -4.89141,-1.48809 -7.14156,-3.83859 -8.4155,-8.88961 -0.99835,-5.52947 -1.23553,-11.17669 -0.48489,-16.75699 0.50999,-4.15181 0.994,-8.31428 1.60805,-12.44062 2.01713,-5.73607 8.45797,-7.66978 13.71326,-9.99891 3.14826,-0.89712 6.27234,-0.84195 9.47658,-0.15745 2.37974,0.49512 4.6959,1.2958 7.16351,1.063 4.81112,0.0233 7.31935,-1.32639 -3.36696,4.63349 0.0598,-0.64797 0.18573,-1.28724 0.32913,-1.92175 0.34263,-1.42507 0.9056,-2.74787 1.56814,-4.05736 -6.2e-4,-1.67088 -0.0157,-3.34175 -0.005,-5.01264 0.0424,-2.35498 0.0926,-4.7131 0.34358,-7.05712 0.32252,-3.04616 0.98978,-6.01663 1.5333,-9.02773 -0.008,-2.58978 -0.0115,-5.17955 -0.0188,-7.76933 0.003,-2.28395 -0.0302,-4.56968 0.10506,-6.851 0.22523,-2.94191 0.58946,-5.87305 1.28349,-8.74599 0.78778,-4.08893 0.98662,-8.21316 1.51753,-12.34112 0.50386,-3.43644 1.16513,-6.83446 0.75369,-10.32396 -0.14332,-1.70003 -0.12908,-2.7357 -1.83852,-3.38549 -1.84504,-0.96692 -3.73429,-1.67766 -5.69899,-2.36589 -2.00212,-0.84588 -4.06306,-1.64348 -6.2364,-1.89681 -2.12574,0.0101 -4.25555,0.0334 -6.37178,0.25622 -2.32043,0.28457 -4.58,0.78818 -6.81729,1.46816 -2.00704,0.27211 -4.0399,0.0892 -6.06143,0.14114 -2.62397,0.006 -5.24794,0.0125 -7.87191,0.0111 -4.0241,-0.0129 -8.05096,-0.01 -12.07002,-0.2403 -4.55587,-0.31635 -9.09603,-0.83795 -13.45412,-2.28669 -3.81893,-1.17092 -7.49918,-2.57386 -11.03768,-4.44848 -2.89023,-1.3911 -5.86574,-2.61436 -8.62433,-4.26443 -2.41296,-1.06698 -4.84559,-2.16767 -6.87092,-3.89559 -2.32033,-2.70876 -3.5821,-5.91373 -4.22588,-9.41638 -0.84599,-5.93641 -1.46105,-11.89333 -2.40692,-17.81137 -1.38727,-5.76254 -3.29383,-11.477 -6.52139,-16.49217 -2.61534,-4.4841 -5.67391,-8.69267 -8.09161,-13.28968 -1.29557,-2.81291 -2.62479,-5.58766 -4.19981,-8.25703 -0.9646,-1.70168 -2.18583,-3.30717 -2.85512,-5.14907 -0.74246,-1.88585 -1.02525,-3.63033 -0.46083,-5.62606 0.44002,-2.14769 1.4291,-4.18425 1.46399,-6.38982 0.12769,-3.10162 0.48703,-6.1819 0.95204,-9.2508 0.70985,-4.81525 1.05464,-9.5842 0.53709,-14.45336 -0.35353,-6.00449 -1.02566,-11.98194 -1.32833,-17.98831 0.30784,-5.66262 0.78236,-11.3372 2.43459,-16.79584 1.60628,-5.76723 3.23425,-11.52093 5.38454,-17.11743 2.61017,-6.47962 4.67754,-13.16978 7.50253,-19.56664 2.28253,-5.79057 4.39916,-11.65644 6.17881,-17.6221 1.42312,-4.36884 2.81977,-8.74057 4.55888,-12.99558 1.85638,-3.99633 4.05706,-7.7688 6.78178,-11.24327 3.11675,-4.46295 6.64353,-8.62242 10.16631,-12.76657 4.20171,-5.21364 8.34926,-10.47258 12.45608,-15.76022 2.56058,-3.50649 5.29587,-6.85961 8.26634,-10.02805 3.84008,-4.37204 20.24823,-12.70166 4.49355,-3.64326 -0.47656,0.274 0.93717,-0.57486 1.40576,-0.86229 4.01451,-3.07524 7.99959,-6.18755 12.00297,-9.27168 0,0 8.48102,-3.42321 8.48102,-3.42321 z"
       inkscape:connector-curvature="0" />
    <path
       style="fill:#000000"
       id="path3460"
       d="m 371.31205,812.53577 c 1.92266,4.35373 4.2171,8.49437 5.6282,13.05468 0.87752,4.44941 1.43373,8.97515 2.02667,13.47797 0.86672,6.10379 0.87881,12.22958 0.43007,18.36132 -0.47345,5.33112 -0.89168,10.6659 -1.11337,16.01379 -0.20383,2.66389 0.0824,5.35808 -0.31473,8.00145 -0.65338,2.22284 -1.14085,4.47409 -1.42263,6.77321 -0.71818,2.40294 -1.2787,4.84568 -1.93413,7.26468 -0.82194,2.9896 -1.63684,5.96275 -2.80291,8.83957 -1.38002,3.33007 -2.49334,6.76763 -3.91995,10.07846 -1.42577,3.22995 -2.55349,6.57609 -3.76892,9.88708 -1.19041,3.14126 -2.6021,6.18229 -3.49716,9.42568 -1.12774,2.88244 -1.86806,5.88218 -2.95863,8.77504 -0.69686,2.36149 -1.75638,4.48634 -3.15147,6.50317 -1.56151,1.95097 -3.134,3.85967 -4.88973,5.63761 -2.09368,2.35104 -4.41217,4.41395 -7.06349,6.10361 -0.42823,0.26443 -0.84757,0.54381 -1.28468,0.79329 -10.78325,6.15446 -6.83797,4.17677 -14.42715,6.63302 -2.75423,0.39223 -5.43604,0.33684 -7.95534,-0.88444 -3.10204,-1.38701 -5.62474,-3.73825 -8.23146,-5.87154 -2.44106,-2.01837 -4.40279,-4.55429 -5.76238,-7.40533 -2.06398,-3.68222 -2.61949,-7.81297 -3.03401,-11.94279 -0.62447,-4.63537 0.006,-9.20962 0.67542,-13.78934 0.56045,-2.68067 0.41283,-5.45467 0.91704,-8.13352 0.44584,-2.50287 1.81597,-4.355 3.53704,-6.14128 3.49606,-3.22396 7.81963,-5.07742 11.91646,-7.51864 2.21237,-1.31831 -8.95167,5.09761 -6.70419,3.8401 3.04841,-1.70566 6.07138,-3.45638 9.10708,-5.18457 2.93503,-1.22266 5.83007,-2.45418 8.95836,-3.08641 2.05899,-1.19225 4.71222,-1.18914 6.68255,-2.46068 2.78765,-1.50837 7.51168,-3.73188 -5.41166,3.15194 -0.31926,0.17006 0.5593,-0.45922 0.82926,-0.7 0.65491,-0.58413 1.28891,-1.19138 1.94209,-1.77743 1.99888,-2.17216 4.22461,-4.15903 5.94469,-6.56653 1.81046,-2.38671 2.76717,-5.18439 3.89695,-7.91629 1.1493,-2.73797 1.35945,-5.70821 2.14831,-8.55003 0.77964,-3.26622 1.62806,-6.51891 2.65066,-9.71904 1.0993,-3.33023 2.6997,-6.47343 4.09894,-9.68746 1.40125,-2.70522 2.84779,-5.38085 4.27746,-8.07116 0.80849,-1.88004 1.34735,-3.81138 2.25704,-5.65001 0.87062,-1.6289 0.87502,-3.48256 1.2592,-5.24184 0.75826,-2.11663 1.2434,-4.28013 1.51097,-6.50856 0.18196,-1.80738 0.21178,-3.6253 0.21814,-5.44037 0.26194,-1.6503 -0.52992,-2.95118 -1.05032,-4.44644 -1.00414,-1.89255 -2.17481,-3.68255 -3.48526,-5.37617 -1.14858,-1.89591 -2.35038,-3.75199 -3.648,-5.54987 -0.30887,-0.42746 -0.6261,-0.84888 -0.96088,-1.25611 2.9074,-1.39485 5.81481,-2.7897 8.72222,-4.18456 0,0 -7.76408,4.91331 -7.76408,4.91331 l 0,0 c 2.3278,-1.8274 4.6556,-3.6548 6.9834,-5.48221 0.32263,0.44004 0.64018,0.88375 0.95111,1.33218 1.25527,1.80973 2.45577,3.65162 3.60643,5.52865 1.3717,1.77198 2.57815,3.66232 3.65258,5.6285 0.53177,1.58051 1.46317,2.9751 1.2004,4.71563 -0.011,1.84674 -0.0315,3.69645 -0.19871,5.53693 -0.22072,2.26967 -0.61343,4.49987 -1.44108,6.63577 -0.58462,1.74505 -0.313,3.69358 -1.18494,5.37786 -0.82301,1.89561 -1.71764,3.68483 -2.25924,5.70502 -1.42379,2.69063 -2.85316,5.35969 -4.33875,8.0149 -1.35196,3.22103 -2.98232,6.3298 -4.1365,9.62027 -1.08637,3.1615 -1.88796,6.41926 -2.64409,9.67181 -0.83187,2.87046 -1.08032,5.83323 -2.10026,8.65053 -1.17544,2.75117 -2.01231,5.63817 -3.82728,8.07087 -1.57284,2.58089 -3.92561,4.47676 -5.85133,6.78281 -0.66,0.59109 -2.01007,2.16617 -2.69487,2.59828 -3.38515,2.13602 -6.78121,4.1479 -10.33439,5.93721 -2.22425,0.84688 -4.55396,1.43858 -6.79111,2.25802 -3.05986,0.7514 -5.95374,1.97074 -8.81456,3.28049 2.19768,-1.28823 8.8019,-5.13366 6.59304,-3.86469 -3.00662,1.72728 -5.99443,3.48714 -8.98641,5.23966 -2.25049,1.3182 4.5057,-2.62832 6.76192,-3.93669 3.1121,-1.80469 -6.53957,3.6966 -3.05708,2.19385 -1.78692,1.56338 -3.23722,3.27575 -3.74178,5.65508 -0.76822,2.59629 -0.30645,5.44444 -0.99556,8.08253 -0.67333,4.52085 -1.46865,9.01972 -0.80798,13.60679 0.38537,4.02671 0.89661,8.05925 2.93359,11.63872 1.29031,2.73642 3.20352,5.14647 5.55124,7.06249 2.54119,2.09925 5.03466,4.36685 8.10714,5.65478 2.42395,0.95626 5.04862,0.92064 7.58187,0.35905 1.27298,-0.34258 2.58027,-0.59528 3.82144,-1.04592 0.45535,-0.16533 1.75555,-0.8057 1.34722,-0.54505 -1.70892,1.09088 -9.76181,5.77952 -5.24693,3.07627 2.65711,-1.64765 5.09699,-3.47499 7.12898,-5.88447 1.67116,-1.81891 3.38276,-3.57017 4.94164,-5.4959 1.34035,-2.00894 2.67125,-3.91269 3.25471,-6.31407 1.09783,-2.87714 1.8238,-5.84803 3.01632,-8.69526 0.82356,-3.29769 2.20288,-6.36903 3.46623,-9.51479 1.26963,-3.30101 2.30832,-6.69023 3.73251,-9.93316 1.52553,-3.26341 2.57061,-6.72869 3.9316,-10.0605 1.23561,-2.82122 2.02542,-5.768 2.83136,-8.73463 0.72659,-2.35099 1.04009,-4.82116 1.97704,-7.11937 0.26922,-2.31417 0.63364,-4.62416 1.40363,-6.8331 0.59793,-2.57261 0.11947,-5.28882 0.41661,-7.90848 0.27277,-5.36904 0.67735,-10.72779 1.18813,-16.07973 0.45686,-6.07006 0.4725,-12.12584 -0.39202,-18.17076 -0.59817,-4.4536 -1.20736,-8.91311 -1.9875,-13.33095 -1.34803,-4.52624 -3.58025,-8.64246 -5.58775,-12.90053 0,0 7.96169,-4.53326 7.96169,-4.53326 z"
       inkscape:connector-curvature="0" />
    <path
       style="fill:#000000"
       id="path3462"
       d="m 573.49258,779.49552 c -2.82858,2.8011 -5.63844,5.62099 -8.44148,8.44762 -1.27655,1.27771 -1.63955,2.66099 -1.74721,4.40084 0.0651,3.81374 -0.0917,7.58036 -0.52801,11.36928 -0.97593,6.51093 -2.70248,12.86131 -4.33369,19.22738 -1.18027,5.24213 -2.79549,10.3618 -3.71262,15.66186 -0.74055,3.19882 -1.65933,6.34118 -2.15815,9.59114 -0.23381,2.01849 -0.20264,3.99713 -0.81213,5.94525 -0.77429,2.00162 -1.08419,4.09733 -1.24843,6.22268 -0.63989,2.89323 -1.16143,5.81952 -1.83852,8.70452 -0.78997,3.50794 -1.97784,6.90065 -2.87007,10.38157 -0.4316,2.5234 -1.55554,4.8396 -2.24687,7.29112 -0.55052,2.31434 -0.54778,4.71382 -0.58849,7.07944 0.15761,2.18584 -0.69491,4.21069 -1.27352,6.26961 -0.31857,1.00889 -0.46624,2.04503 -0.52832,3.0971 -0.51049,8.85577 -8.41742,4.94804 -11.81076,3.3109 -3.19153,-1.10934 -6.70759,-1.42116 -10.05813,-1.10811 -4.00589,0.25335 -7.70418,1.64719 -11.41054,3.05622 -2.77176,1.42139 -10.02039,4.74892 2.7947,-1.86197 0.5009,-0.2584 -0.91616,0.65901 -1.34459,1.02522 -1.26667,1.08272 -1.35776,1.31012 -2.40483,2.59102 -2.37872,3.61809 -2.09899,7.49302 -1.20513,11.5162 1.2452,4.53359 4.9864,6.82388 9.20941,8.16003 6.58433,1.7617 12.5355,-0.35934 18.22772,-3.59254 -1.34321,0.70397 -3.72227,3.59693 -4.02963,2.1119 -0.32802,-1.58485 2.61667,-1.90961 3.85609,-2.95037 6.16218,-5.17442 11.16763,-11.49712 16.16578,-17.75183 9.16196,-11.89258 17.74086,-24.23472 26.17387,-36.65252 6.96968,-10.6138 13.02972,-21.80199 17.8471,-33.54877 2.32465,-6.46361 4.38895,-13.26875 4.35771,-20.2001 -0.14996,-2.74711 -0.86843,-5.41168 -1.31989,-8.11379 -0.51726,-2.40934 -0.0107,-4.68463 0.49348,-7.03941 0.75545,-3.06884 1.98059,-5.94666 3.26597,-8.81732 0.49997,-1.17969 0.95849,-2.37726 1.35927,-3.5943 5.58879,-3.61377 7.88369,-7.09212 9.72989,-2.59611 0,0 -8.03716,4.47888 -8.03716,4.47888 l 0,0 c -1.45157,-4.02194 -5.19545,1.38618 6.66964,-5.8236 -0.3899,1.26253 -0.89769,2.48576 -1.38701,3.71173 -1.21348,2.85369 -2.61007,5.61092 -3.35276,8.65033 -0.46212,2.26068 -1.11281,4.4026 -0.61272,6.72509 0.4169,2.75998 1.1234,5.47789 1.30592,8.27213 0.12792,7.06101 -2.06575,14.02435 -4.38599,20.61374 -4.81291,11.83366 -10.92224,23.08155 -17.90773,33.7772 -8.40433,12.42936 -17.00526,24.74641 -26.0895,36.68863 -8.88982,11.25539 -17.76043,21.51481 -31.11652,27.71313 -5.92659,3.13895 -12.06029,4.99418 -18.73848,3.04266 -4.45541,-1.56508 -8.34633,-4.16202 -9.71999,-8.94272 -0.97043,-4.2178 -1.37124,-8.28603 0.84099,-12.23042 3.99648,-5.52109 10.41584,-8.29534 16.53961,-10.99102 3.74517,-1.4143 7.54266,-2.62954 11.57671,-2.84258 3.48553,-0.13669 7.1144,0.14169 10.37461,1.46659 0.14359,0.0705 1.7173,0.84701 1.92677,0.93759 0.33954,0.14683 1.30844,0.15497 1.03401,0.40302 -7.26128,6.56341 -7.17013,7.85018 -7.0681,4.55283 0.0551,-1.11045 0.11496,-2.22434 0.46802,-3.28836 0.54397,-2.00702 1.5013,-3.95555 1.40624,-6.07248 0.0213,-2.42942 0.025,-4.88331 0.46612,-7.27988 0.66058,-2.476 1.8059,-4.78128 2.29277,-7.2959 0.89189,-3.4824 2.06714,-6.87214 2.87035,-10.37585 0.74993,-2.81653 1.06035,-5.7428 1.89089,-8.54774 0.12147,-2.18095 0.33134,-4.36177 1.1344,-6.41605 0.62907,-1.91863 0.78634,-3.78501 0.89614,-5.81683 0.44992,-3.2786 1.35174,-6.44231 2.19817,-9.63515 0.89084,-5.34674 2.54518,-10.48816 3.75452,-15.76371 1.59888,-6.32998 3.37052,-12.6231 4.33974,-19.09336 0.42175,-3.75732 0.62866,-7.48249 0.46606,-11.26533 0.043,-1.90045 0.2025,-3.49786 1.47231,-5.02597 2.83135,-2.80819 5.65658,-5.6226 8.46244,-8.4563 0,0 8.45955,-3.50406 8.45955,-3.50406 z"
       inkscape:connector-curvature="0" />
    <path
       style="fill:#000000"
       id="path3464"
       d="m 354.46155,288.75936 c 1.94766,5.05984 5.25074,9.32082 9.74038,12.32762 2.39151,0.99928 4.88273,1.37319 7.27054,0.14843 0.5379,-0.2759 2.07405,-1.2336 1.52346,-0.98398 -2.17754,0.98722 -4.27853,2.13527 -6.41779,3.2029 3.25953,-4.35181 4.04386,-9.59 4.20364,-14.87242 0.13801,-5.46929 -1.07264,-10.82263 -3.69936,-15.61069 -1.4887,-2.80134 -3.82001,-4.22356 -6.82528,-4.86046 -2.81969,1.30608 -7.60259,2.75243 5.4053,-3.04505 0.37565,-0.16743 -0.52584,0.64062 -0.71365,1.0065 -0.61949,1.20683 -0.70115,2.1484 -0.97737,3.49254 -0.76208,6.19143 -0.70061,12.45269 -0.72086,18.68104 0.2365,4.18731 -0.59184,9.03817 1.32784,12.95154 0.16115,0.16793 0.26212,0.43178 0.48345,0.50379 0.42129,0.13706 1.46275,-0.99038 1.06518,-0.7949 -2.44308,1.20126 -4.65696,2.8703 -7.18061,3.89148 -0.46855,0.18959 0.5606,-0.84515 0.77887,-1.30105 0.28935,-0.60437 0.49269,-1.24628 0.73904,-1.86942 1.73724,-6.0607 1.86831,-12.42936 2.07549,-18.68808 -0.0196,-6.53577 -1.17843,-11.91209 -5.81419,-16.65146 -2.58847,-1.85572 -5.6944,-1.9245 -8.56847,-0.57944 -0.77549,0.36292 -2.97906,1.66822 -2.18229,1.35478 1.9154,-0.75348 3.70735,-1.78927 5.56103,-2.68391 -5.07273,5.85793 -6.67054,13.13516 -7.24483,20.64412 -0.39668,5.4642 0.013,10.7833 3.97982,14.822 3.3776,2.05239 7.1792,0.16939 10.29626,-1.55565 1.01741,-0.545 11.61537,-6.24368 -4.00787,2.351 -0.57196,0.31465 1.11652,-0.67713 1.66329,-1.03375 1.53847,-1.00341 2.84891,-2.16893 4.21471,-3.38812 2.19987,-2.04266 3.71362,-4.65088 3.1044,-7.68771 -1.04522,-3.70445 -3.54835,-6.54104 -6.47601,-8.9066 -3.49146,-2.28452 -6.97353,-4.52749 -11.20612,-4.8181 -2.56467,0.94856 -10.67964,3.62006 4.45633,-2.68822 0.39987,-0.16666 -0.53837,0.69515 -0.69146,1.10041 -0.49951,1.32232 -0.24128,2.12764 -0.1183,3.53668 0.99585,6.88174 4.61541,13.0083 8.05516,18.92687 3.73743,6.01008 7.92916,11.83354 12.96478,16.82882 0.76169,0.55421 1.74499,1.5178 2.82255,1.56457 0.29778,0.0129 1.09802,-0.4589 0.83657,-0.31578 -2.46244,1.34792 -4.83914,2.89337 -7.44637,3.93396 -0.34203,0.13651 0.25808,-0.70271 0.27235,-1.0707 0.0232,-0.59702 -0.10773,-1.19007 -0.16159,-1.7851 -1.55374,-5.83212 -4.41301,-11.24275 -7.46422,-16.41609 -2.07474,-3.24727 -3.83992,-6.91892 -6.64641,-9.63444 6.39413,-2.23191 7.07484,-6.71159 8.68931,-2.59715 0.48776,1.24305 0.87029,2.44415 1.18471,3.74311 1.08542,3.25854 1.77466,6.61737 2.70198,9.92073 0.78704,3.06942 1.26679,6.3277 2.86079,9.11245 1.29139,1.39665 3.06353,1.73894 4.88101,1.85192 2.82761,-1.5278 7.24207,-3.17034 -6.09265,3.43705 -0.24063,0.11924 0.32728,-0.43197 0.43575,-0.67763 0.35248,-0.79826 0.395,-1.62302 0.51835,-2.47776 0.0949,-4.88338 -1.627,-9.34469 -3.82229,-13.6131 -2.70007,-4.85855 -6.8981,-8.52695 -11.45712,-11.58435 -1.05786,-0.63006 -2.28433,-1.44359 -3.47196,-1.85012 -3.92321,-1.34293 -9.32104,3.15607 4.14938,-4.1871 -1.88139,1.90717 -0.73437,5.36706 -0.1724,7.61096 1.73681,5.24579 4.24806,10.22456 7.07144,14.96401 1.95078,2.6525 4.05147,7.39999 7.97939,6.93186 3.79734,-2.4328 -2.92578,1.91745 -5.69494,2.83128 -0.66751,0.22028 0.90003,-1.08567 1.27066,-1.68294 0.44355,-0.71479 0.80398,-1.47894 1.16337,-2.23952 1.30657,-2.76513 1.25668,-2.95183 2.25335,-5.98916 2.14003,-7.84476 3.33381,-15.87473 4.09864,-23.95529 0.33216,-4.92451 1.15788,-10.20821 -1.16217,-14.76987 -2.29983,-3.385 -6.44914,-4.05982 -10.23595,-4.53995 -4.46355,-0.66842 -8.44205,0.53149 -12.34702,2.53848 2.13114,-1.17764 4.19731,-2.48139 6.39341,-3.53294 0.53029,-0.25391 -0.94851,0.70318 -1.36021,1.12292 -1.88412,1.92098 -2.69614,4.34458 -3.10344,6.93016 -0.52758,4.89623 0.99912,9.17908 3.20492,13.44959 3.01686,4.87549 7.54627,8.2249 12.34408,11.18374 3.78556,2.17379 7.78,3.22119 12.10573,2.75739 0.51457,-0.16924 1.05539,-0.27325 1.5437,-0.50773 0.4612,-0.22145 1.73684,-1.07697 1.2794,-0.84786 -2.27292,1.13839 -4.35232,2.69062 -6.73384,3.5797 -0.50801,0.18966 0.62344,-0.8938 0.85399,-1.38461 0.63114,-1.3436 0.72661,-2.34884 1.01598,-3.81304 0.30684,-5.50778 -1.57575,-10.75581 -3.77818,-15.7076 -2.18528,-4.19051 -4.69589,-8.43701 -8.82719,-10.92235 -1.66987,-0.92267 -3.43678,-1.36075 -5.31413,-0.80356 -0.42041,0.12478 -1.58545,0.74585 -1.20538,0.5271 2.2325,-1.2849 4.51225,-2.48589 6.76837,-3.72883 -2.76912,2.45538 -3.72469,5.8705 -4.33795,9.38135 -0.86735,6.39541 0.61244,12.82162 2.4439,18.92302 1.44362,5.28411 3.07383,10.58811 7.80443,13.74421 1.37944,0.36495 1.85795,0.69157 3.30096,0.27595 0.67447,-0.19426 2.51339,-1.24283 1.91415,-0.87738 -1.85987,1.13428 -3.69221,2.35456 -5.70453,3.189 -0.85938,0.35636 1.50258,-1.10345 2.18913,-1.73128 0.76617,-0.70065 1.43934,-1.49667 2.15901,-2.24501 4.902,-5.42503 9.04882,-11.44258 12.36735,-17.94812 2.56865,-4.87085 4.11625,-9.13245 2.27528,-14.47581 -3.23332,-4.89683 -9.07374,-5.92258 -14.47062,-6.78808 -7.40745,-0.55707 -14.55483,1.54002 -20.95708,5.13986 1.60519,-0.77383 3.03358,-2.32089 4.81556,-2.32148 1.16724,-3.8e-4 -1.80282,1.4895 -2.62224,2.32076 -0.78508,0.79641 -1.52311,1.64514 -2.17962,2.55047 -1.92624,2.65629 -2.89302,5.37757 -3.62731,8.52358 -0.99897,5.86013 0.77609,11.14098 4.18773,15.84346 3.38137,4.50095 7.77661,7.31557 13.07251,8.99571 2.68786,0.67323 5.47623,1.22871 8.16304,0.20898 0.58121,-0.22059 2.19413,-1.16987 1.65077,-0.86784 -2.07037,1.15083 -4.15474,2.27628 -6.23212,3.41442 3.63872,-3.14886 4.48347,-8.30519 5.3936,-12.81376 1.11267,-6.43741 0.41683,-12.99431 -0.57656,-19.39665 -0.84809,-4.95796 -2.99563,-9.17639 -7.10526,-12.11069 -1.51225,-0.50161 -1.73546,-0.78209 -3.35123,-0.50936 -0.5978,0.1009 -2.24618,0.86847 -1.73686,0.53961 1.93207,-1.2475 3.91592,-2.4573 6.04681,-3.32246 0.7753,-0.31478 -1.315,1.0421 -1.90113,1.63928 -0.68326,0.69615 -1.26383,1.48614 -1.89574,2.2292 -4.85838,6.04433 -6.29036,13.5015 -7.25386,20.98514 -0.31123,6.7546 0.17394,13.88404 3.80461,19.74193 2.82233,3.50425 6.80568,4.49742 11.0627,4.98366 3.42619,-0.3 11.81572,-3.50747 -2.229,2.62747 -0.45296,0.19786 0.67671,-0.7307 0.92925,-1.15561 0.28443,-0.47857 0.44498,-1.02064 0.66747,-1.53096 1.48394,-5.44743 0.99833,-11.12054 0.14065,-16.62379 -0.6755,-5.25427 -2.12061,-10.32705 -3.55572,-15.40806 -0.36615,-1.73341 -1.37776,-3.69739 -0.71303,-5.45987 6.96158,-4.34594 8.15093,-7.40883 12.5141,-1.83948 2.27975,2.25922 3.39419,5.30717 5.00819,8.01219 1.22831,1.99146 2.22317,4.64071 4.4204,5.75437 0.78246,0.16941 0.46585,0.28194 0.9772,-0.24739 -2.49591,1.36735 -4.91015,2.89566 -7.48772,4.10203 -0.30298,0.14181 0.37817,-0.5535 0.53603,-0.84845 0.53918,-1.00741 0.61431,-1.39711 0.98774,-2.50919 1.21159,-3.78952 0.81835,-7.64013 0.35805,-11.50772 -0.69904,-2.88075 -1.21084,-6.66278 -3.90956,-8.40846 -2.59618,-0.36684 -11.24449,4.54817 4.51574,-3.34839 0.33243,-0.16657 -0.55602,0.49713 -0.79796,0.77947 -0.30284,0.35341 -0.55419,0.74788 -0.83128,1.12182 -1.60281,2.09483 -2.30434,4.57304 -2.7143,7.13301 -0.15231,0.84335 -0.52564,1.58095 -0.94614,2.31249 0,0 -8.44709,3.69175 -8.44709,3.69175 l 0,0 c 0.47487,-0.60235 0.90274,-1.21924 1.14723,-1.95862 0.38437,-2.65043 0.95355,-5.30883 2.55362,-7.52365 2.80119,-4.22742 8.20293,-8.89031 13.28711,-7.12455 2.69316,2.23182 3.50072,5.80825 4.21681,9.08866 0.48153,3.96387 0.9776,7.91431 -0.14729,11.83106 -1.26368,4.45188 -5.70434,10.71471 -11.02529,8.40889 -2.16076,-1.5045 -3.3726,-3.90363 -4.61233,-6.16171 -1.58411,-2.6753 -2.71018,-5.66441 -4.96012,-7.89242 -0.66576,-0.81013 -1.33315,-1.70081 -2.36331,-2.0791 -0.35628,-0.13083 -1.46034,0.1996 -1.13862,-0.002 2.4233,-1.5167 4.88097,-2.97777 7.32145,-4.46666 -1.3543,0.9695 0.15042,3.46569 0.28232,4.77453 1.36818,5.13953 2.82593,10.25193 3.5171,15.54214 0.91473,5.62883 1.41703,11.38159 0.16161,17.00659 -0.15951,0.47195 -0.83813,2.7981 -1.36715,3.16466 -4.95115,3.43061 -8.2235,6.07646 -13.76319,6.02334 -4.47376,-0.65436 -8.56518,-1.96133 -11.44403,-5.70316 -3.68666,-6.06926 -4.29626,-13.33675 -4.01072,-20.32091 0.89473,-7.57288 2.23438,-15.18063 6.96786,-21.41086 4.30466,-5.51074 11.68214,-12.33331 18.88835,-9.01403 4.18185,3.19786 6.50718,7.56576 7.39704,12.76095 1.00326,6.4897 1.74964,13.13013 0.73158,19.66821 -0.85858,4.63719 -1.71205,9.90336 -5.05049,13.43519 -8.2336,4.90178 -10.80897,8.21989 -19.61337,5.69546 -5.38422,-1.87409 -9.88832,-4.87598 -13.34963,-9.49084 -3.52783,-4.89661 -5.45622,-10.41314 -4.53606,-16.51861 2.20953,-11.13055 9.06501,-15.125 18.79767,-20.67108 6.60071,-3.42247 13.8334,-5.45029 21.32935,-4.67304 5.72734,0.99863 11.72784,2.30699 15.04839,7.56811 2.00279,5.58684 0.72912,10.01128 -2.02019,15.16243 -3.24185,6.5923 -7.41,12.64296 -12.24732,18.17527 -4.40399,4.92678 -7.39435,6.34702 -14.17395,9.90529 -1.93996,1.01819 -3.84087,0.75612 -5.73613,-0.11454 -4.73716,-3.46107 -6.56163,-8.80013 -8.0254,-14.31725 -1.87952,-6.20265 -3.43095,-12.73417 -2.7011,-19.25031 0.53683,-3.71145 1.45363,-7.13778 3.9803,-10.03342 5.96153,-3.48498 9.74371,-7.78747 15.97069,-4.295 4.16122,2.74401 6.78106,7.05654 9.03532,11.42033 2.29644,5.09777 4.19796,10.49072 4.07966,16.16093 -1.2743,8.11583 -4.84531,10.12629 -13.51001,12.40428 -4.43804,0.233 -8.55611,-1.00252 -12.38081,-3.27424 -4.89412,-3.10425 -9.50755,-6.57626 -12.59906,-11.59517 -2.3033,-4.41604 -3.92361,-8.84021 -3.50502,-13.91746 0.89591,-8.49092 5.86468,-10.08497 13.39171,-14.26312 4.00736,-1.92734 8.19995,-2.77366 12.65783,-2.08815 4.08009,0.61348 8.33038,1.58533 10.73552,5.26591 2.38872,4.75679 1.71826,10.141 1.27989,15.28592 -0.78065,8.12485 -1.94891,16.19805 -3.99154,24.114 -2.37267,7.84934 -5.08671,14.23523 -14.59328,16.31581 -4.16688,-0.53612 -6.24863,-4.58405 -8.40547,-7.76443 -2.85623,-4.81758 -5.37408,-9.87775 -7.23513,-15.16577 -0.76343,-2.82434 -1.5388,-5.80987 -0.40373,-8.64443 8.42744,-4.65409 8.47707,-6.71534 15.58477,-2.17324 4.62416,3.21072 8.90596,6.99736 11.67241,11.98055 2.28259,4.41738 4.05772,9.00583 4.14992,14.04899 -0.51369,5.8122 -3.58658,8.46148 -10.56971,9.11713 -2.06934,-0.28435 -3.97524,-0.91236 -5.33493,-2.60428 -1.60103,-2.86647 -2.16764,-6.16643 -2.93029,-9.32537 -0.93469,-3.31236 -1.6282,-6.68031 -2.74934,-9.9384 -0.8231,-3.55229 -6.23268,-12.12326 6.08088,-10.28801 2.54597,3.04459 4.61746,6.46346 6.58598,9.89898 3.10434,5.28427 6.01122,10.78683 7.72913,16.69496 0.13503,0.88516 0.57845,3.18257 0.25004,3.44347 -6.03891,4.79768 -7.63664,7.17342 -12.40887,3.21938 -5.00255,-5.12358 -9.22138,-11.00741 -12.99789,-17.07564 -3.51548,-6.01167 -7.1997,-12.22319 -8.353,-19.1913 -0.20604,-1.4937 -0.50856,-2.52729 -0.16527,-4.00594 1.09952,-4.73593 7.55761,-6.97009 12.05241,-7.47742 4.29403,0.56945 7.91993,2.90335 11.46812,5.28381 3.05448,2.51893 5.66741,5.5317 6.82979,9.39907 0.82533,3.25795 -0.36429,6.21503 -2.70381,8.58354 -5.24239,4.59439 -11.0205,8.29477 -17.45324,11.22709 -3.54262,1.73476 -7.48179,3.20181 -10.99479,0.60643 -4.0045,-4.34575 -4.66103,-9.78367 -4.22291,-15.55131 0.53957,-7.67793 2.05169,-15.03056 6.89194,-21.26384 6.26769,-4.07033 13.75023,-11.63152 21.35252,-6.23249 4.83234,5.12633 5.99497,10.3517 6.10939,17.31185 -0.18534,6.32449 -0.31562,12.73141 -1.85818,18.90172 -0.0617,0.18645 -0.93156,3.09424 -1.33972,3.4046 -1.09968,0.83622 -7.90582,8.31594 -10.80381,4.55244 -1.9163,-4.09884 -1.25517,-9.00081 -1.39438,-13.38092 0.0298,-6.26283 -0.0423,-12.54678 0.57454,-18.78609 0.99247,-6.26807 4.11345,-10.71118 12.04538,-10.66823 3.14694,0.86922 5.61042,2.58474 7.1645,5.54474 2.67792,4.92218 3.98177,10.4359 3.88463,16.05098 -0.0916,5.45003 -0.82959,10.76761 -3.86228,15.44754 -6.85922,4.56637 -10.64385,9.59596 -18.47601,6.04939 -4.5677,-3.24146 -7.93907,-7.66417 -10.10232,-12.84372 0,0 8.03705,-4.38095 8.03705,-4.38095 z"
       inkscape:connector-curvature="0" />
    <path
       style="fill:#000000"
       id="path3466"
       d="m 258.53896,221.74754 c 3.70661,5.11743 6.85162,10.58458 9.3835,16.36845 1.68002,2.83375 1.3658,6.63171 3.23748,9.33112 5.23211,-3.07479 -9.51906,8.18196 -5.59536,2.68355 0.25987,-0.3934 0.45263,-0.8236 0.64626,-1.25136 2.86954,-1.15679 5.62314,-2.65836 8.60862,-3.47036 0.39486,-0.1074 1.69776,7.19963 1.79638,7.70256 1.03562,4.15952 2.14385,8.37141 4.6735,11.88908 1.11943,1.51472 2.63327,2.21768 4.49094,1.6193 0.49334,-0.15892 1.87251,-0.88564 1.42136,-0.63049 -2.05929,1.16463 -4.16717,2.24117 -6.25075,3.36176 5.0276,-4.47199 7.35777,-10.96936 9.78893,-17.06087 3.07831,-8.15076 4.99445,-16.62418 6.23368,-25.22753 0.20014,-1.78851 0.52762,-3.69958 0.37038,-5.52211 -0.0648,-0.7507 -0.24813,-2.17335 -0.98843,-2.03293 -0.35176,0.0667 -1.12577,0.86452 -0.79931,0.7175 2.22552,-1.00225 4.35738,-2.20068 6.53607,-3.30102 -5.24329,7.23717 -7.72006,16.14193 -10.60454,24.50524 -2.60434,8.13233 -5.89842,16.09444 -7.65507,24.47113 -2.10395,3.31173 1.34462,0.65985 0.957,0.8413 -2.19836,1.02906 -4.18086,2.51157 -6.44063,3.39768 -0.72074,0.28262 1.16811,-1.01706 1.72938,-1.55028 0.71158,-0.67602 1.39195,-1.38416 2.08793,-2.07624 4.28855,-4.33212 8.26655,-9.00012 11.4352,-14.2179 1.48595,-2.78419 2.79,-4.44966 -0.1196,-6.55962 -3.36947,-1.84959 -7.07676,-2.6102 -10.84165,-3.15229 -3.24386,-0.0551 -6.79617,-1.10132 -9.98414,-0.21927 -2.44803,1.15791 -8.43712,4.01234 6.32888,-3.60832 0.30215,-0.15594 -0.52073,0.44077 -0.74735,0.69425 -0.80862,0.90447 -1.09004,1.87291 -1.40121,3.01971 -0.22194,4.14333 1.05669,8.18188 2.69862,11.93255 1.96441,4.15802 4.98257,6.81015 9.55998,7.37032 1.85007,-0.22391 2.38578,-0.14825 4.12763,-0.93911 0.63559,-0.28858 2.43414,-1.36335 1.80303,-1.06508 -2.04365,0.96582 -3.87823,2.43072 -6.04621,3.0704 -0.72826,0.21487 1.05208,-1.10313 1.48735,-1.72528 0.46012,-0.65768 0.79056,-1.39715 1.18585,-2.09572 2.2252,-5.02095 1.63871,-8.87063 -1.949,-12.94173 -4.12907,-3.29098 -9.02289,-3.36034 -13.89633,-1.97318 -1.20741,0.45959 -2.52723,0.9127 -3.67906,1.52198 -0.49524,0.26197 -1.92304,1.14989 -1.43262,0.879 11.41945,-6.30774 7.0681,-5.15606 5.47774,-2.242 0.16733,2.10701 3.64946,3.27798 5.25542,4.19192 3.3336,1.69434 6.93763,2.77062 10.33067,4.32603 1.22814,0.50281 2.42203,1.34831 3.73347,1.64984 2.52046,0.57952 12.72041,-5.78119 -6.2194,3.68093 0.0318,-3.50664 -1.47491,-6.92967 -2.83767,-10.10526 -1.14789,-2.84894 -2.29293,-5.67468 -3.93724,-8.27581 -1.57661,-2.37558 -7.75263,1.09399 6.96968,-4.26211 0.342,-0.12442 -0.10956,0.72008 -0.14091,1.08266 -0.0439,0.50749 -0.0564,1.01719 -0.0846,1.52579 -0.0223,4.30567 -0.25031,8.63156 0.17359,12.92143 0.10327,0.62081 0.1938,1.24387 0.30982,1.86242 0.11932,0.63614 0.22845,1.74727 0.77236,2.29425 0.0983,0.0989 0.53528,0.003 0.4125,0.0692 -8.29524,4.46207 -9.1845,5.70892 -6.6454,2.80623 2.88985,-5.87277 4.00401,-12.47122 4.94329,-18.89492 0.1834,-5.48738 1.3882,-12.49053 -2.87749,-16.78426 -2.76526,-0.20553 -9.80934,2.5154 2.56457,-2.72548 0.80678,-0.34171 -1.44177,1.0059 -2.0837,1.6022 -1.40296,1.30325 -2.45094,2.85083 -3.5894,4.37223 -2.66714,3.8508 -4.38818,8.06737 -4.3236,12.76932 0.50221,3.04643 2.02352,5.81196 3.65642,8.39671 1.20996,1.46639 2.04206,3.1423 2.73753,4.8899 -0.35967,-0.008 0.30068,0.31708 0.17532,0.37407 -10.04462,4.56683 -7.29092,5.68458 -9.28969,0.13658 -0.95175,-2.52424 -2.08239,-5.10767 -3.95942,-7.08345 -0.18625,-0.026 -1.12727,-1.21686 -1.39601,-1.09677 -0.12037,0.0538 -0.15266,0.44781 -0.0322,0.39421 8.39926,-3.73786 7.34485,-6.85971 8.19673,-2.65853 0.0832,0.4779 0.16642,0.9558 0.24963,1.4337 0,0 -8.09288,4.30114 -8.09288,4.30114 l 0,0 c -0.0817,-0.46763 -0.16344,-0.93527 -0.24516,-1.4029 -1.03953,-4.89684 6.2601,-9.97465 9.17709,-5.74026 1.89004,2.12019 3.10888,4.76921 4.1152,7.4041 2.18273,5.70749 1.18058,3.76991 -6.76259,8.88492 -0.1412,0.0909 -0.0299,-0.71394 -0.19899,-0.46286 -0.6224,-1.71645 -1.43835,-3.32602 -2.59407,-4.76277 -1.70537,-2.73701 -3.28047,-5.64074 -3.87287,-8.84026 -0.14079,-4.88376 1.40379,-9.2757 4.13516,-13.33798 4.09361,-5.71891 11.67734,-14.04728 19.24122,-11.5985 4.25581,4.76686 3.41238,11.62353 3.13284,17.56772 -0.88693,6.51798 -2.07048,13.08175 -4.59808,19.18935 -5.20724,9.882 -10.7204,8.20598 -11.33558,0.86419 -0.48569,-4.31816 -0.21004,-8.67902 -0.27191,-13.01895 0.0104,-0.46414 0.0394,-2.66361 0.11958,-2.73049 4.4307,-3.69508 6.75715,-8.30594 9.2595,-4.36352 1.62382,2.67014 2.79341,5.52639 3.93797,8.4305 1.45544,3.34642 2.92798,6.8824 3.16324,10.55558 -8.42756,5.97169 -6.55094,7.17412 -13.40768,3.74595 -3.43972,-1.50486 -7.03422,-2.66461 -10.37156,-4.40035 -2.25038,-1.25903 -5.50576,-2.48658 -5.9531,-5.33704 1.81125,-5.34952 10.04215,-7.41815 15.21659,-9.52792 5.19192,-1.16539 10.265,-0.79501 14.4673,2.80085 3.70433,4.34213 4.63511,8.49816 2.45083,13.90968 -2.87195,5.85761 -4.9453,5.86282 -12.03231,10.19897 -1.91496,1.17167 -4.06364,1.6095 -6.28568,1.53087 -4.75396,-0.93994 -7.94883,-3.75316 -10.02787,-8.1476 -1.73818,-3.91956 -3.01691,-8.08979 -3.02401,-12.41637 0.98884,-5.50552 5.61903,-8.25781 11.40599,-9.62396 3.35539,-0.36366 6.77097,0.22171 10.11179,0.50861 3.87632,0.62205 7.73752,1.45946 11.14439,3.50987 3.11857,2.56036 2.54243,4.4304 0.68287,7.75683 -3.09547,5.31468 -7.12122,10.02316 -11.38366,14.43667 -2.97651,3.05803 -15.28189,14.62273 -14.9106,6.82219 1.89304,-8.42618 5.14396,-16.46319 7.8123,-24.66193 2.87643,-8.43355 5.411,-17.21719 10.19356,-24.80473 3.0628,-1.92845 6.00766,-4.05833 9.1884,-5.78535 3.4062,-1.84944 2.9058,7.59397 2.24175,8.47606 -1.26731,8.65872 -3.1554,17.19948 -6.18057,25.43197 -2.39473,6.18081 -4.70091,12.66628 -9.44072,17.48565 -4.67993,2.78064 -11.2803,9.54787 -16.02703,3.64058 -2.5582,-3.65574 -3.74993,-7.94705 -4.84261,-12.23316 -0.43272,-2.12287 -0.6911,-4.44151 -1.36543,-6.50131 -0.10269,-0.31367 -0.6223,-0.7101 -0.36722,-0.91955 2.38348,-1.95701 5.14132,-3.40737 7.71198,-5.11105 -0.0879,0.53898 -0.31002,1.0402 -0.55498,1.52706 -1.94801,3.6214 -7.09281,7.87239 -10.78726,5.69675 -1.82199,-2.84369 -1.5961,-6.56054 -3.18607,-9.54727 -2.46882,-5.7552 -5.58338,-11.1917 -9.38614,-16.17894 0,0 7.8984,-4.62823 7.8984,-4.62823 z"
       inkscape:connector-curvature="0" />
    <path
       style="fill:#000000"
       id="path3468"
       d="m 436.66187,177.59506 c -2.30903,2.76965 -4.76065,5.41061 -7.02196,8.2237 -2.3767,3.0809 -2.0536,2.27397 -9.01256,4.10495 -0.34477,0.0907 0.28166,-0.657 0.46162,-0.96475 0.47211,-0.8074 1.04949,-1.54846 1.57499,-2.32218 2.1686,-2.7067 4.46467,-5.30936 6.79368,-7.88034 2.73494,-2.97301 5.17827,-6.19745 7.47953,-9.51341 2.89242,-4.38129 5.74408,-8.78468 8.99154,-12.9138 3.87662,-4.88521 8.70279,-8.84161 13.38251,-12.91389 4.28221,-3.24089 8.14788,-6.98545 12.42917,-10.22318 2.66634,-2.02657 5.04854,-4.38905 7.39007,-6.77433 3.32786,-2.5184 9.60168,-9.40828 11.60621,-4.03369 0.56543,3.51173 0.39269,7.11156 0.39253,10.6587 -0.0164,4.86643 -0.0166,9.73291 -0.0306,14.59934 -0.0831,4.87567 -0.0649,9.71736 0.48937,14.56399 0.77899,6.15734 1.03159,12.36202 1.2065,18.56061 0.31353,6.35858 -0.63492,12.67261 -2.20435,18.81609 -1.10127,4.69147 -3.28831,8.99867 -5.02508,13.46195 -1.61521,3.00372 -2.58942,6.25673 -3.79272,9.42903 -1.15351,2.907 -1.384,6.03632 -2.15476,9.04681 -0.24044,1.37166 -1.28756,3.41165 -0.9838,4.57599 0.0167,-0.10685 0.0335,-0.2137 0.0502,-0.32055 0,0 -7.45434,5.46398 -7.45434,5.46398 l 0,0 c -0.15439,-0.0996 -0.30878,-0.19928 -0.46317,-0.29892 -1.1851,-1.56703 0.23254,-3.79345 0.58524,-5.47763 0.84677,-3.02836 1.03786,-6.1708 2.11301,-9.13699 1.25436,-3.16232 2.08999,-6.48107 3.82672,-9.43973 1.68023,-4.47647 3.97435,-8.72638 5.11815,-13.39889 1.65662,-6.04683 2.61155,-12.30621 2.33383,-18.59088 -0.16648,-6.16956 -0.40114,-12.346 -1.20299,-18.47197 -0.58038,-4.87813 -0.68216,-9.74074 -0.55003,-14.65308 7.6e-4,-4.865 0.0297,-9.72997 0.027,-14.59499 -0.007,-3.44601 0.0878,-6.92202 -0.34519,-10.34626 -0.0328,-0.11525 -0.0613,-0.65035 -0.345,-0.69657 -0.1269,-0.0207 -0.49275,0.11102 -0.38326,0.0436 13.20367,-8.12794 8.49059,-5.07196 5.66468,-3.28089 -2.36802,2.41181 -4.7496,4.82563 -7.39671,6.93579 -4.38064,3.12768 -8.15978,6.99022 -12.50363,10.1724 -4.66451,4.05972 -9.52775,7.94393 -13.44914,12.76524 -3.29999,4.05136 -6.10267,8.45783 -8.96376,12.82433 -2.24081,3.36981 -4.70833,6.60204 -7.41165,9.61392 -2.26748,2.59404 -4.58095,5.1354 -6.82753,7.75079 -0.25171,0.39399 -1.70947,2.82974 -2.09546,3.05537 -12.0035,7.01683 -10.26904,6.69422 -7.76606,3.40879 2.27072,-2.81336 4.69414,-5.48432 7.03798,-8.2272 0,0 8.42918,-3.60127 8.42918,-3.60127 z"
       inkscape:connector-curvature="0" />
    <path
       style="fill:#000000"
       id="path3470"
       d="m 245.17993,196.19852 c -3.44624,-5.41039 -3.10015,-11.71375 -2.40363,-17.82121 1.67615,-9.5871 4.98925,-18.78262 8.34443,-27.88551 3.03722,-7.82508 6.30369,-15.55488 9.71998,-23.22039 1.66036,-4.1646 3.65471,-8.20102 4.78619,-12.55299 0.61328,-2.24919 0.39642,-4.60097 1.14076,-6.81001 0.41951,-1.56128 1.16821,-2.71186 2.41077,-3.71193 4.0648,-3.54197 7.90377,-6.84157 12.25766,-4.15062 2.49618,1.87957 3.75638,4.77754 4.92844,7.57446 2.05245,5.12621 3.22953,10.52492 4.47692,15.88725 1.31147,6.48745 2.45942,13.00422 3.8148,19.48268 1.06918,5.38912 2.36155,10.73314 3.70503,16.05993 1.08334,4.59713 2.35524,9.14326 3.21021,13.7918 0.37364,2.27415 0.9606,4.66469 2.14257,6.66791 0.82762,0.90607 1.5413,1.72228 1.97575,2.88347 0.0961,0.27065 0.16699,0.54859 0.23252,0.82776 0,0 -8.15771,4.35401 -8.15771,4.35401 l 0,0 c -0.0424,-0.23974 -0.0716,-0.48224 -0.15241,-0.71401 -0.36719,-1.11381 -1.16192,-1.82372 -1.86176,-2.74709 -1.2227,-2.10265 -1.88889,-4.5931 -2.24365,-6.98251 -0.79717,-4.64552 -2.05157,-9.17643 -3.13862,-13.75763 -1.33741,-5.34396 -2.64978,-10.69951 -3.69199,-16.10975 -1.33262,-6.47603 -2.49494,-12.98191 -3.80736,-19.46205 -1.23477,-5.30843 -2.41185,-10.64836 -4.46432,-15.71486 -1.11711,-2.59851 -2.25145,-5.3838 -4.6896,-7.02705 -0.64335,-0.3426 -1.17211,-0.60911 -1.92123,-0.54961 -0.22541,0.0179 -0.85951,0.2313 -0.66962,0.10854 9.60969,-6.212589 9.17631,-5.908951 6.60144,-3.8546 -1.20711,0.96767 -2.31014,1.61272 -2.60664,3.27754 -0.98415,2.13162 -0.65252,4.46479 -1.24077,6.72155 -1.04981,4.44842 -3.13189,8.51827 -4.81733,12.7467 -3.45228,7.66529 -6.79109,15.37894 -9.84759,23.21346 -3.36009,9.02997 -6.64266,18.15744 -8.37649,27.66384 -0.69644,5.83249 -1.1719,11.96208 2.21128,17.10834 0,0 -7.86803,4.70258 -7.86803,4.70258 z"
       inkscape:connector-curvature="0" />
  </g>
</svg>
