<?xml version="1.0" encoding="UTF-8" standalone="no"?>
<!-- Created with Inkscape (http://www.inkscape.org/) -->

<svg
   xmlns:dc="http://purl.org/dc/elements/1.1/"
   xmlns:cc="http://creativecommons.org/ns#"
   xmlns:rdf="http://www.w3.org/1999/02/22-rdf-syntax-ns#"
   xmlns:svg="http://www.w3.org/2000/svg"
   xmlns="http://www.w3.org/2000/svg"
   xmlns:sodipodi="http://sodipodi.sourceforge.net/DTD/sodipodi-0.dtd"
   xmlns:inkscape="http://www.inkscape.org/namespaces/inkscape"
   width="210mm"
   height="297mm"
   viewBox="0 0 744.09448819 1052.3622047"
   id="svg3495"
   version="1.1"
   inkscape:version="0.91 r13725"
   sodipodi:docname="scaredycat.svg"
   inkscape:export-filename="/home/pdurbin/github/pdurbin/cats-in-action/images/path5293.png"
   inkscape:export-xdpi="90"
   inkscape:export-ydpi="90">
  <defs
     id="defs3497" />
  <sodipodi:namedview
     id="base"
     pagecolor="#ffffff"
     bordercolor="#666666"
     borderopacity="1.0"
     inkscape:pageopacity="0.0"
     inkscape:pageshadow="2"
     inkscape:zoom="0.58"
     inkscape:cx="-93.232419"
     inkscape:cy="520"
     inkscape:document-units="px"
     inkscape:current-layer="layer1"
     showgrid="false"
     showguides="true"
     inkscape:guide-bbox="true"
     inkscape:window-width="1366"
     inkscape:window-height="744"
     inkscape:window-x="0"
     inkscape:window-y="24"
     inkscape:window-maximized="1">
    <sodipodi:guide
       position="1381.0345,465.51725"
       orientation="1,0"
       id="guide4315" />
  </sodipodi:namedview>
  <metadata
     id="metadata3500">
    <rdf:RDF>
      <cc:Work
         rdf:about="">
        <dc:format>image/svg+xml</dc:format>
        <dc:type
           rdf:resource="http://purl.org/dc/dcmitype/StillImage" />
        <dc:title />
      </cc:Work>
    </rdf:RDF>
  </metadata>
  <g
     inkscape:label="Layer 1"
     inkscape:groupmode="layer"
     id="layer1">
    <path
       style="fill:#2b0000"
       id="path5152"
       d="m 320.34036,196.54452 c -3.83469,5.08928 -7.28733,10.45471 -10.5672,15.91422 -3.96402,6.56926 -8.61683,12.67902 -13.69494,18.4183 -4.2975,5.10017 -9.21346,9.61254 -13.70399,14.53567 -4.59686,5.05065 -8.75816,10.33006 -12.27136,16.18774 -4.71056,8.21452 -7.6525,17.19229 -9.91101,26.33928 -2.49709,10.54861 -3.97094,21.31898 -5.17381,32.08311 -1.13461,10.22337 -0.51205,20.51969 0.40845,30.72937 0.74239,7.55362 2.7088,14.84334 5.50181,21.87113 1.89089,4.2069 4.27775,8.17292 7.05363,11.85115 2.58408,3.92125 5.1317,7.83812 8.06162,11.51554 3.9065,4.07642 8.0061,7.95457 12.16007,11.77795 4.25905,3.57693 8.51875,7.14574 12.96902,10.48191 3.43277,2.77693 7.04182,5.31622 10.54748,7.99901 2.77766,2.52408 5.83599,4.64293 8.98549,6.66479 3.89187,1.93567 7.81084,3.8002 11.96394,5.0991 4.65708,1.46035 9.37879,2.77693 14.16081,3.76342 4.80833,1.39829 9.73722,2.18736 14.71572,2.61977 4.61565,0.74142 9.2212,1.68912 13.91114,1.53029 5.28719,-0.30149 10.53626,-0.90473 15.70472,-2.06534 6.17273,-1.38724 12.4119,-2.4319 18.61721,-3.65254 6.5616,-1.14671 13.03291,-2.76765 19.45603,-4.51957 7.10999,-2.24643 14.07778,-5.01852 20.75828,-8.32897 1.22636,-0.64905 2.29656,-1.82929 3.67907,-1.94715 1.32643,-0.11307 -3.81305,3.22435 -3.49559,1.93151 0.34673,-1.41209 2.42053,-1.61199 3.61922,-2.43501 3.65427,-2.50902 7.15246,-5.16865 10.61909,-7.92854 6.66242,-5.50868 13.09611,-11.28304 19.51594,-17.07093 5.29204,-4.67358 10.59849,-9.35683 15.69204,-14.24825 4.49469,-4.14584 8.17775,-8.90417 11.24084,-14.1722 3.54369,-6.60852 5.94801,-13.73957 8.07987,-20.90498 2.70807,-9.28077 4.23214,-18.84313 6.22782,-28.28887 2.06447,-9.67701 3.70698,-19.42832 5.30857,-29.18993 1.17653,-7.28837 1.60446,-14.65955 2.39074,-21.99342 0.84754,-8.8323 1.09847,-17.70033 1.75543,-26.54768 0.65594,-9.69896 1.7601,-19.36359 2.94703,-29.01025 1.09622,-9.06463 1.43631,-18.18986 2.20007,-27.28427 0.82839,-9.52603 1.09772,-19.08564 1.26241,-28.64207 0.7199,-8.72025 1.00698,-17.40885 0.7198,-26.15167 -0.25575,-6.65863 -0.35406,-13.30876 -1.08422,-19.93474 -0.43524,-5.07906 -1.09849,-10.10081 -1.9866,-15.117893 -1.05435,-3.272837 -1.51738,-6.736909 -2.6168,-9.987918 -0.15211,-0.337076 -0.55229,-1.288093 -0.80523,-1.635778 -0.11143,-0.153175 -0.73487,0.06091 -0.56758,-0.02793 7.30266,-3.877938 9.15587,-5.371214 6.37851,-3.224056 -3.03497,4.344467 -5.27717,9.276676 -7.72179,13.984428 -4.32302,9.512397 -9.91662,18.315957 -15.33356,27.218067 -5.90205,9.31982 -11.53082,18.79177 -16.89962,28.4288 -4.90037,8.28714 -8.38397,17.21106 -11.70647,26.2068 -2.24991,6.53084 -5.44682,12.66092 -8.49201,18.84165 -1.67759,3.38992 -3.0161,6.92225 -4.57562,10.36311 -1.00846,2.57875 -2.09998,5.12335 -3.42628,7.55418 -0.86013,1.69364 -1.9168,3.2844 -3.09761,4.77015 -1.01493,0.92955 -1.58928,2.16823 -2.41258,3.24152 -0.88252,1.02523 -0.96396,2.43037 -1.77249,3.48452 -3.63996,4.17641 -6.95123,4.82161 -11.37719,4.84829 -3.08363,0.12647 -6.08829,-0.0332 -9.12082,-0.57826 -4.37454,-0.77022 -8.81696,-0.95821 -13.24727,-1.09997 -4.83015,-0.11848 -9.66221,-0.11487 -14.49347,-0.1111 -4.88742,-0.42965 -9.73522,-1.06245 -14.5561,-1.95744 -3.78833,-0.70907 -7.61485,-1.1571 -11.46058,-1.37857 -1.68317,-0.1768 -3.4638,0.37051 -4.81222,-0.8044 -0.82771,-0.71354 -1.92888,-0.65192 -2.76026,-1.27979 -1.72286,-1.05824 -3.05292,-2.67579 -4.18151,-4.33542 -2.35605,-3.27859 -3.78102,-7.05092 -5.31196,-10.75252 -2.64633,-7.94164 -4.39401,-16.16859 -6.05721,-24.36426 -2.15289,-9.64562 -3.74078,-19.40021 -5.49529,-29.12133 -0.98539,-6.61949 -2.44957,-13.15169 -3.56981,-19.74665 -0.40325,-3.51143 -0.79487,-6.97421 -1.66481,-10.40322 -0.2869,-2.0184 -1.22866,-3.58642 -2.35462,-5.22309 -1.31467,-1.41076 -2.70471,-2.7042 -4.17933,-3.94679 -1.27801,-1.23481 -2.90517,-1.72384 -4.60125,-2.05242 -1.48444,-0.53618 -1.91619,-1.65279 -3.40361,-0.9708 17.06489,-9.49132 -0.21978,0.0851 -1.42274,0.92708 -1.99397,1.39559 4.19087,-2.50531 6.42962,-3.46006 0.45788,-0.19527 -0.6677,0.73968 -0.97286,1.13295 -1.2586,1.622 -1.16236,1.64304 -2.1865,3.54177 -3.24478,6.53601 -5.61516,13.40609 -7.68783,20.38522 -2.70714,8.78264 -4.82135,17.73522 -6.79438,26.70722 -1.30464,6.42671 -2.77465,12.80483 -3.59985,19.31576 -0.47224,4.00684 -0.5514,8.04241 -0.58086,12.07206 -0.0452,2.60504 0.2688,5.20953 -0.39726,7.75055 -0.38879,1.72898 -1.28341,3.05368 -2.54938,4.25127 -3.39747,2.89737 -7.36312,5.35283 -11.71649,6.43059 -1.22555,0.25567 -2.48764,0.80268 -3.57545,1.52409 -2.69085,1.37857 -7.46471,3.78427 4.74381,-2.75847 1.7363,-0.93051 -1.61366,1.1872 -2.14194,1.63789 -0.61743,0.70254 -0.34006,0.35462 -0.84119,1.03644 0,0 -7.86211,3.43543 -7.86211,3.43543 l 0,0 c 0.47666,-0.76965 0.21451,-0.37223 0.79397,-1.18726 0.61018,-0.73263 1.28438,-1.24674 2.10355,-1.74633 3.30057,-2.01296 6.46102,-4.04513 9.86208,-5.79511 1.21224,-0.5675 2.39493,-1.15837 3.7242,-1.37673 0.45206,-0.13723 0.72723,-0.21248 1.18271,-0.39094 0.2609,-0.10223 1.01235,-0.47578 0.77342,-0.3294 -11.72574,7.18378 -7.40494,4.50168 -4.95656,2.7986 1.12969,-1.20504 2.39917,-2.09141 2.73219,-3.86102 0.77546,-2.47558 0.53055,-4.98599 0.54481,-7.56444 0.0288,-4.06815 0.10676,-8.14242 0.58566,-12.18738 0.83368,-6.55512 2.31229,-12.97153 3.66798,-19.43329 1.97809,-8.98886 4.09105,-17.96053 6.78309,-26.76548 2.02887,-6.99424 4.32304,-13.88487 7.48434,-20.464 3.73795,-7.7236 2.57629,-2.62862 11.11404,-10.0695 0.44255,-0.3857 -20.50145,12.00182 1.58688,-0.76379 1.37856,-0.0864 2.32439,0.94875 3.62186,1.28896 1.78228,0.44128 3.45885,1.11267 4.80994,2.40593 1.53858,1.2759 2.95611,2.66309 4.29682,4.14475 1.19316,1.71357 2.20453,3.38055 2.48967,5.50043 0.85441,3.46833 1.30299,6.94398 1.62688,10.50216 1.05686,6.615 2.50532,13.16056 3.45501,19.79447 1.72796,9.7239 3.26558,19.48539 5.44608,29.12438 1.67673,8.12558 3.44864,16.28072 6.11944,24.14456 1.53867,3.63182 2.96009,7.34422 5.30048,10.55735 1.08993,1.56472 2.37172,3.04582 4.04257,4.009 0.95456,0.41865 1.99482,0.63116 2.80871,1.34651 1.25929,0.7761 3.09621,0.0358 4.47894,0.42123 3.84696,0.28122 7.67072,0.78215 11.46212,1.49897 4.78784,0.87336 9.6152,1.49405 14.47271,1.82806 4.83537,0.007 9.67192,-0.004 14.5057,0.13752 4.46736,0.16152 8.94294,0.38113 13.35285,1.16618 3.00885,0.49047 6.01627,0.52806 9.06136,0.42319 0.85254,-0.0267 1.73307,-0.009 2.56869,-0.21336 0.16352,-0.0399 0.62322,-0.24607 0.47944,-0.15855 -2.29973,1.39983 -9.43082,5.53361 -6.51449,3.84259 1.16994,-0.84307 1.06086,-2.18551 1.84573,-3.34777 0.74027,-1.14877 1.44473,-2.29616 2.3873,-3.31198 1.24715,-1.39618 2.32007,-2.96826 3.19346,-4.62193 1.30517,-2.43086 2.56188,-4.88654 3.46915,-7.50729 1.56846,-3.46504 2.9705,-6.99101 4.62762,-10.42047 3.09464,-6.16682 6.34442,-12.28543 8.63781,-18.80984 3.34907,-9.02983 6.77161,-18.02597 11.70579,-26.34594 5.3558,-9.65781 10.99182,-19.13891 16.90441,-28.46556 5.3773,-8.87894 11.03605,-17.60436 15.26119,-27.12319 2.43259,-4.733492 4.75849,-9.556444 7.42769,-14.147345 3.14389,-3.898632 8.70155,-7.857424 10.38084,-2.506874 1.13012,3.289917 1.51833,6.823849 2.63034,10.13134 0.86734,5.043782 1.55829,10.084259 1.9631,15.189969 0.74063,6.65597 0.83461,13.33197 1.05674,20.02278 0.27728,8.76384 0.0404,17.47589 -0.75164,26.21347 -0.1502,9.5708 -0.41894,19.14356 -1.22492,28.68546 -0.75752,9.10527 -1.10735,18.23991 -2.19039,27.31578 -1.1877,9.6373 -2.33,19.28915 -2.97718,28.97985 -0.64682,8.84255 -0.88545,17.70216 -1.6667,26.53418 -0.78485,7.35797 -1.22192,14.75208 -2.4209,22.06155 -1.62613,9.77641 -3.28384,19.54335 -5.33163,29.24256 -2.00326,9.448 -3.49454,19.01739 -6.14173,28.31797 -2.07777,7.21018 -4.48963,14.3631 -7.92819,21.05244 -3.01846,5.34834 -6.62757,10.21307 -11.16295,14.39505 -5.05076,4.95939 -10.44023,9.59292 -15.72651,14.29595 -6.43134,5.79852 -12.87952,11.57714 -19.5265,17.12759 -8.90763,7.18234 -18.33179,13.69568 -28.67429,18.69067 -6.74626,3.24844 -13.72551,6.07488 -20.89907,8.23621 -6.44013,1.71969 -12.91725,3.32998 -19.48896,4.46881 -6.21842,1.19179 -12.45078,2.30891 -18.63258,3.68593 -5.21992,1.07957 -10.50532,1.72333 -15.83299,1.95443 -4.70689,-0.003 -9.31682,-0.91217 -13.95983,-1.60796 -4.99573,-0.48376 -9.92553,-1.35478 -14.766,-2.70477 -4.79858,-1.0352 -9.54532,-2.3416 -14.22387,-3.8255 -4.19016,-1.3794 -8.18941,-3.24407 -12.10573,-5.26934 -3.17047,-2.03102 -6.20821,-4.21813 -9.02364,-6.72739 -3.48186,-2.70136 -7.09355,-5.22793 -10.51366,-8.00937 -4.45271,-3.36952 -8.70837,-6.98161 -12.98532,-10.57048 -4.18032,-3.85893 -8.33209,-7.75076 -12.25538,-11.8722 -2.92875,-3.68619 -5.49482,-7.60213 -8.08775,-11.52596 -2.81672,-3.74448 -5.23101,-7.78302 -7.12873,-12.07237 -2.77286,-7.12926 -4.74868,-14.5023 -5.49758,-22.14393 -0.92536,-10.26156 -1.567,-20.6124 -0.45911,-30.88994 1.19044,-10.79338 2.67327,-21.5897 5.12441,-32.17602 2.18699,-9.20087 5.09863,-18.22329 9.72072,-26.52395 3.4643,-5.91487 7.53643,-11.26017 12.15797,-16.3241 4.48278,-4.94965 9.41172,-9.45899 13.74437,-14.54448 5.11135,-5.67564 9.78191,-11.73855 13.75791,-18.27165 3.2405,-5.46053 6.69102,-10.78864 10.3794,-15.95832 0,0 7.84785,-3.35291 7.84785,-3.35291 z"
       inkscape:connector-curvature="0" />
    <path
       style="fill:#2b0000"
       id="path5158"
       d="m 275.68087,398.3933 c -1.86914,3.29975 -3.68915,6.61035 -5.4318,9.98122 -1.17287,2.64889 -2.49828,5.2384 -3.46525,7.97398 -1.33128,2.98905 -2.24832,6.13423 -3.28368,9.23206 -1.94299,5.06825 -3.92319,10.11884 -5.98184,15.14164 -1.79883,4.39583 -2.92925,9.02938 -4.22318,13.59302 -0.88714,2.8513 -0.89815,5.84992 -1.3775,8.76756 -0.76035,3.12176 -1.15671,6.29952 -1.38531,9.49867 -0.57183,2.97101 -1.25243,5.90064 -1.5903,8.91244 0.007,2.84907 -0.70124,5.57666 -1.3188,8.33269 -0.71809,2.53576 -1.83995,4.92521 -2.821,7.36381 -1.07019,2.65183 -2.70241,4.9965 -4.15615,7.43999 -1.71832,2.52223 -3.37765,5.07971 -5.09056,7.60497 -1.00247,1.85329 -2.258,3.56179 -3.27821,5.40302 -0.71342,1.20287 -0.80634,2.56627 -0.87454,3.92734 -0.31528,2.46253 -1.35353,4.71409 -2.16209,7.03301 -1.11531,2.94744 -2.32323,5.87277 -3.81416,8.65144 -1.42112,2.27103 -2.91171,4.45949 -4.12732,6.85763 -1.89447,3.41844 -3.78376,6.84488 -5.751,10.22416 -1.74297,2.54264 -3.09438,5.31942 -4.77355,7.89954 -0.86077,1.07991 -1.47005,2.14975 -1.68934,3.51494 -0.35346,1.79925 0.10984,3.43175 0.59942,5.14524 0.47721,2.62476 1.16737,5.19473 2.12143,7.68763 1.05881,2.47978 1.62546,5.10199 2.55685,7.62307 0.79915,1.86827 1.21323,3.84652 1.41253,5.85896 0.21922,1.80352 -0.0421,3.63488 0.28693,5.41984 0.53242,1.26189 0.56735,2.83436 1.67932,3.73464 1.00955,1.078 1.28357,2.43849 1.47106,3.85297 0.15096,1.68599 0.13307,3.38042 0.13692,5.07134 0.39304,1.40942 1.0622,2.68127 1.35959,4.12003 0.29209,1.53159 0.32677,3.09041 0.35491,4.64395 0.0115,0.69954 0.0173,1.39914 0.0227,2.09874 -0.0147,0.45916 -0.012,0.91866 -0.0175,1.37799 0,0 -7.65417,3.89868 -7.65417,3.89868 l 0,0 c -0.004,-0.45959 -3.2e-4,-0.91916 -0.009,-1.37868 0.0236,-0.69816 0.0287,-1.39679 0.0263,-2.09533 -0.0131,-1.5069 -0.0343,-3.01954 -0.27906,-4.51047 -0.27242,-1.49896 -0.99116,-2.81518 -1.43705,-4.26654 0.007,-1.65886 0.0171,-3.32027 -0.0953,-4.97623 -0.13093,-1.21433 -0.27138,-2.41112 -1.17804,-3.31592 -1.16141,-1.1493 -1.37452,-2.71667 -1.92161,-4.21388 -0.42033,-1.80824 -0.17634,-3.66098 -0.33756,-5.50573 -0.16146,-1.94602 -0.51834,-3.86268 -1.28659,-5.6709 -0.93371,-2.5185 -1.497,-5.13226 -2.53973,-7.61616 -0.98984,-2.50167 -1.70321,-5.09876 -2.18046,-7.74477 -0.52154,-1.81147 -1.10105,-3.53244 -0.78665,-5.44678 0.16563,-1.49292 0.49579,-2.74817 1.55128,-3.88161 1.75445,-2.54515 3.08186,-5.34226 4.85228,-7.8794 1.98413,-3.34506 3.80201,-6.78172 5.74363,-10.14848 1.15073,-2.45414 2.57772,-4.68595 4.09682,-6.90772 1.63399,-2.65088 2.69345,-5.63044 3.88676,-8.49743 0.72831,-2.27908 1.77817,-4.42959 2.23331,-6.79547 0.0322,-1.44416 0.0469,-2.95884 0.70893,-4.27593 0.96784,-1.91624 2.32803,-3.57441 3.28383,-5.5002 1.66555,-2.54469 3.35724,-5.07177 5.11521,-7.55597 1.37736,-2.46014 3.08125,-4.71944 4.19211,-7.32344 0.96535,-2.41241 2.04037,-4.77235 2.87858,-7.23393 0.5842,-2.74066 1.44778,-5.41962 1.37915,-8.25792 0.29908,-3.0095 0.86702,-5.95588 1.61146,-8.88696 0.20524,-3.22267 0.54106,-6.43757 1.32637,-9.57849 0.59963,-2.92001 0.45516,-5.976 1.36887,-8.85221 1.30276,-4.60081 2.50461,-9.25446 4.24123,-13.70974 2.07944,-4.98906 3.99686,-10.03751 5.96582,-15.06914 1.02879,-3.0855 1.84428,-6.2617 3.22444,-9.21484 0.94774,-2.792 2.2838,-5.39568 3.43546,-8.10283 1.79313,-3.33226 3.49325,-6.70543 5.42312,-9.95701 0,0 7.77157,-3.5161 7.77157,-3.5161 z"
       inkscape:connector-curvature="0" />
    <path
       style="fill:#2b0000"
       id="path5160"
       d="m 208.3756,615.62941 c 4.77297,0.70641 9.58594,1.07058 14.40213,1.30803 3.80371,-0.12011 7.51093,0.65485 11.24122,1.27084 2.71636,0.43633 5.46903,0.54273 8.21487,0.6006 2.60431,0.0314 5.20891,0.0241 7.81336,0.0231 3.80848,-0.48824 7.57527,-1.07752 11.30502,-1.98195 2.95461,-0.75299 5.95917,-1.20156 8.99808,-1.40154 1.87444,-0.127 3.75373,-0.10841 5.63117,-0.10121 2.01935,0.009 4.03873,0.0151 6.0581,0.0139 1.26562,0.004 2.53126,5.4e-4 3.79685,-0.01 0.6741,0.19958 1.34766,1.00864 1.87624,1.52689 0.51157,0.90989 0.55067,1.93575 0.59615,2.95202 -0.35177,1.22602 -1.04673,2.28727 -1.37287,3.55094 -0.27907,1.28554 -0.3251,2.59998 -0.35949,3.90966 -0.0236,1.23404 10e-4,2.46811 2e-5,3.70216 0.003,1.52345 -0.79741,2.89707 -1.20604,4.34325 -0.2328,1.77978 -0.6322,3.45845 -1.23851,5.14712 -0.69606,1.89152 -0.67367,3.92711 -1.11167,5.868 -0.59294,1.5775 -1.01172,3.21347 -1.56898,4.8 -0.69228,1.67517 -1.48525,3.29024 -2.2959,4.9096 -1.11049,1.90731 -1.92126,3.96036 -2.97325,5.89629 -0.75343,1.67366 -1.54184,3.33054 -2.29344,5.00605 -0.6584,1.83159 -1.65712,3.49558 -2.2632,5.34877 -0.42598,1.85779 -1.33209,3.53299 -1.79328,5.38223 -0.92935,2.44217 -1.45317,4.98231 -2.09221,7.50513 -0.63284,2.09015 -1.28541,4.17965 -1.64459,6.33708 -0.0697,1.31682 -0.78273,2.41061 -1.39547,3.52909 -0.22248,1.06788 -0.87522,1.8522 -1.46226,2.73524 -0.98283,1.03779 -2.25239,1.70163 -3.29455,2.71163 -1.18609,0.79234 -1.93346,1.95558 -2.84705,3.00798 -2.75695,4.04607 -1.86312,2.31139 -9.72034,5.86956 -2.21959,-1.24326 -4.21605,-2.81469 -6.42766,-4.07903 -3.00528,-1.85074 -6.29287,-3.26083 -9.64179,-4.36394 -3.13211,-1.02865 -6.33586,-0.89576 -9.44328,0.10566 -3.83395,2.35211 1.60633,-1.01246 4.84033,-2.57595 0.42388,-0.20492 -0.73978,0.58525 -1.07698,0.91381 -1.26642,1.23398 -2.11545,2.71372 -3.02939,4.20914 -2.63144,4.30452 -4.38632,9.05233 -6.00358,13.80859 -1.92778,5.08262 -3.12542,10.342 -3.77777,15.72522 -0.61444,4.41382 -0.33093,8.74527 1.20854,12.92505 1.87043,4.36818 5.24495,7.3892 8.96566,10.15674 3.95554,2.47002 8.16609,4.25131 12.74045,5.12369 4.19481,0.81438 8.2306,-0.31979 12.16237,-1.69591 -1.17874,0.87179 5.48979,-2.76397 4.11367,-2.08031 -1.75513,0.87195 -3.35382,2.0995 -5.21354,2.71774 -0.8732,0.29029 1.45484,-1.12735 2.17028,-1.70604 1.83915,-1.4876 2.53892,-2.12477 4.32184,-3.67639 4.0178,-4.17006 7.97425,-8.36591 12.20735,-12.32328 2.98032,-2.73824 5.94053,-5.49789 8.85285,-8.3084 1.2817,-1.5977 2.74663,-3.09768 3.76932,-4.88384 1.08195,-2.02823 1.972,-4.14213 3.15395,-6.11632 1.38641,-2.44555 2.61918,-4.97302 3.79888,-7.52488 0.92771,-2.28715 2.27043,-4.36827 3.27956,-6.61392 1.13907,-1.91476 1.90601,-4.0008 2.78457,-6.04013 0.74397,-2.20877 1.84049,-4.26657 2.51437,-6.49822 1.099,-2.50693 1.75264,-5.16016 2.66339,-7.73374 1.07434,-2.69848 1.91538,-5.4799 2.9103,-8.20569 0.83599,-1.6524 1.36468,-3.42918 2.07727,-5.12905 0.85652,-1.34664 1.32653,-2.81048 1.5852,-4.37161 0.25152,-1.88478 0.92983,-3.72673 1.60089,-5.50343 1.04243,-2.6097 2.08106,-5.21374 3.31664,-7.74037 1.53407,-2.40022 2.6515,-5.01155 3.89231,-7.56392 1.08436,-2.15986 1.46996,-4.54835 2.1119,-6.85622 0.68563,-2.75809 1.50727,-5.5271 2.90425,-8.01435 2.35171,-3.74433 7.02706,-5.18226 10.69772,-7.2364 1.94102,-0.68451 4.01216,-0.73182 6.04686,-0.78416 2.91194,0.21387 5.78588,0.94505 8.71503,1.27641 3.69568,0.0825 7.29274,0.65083 10.92357,1.2833 2.64509,0.51748 5.33227,0.73088 8.02083,0.841 1.93872,0.0506 3.74722,0.92675 5.62917,1.37569 1.83563,0.10307 3.45003,0.96649 5.17183,1.52778 0.93233,0.33553 1.91636,0.27238 2.41645,1.14976 0.34884,1.79226 0.20647,3.65487 0.1933,5.47289 -0.45857,3.84421 -1.34033,7.62198 -2.40323,11.34003 -1.53569,5.38871 -3.10126,10.77192 -4.783,16.11695 -1.51639,4.85052 -2.91705,9.74648 -4.65647,14.52351 -0.78428,2.16866 -1.54903,4.34545 -1.86631,6.63594 -0.0161,2.05493 -0.6678,4.00623 -1.13236,5.9881 -0.19259,2.18628 -0.90936,4.20933 -1.65124,6.25191 -0.41454,1.12623 -0.65111,2.27739 -0.73704,3.46977 -0.0226,1.4748 0.0594,2.885 -0.45137,4.28596 -0.47776,0.90526 -0.89025,1.80762 -1.13447,2.80333 -0.15824,0.75802 -0.15133,1.53707 -0.16583,2.30782 -0.003,0.54855 0.005,1.09706 0.0153,1.64547 -6.38254,4.72626 -7.11569,4.74942 -12.95144,4.69071 -3.02208,0.67299 -6.04987,1.18393 -9.05647,1.93137 -3.69401,0.77277 -7.25043,2.12623 -10.65762,3.73234 -1.98467,0.86124 -1.54274,0.6276 -3.47271,1.63434 -0.5114,0.26676 -2.02377,1.10744 -1.52432,0.81892 11.23561,-6.49054 5.35071,-3.06363 2.91079,-1.14673 -4.03573,3.26 -7.00292,7.53671 -9.77221,11.86579 -3.98949,6.29455 -6.55003,13.33732 -9.11763,20.29518 -1.79113,5.4084 -3.10408,11.06172 -3.00823,16.78396 0.44222,3.51786 1.9412,6.2131 4.92028,8.11497 3.36743,1.82661 6.51194,1.20174 10.01193,0.27428 0.7334,-0.24685 1.49171,-0.42938 2.20022,-0.74057 0.77311,-0.33956 2.96777,-1.61253 2.22847,-1.20456 -1.66306,0.91774 -3.212,2.09214 -4.99978,2.73388 -0.93563,0.33585 1.59381,-1.18863 2.38211,-1.79424 3.00338,-2.30733 2.21911,-1.7041 5.12484,-4.24696 6.84017,-6.60341 12.51538,-14.24962 18.08747,-21.91547 7.01116,-10.19814 14.0077,-20.38477 21.29185,-30.39218 6.27558,-8.72815 12.60432,-17.41169 18.4211,-26.4555 4.96427,-7.77194 9.43951,-15.81422 13.42369,-24.12738 3.56216,-7.81143 7.11921,-15.62412 10.80967,-23.376 2.30379,-4.60616 4.12707,-9.47394 6.51767,-14.03327 2.99651,-5.48967 1.47343,-3.31474 10.02959,-7.65168 1.68709,0.43022 3.22045,1.21645 4.84297,1.82529 1.81603,0.72072 3.76062,0.84671 5.68902,0.93935 2.43102,0.76514 4.93328,1.2124 7.46026,1.5032 3.29828,0.1354 6.50927,0.92298 9.77777,1.36282 3.50741,0.33082 6.89054,1.37254 10.36864,1.90871 2.338,0.007 4.42993,0.97199 6.64188,1.56861 2.01679,0.53252 4.12532,0.53347 6.1974,0.57957 1.93805,0.0297 3.87635,0.013 5.8145,0.01 2.1413,-0.14682 4.11519,0.0124 6.171,0.57506 1.90671,0.61155 3.88328,0.91493 5.87444,1.05914 1.6733,0.0993 3.35077,0.097 5.02639,0.0891 1.37851,-0.0254 2.4582,0.98487 3.10324,2.10634 0.26484,2.4982 -0.91232,4.91271 -1.55579,7.28352 -1.37565,4.30409 -2.644,8.63149 -3.88942,12.97376 -1.17123,4.51985 -2.48055,9.01149 -3.42357,13.58736 -1.09239,3.43583 -1.58135,7.01824 -2.47194,10.49813 -0.65553,2.77683 -1.58012,5.4613 -2.42708,8.1806 -1.24111,3.32945 -2.29134,6.72303 -3.48487,10.0694 -1.41447,4.47337 -2.74906,8.97278 -3.65732,13.57924 -0.37277,2.92441 -1.34134,5.71721 -2.11451,8.54939 -0.43545,1.58087 -0.49058,3.21857 -0.52989,4.84666 0.018,2.13837 0.0925,4.2298 -0.43952,6.31277 -0.56159,1.32379 -0.60928,2.87944 -1.49633,4.04002 -3.25984,3.25009 -8.35949,6.16223 -11.25881,2.31387 -1.3624,-1.51198 -2.37563,-3.32919 -3.80134,-4.78273 -1.2984,-1.79146 -3.08899,-2.97596 -4.81519,-4.28834 -2.44609,-1.56982 -5.13633,-2.64633 -7.96855,-3.26624 -4.17231,-0.73013 -8.4233,-0.75319 -12.64601,-0.8103 -4.67142,0.34426 -9.28445,1.01598 -13.73363,2.50095 1.74621,-1.81695 -8.29138,3.94561 -5.69921,2.48649 10.25247,-5.77105 4.81096,-2.67644 2.41172,-0.39278 -4.24133,4.05667 -6.82526,9.33833 -9.32672,14.55623 -4.20646,9.60102 -7.22871,19.62869 -9.81303,29.76676 -2.82796,11.12263 -3.82452,21.78073 -2.62225,33.17756 1.33029,9.23223 4.53173,16.35549 10.88176,23.127 4.81659,4.76689 11.01579,6.91363 17.38523,8.69435 5.8409,1.52445 11.7527,1.71485 17.68427,0.76633 5.98136,-0.79731 11.53431,-3.13966 16.76649,-6.04863 -1.52331,0.87221 -3.00191,1.82763 -4.56995,2.61661 -0.89288,0.44926 1.70403,-1.04587 2.5393,-1.59486 3.08062,-2.02476 5.9172,-4.32789 8.70275,-6.73423 3.94145,-3.11179 7.40512,-6.75894 10.89582,-10.35299 3.35472,-3.24294 6.42579,-6.72304 9.38927,-10.31995 3.54476,-4.36641 6.60455,-9.06855 9.29081,-14.00222 3.24301,-6.4656 5.9948,-13.16427 8.98945,-19.74748 3.07825,-6.94939 6.6521,-13.66102 9.92989,-20.5127 3.13886,-6.27055 5.41195,-12.88242 7.52507,-19.54999 2.3731,-6.77381 4.15815,-13.72936 6.33047,-20.56566 1.85988,-6.25185 3.97422,-12.42534 5.67672,-18.72371 1.55243,-4.44902 2.3046,-9.10311 3.55431,-13.6326 0.82561,-2.79393 1.19868,-5.67678 1.96168,-8.4845 0.6998,-3.2856 2.13364,-6.33485 3.24918,-9.48506 1.05398,-3.00643 2.3084,-5.91304 3.62762,-8.80778 0.81441,-1.60527 1.16608,-3.30055 1.31804,-5.07628 0.24052,-5.47373 -0.79789,-2.46844 8.23452,-7.04544 2.1772,0.46462 4.1767,1.37839 6.35974,1.8592 2.94247,0.22108 5.76151,0.89151 8.63208,1.52327 1.98194,0.49135 3.99752,0.74067 6.03249,0.84344 1.41539,-0.13733 2.49002,0.43034 3.5514,1.30543 1.06615,0.23215 1.93719,0.6024 2.91591,1.06639 1.14424,0.62528 2.39312,0.92989 3.6842,1.03829 1.48017,0.0963 2.9654,0.0754 4.44796,0.0762 1.64364,-0.007 3.28729,-0.006 4.93093,-0.0146 1.49835,0.59865 1.78299,1.73715 1.95149,3.21821 0.12668,2.8474 0.052,5.70132 0.0313,8.55073 0.18971,6.37967 -0.37897,12.72159 -0.85004,19.07534 -0.8765,9.70481 -2.36299,19.33426 -3.8403,28.9609 -1.25101,8.28871 -3.18052,16.45165 -4.56986,24.71411 -0.93309,4.55321 -1.99542,9.07627 -2.509,13.70042 -0.11585,4.75252 -0.88075,9.39004 -2.0659,13.98297 -1.95466,6.54508 -4.54426,12.87336 -7.00901,19.23628 -2.20066,5.49734 -4.36312,10.9999 -5.62217,16.79571 -1.08198,5.81041 -1.12694,11.74004 -1.20348,17.62959 -0.50053,6.77365 -1.09192,13.53538 -1.40427,20.3218 -0.28493,7.53138 -0.302,15.06968 -0.32237,22.60543 -9.8e-4,6.7955 -0.19717,13.58105 0.50547,20.34724 0.25446,3.83393 1.20373,7.49951 4.0073,10.22747 2.32189,1.63677 5.18012,1.88934 7.93386,2.04179 3.44595,0.27515 6.80218,-0.1186 10.1217,-1.04185 -1.5031,1.74547 8.06276,-3.64467 5.70026,-2.25002 -10.98945,6.4874 -4.09845,2.18587 -1.81567,0.39811 3.76455,-2.9202 7.71397,-5.58157 11.46894,-8.51432 3.8449,-2.89148 7.12569,-6.34882 10.24236,-9.98587 2.8829,-3.05114 5.09646,-6.54625 6.99784,-10.26061 1.68943,-3.17698 2.33311,-6.66142 2.67463,-10.20025 0.0172,-3.50037 0.38318,-6.92577 0.95494,-10.37346 0.19483,-2.36886 -0.19007,-4.73058 -0.52349,-7.06974 -0.13113,-1.49958 -0.74119,-2.9252 -1.85771,-3.938 -1.12231,-0.37828 -1.98713,-1.12765 -3.01235,-1.70917 -0.84179,-0.64237 -1.90021,-0.47918 -2.70499,-1.08733 -0.78076,-0.9916 -1.34289,-2.18984 -1.97628,-3.31014 -0.63863,-1.48991 -1.0505,-3.09981 -0.87404,-4.71871 0.54727,-1.52303 1.02861,-3.0421 1.28653,-4.64239 0.30451,-2.1835 0.0773,-4.39764 0.41796,-6.5712 0.58697,-1.89254 1.08514,-3.78285 1.33004,-5.75066 0.2406,-2.11322 0.33603,-4.17471 -0.21134,-6.23551 -0.50886,-1.45721 -0.95393,-2.93009 -1.16948,-4.46093 -0.20644,-1.24381 -0.83674,-2.5296 -1.4925,-3.61165 -0.88104,-1.41974 -1.54891,-2.88328 -1.86326,-4.52459 -0.23637,-1.79574 -0.23411,-3.60757 -0.24354,-5.41481 -0.004,-1.75384 0.011,-3.50762 0.0126,-5.26144 0.007,-1.97696 0.007,-3.95393 0.01,-5.9309 1.1e-4,-2.42873 0.005,-4.85745 0.0104,-7.28618 -0.004,-2.62071 -0.004,-5.24143 -0.005,-7.86214 -0.0746,-3.02415 -0.0327,-6.00105 0.46981,-8.98639 0.52138,-3.73132 2.07664,-7.18604 3.14446,-10.77186 1.16738,-3.68753 2.37535,-7.35265 3.65071,-11.00366 0.70819,-2.68303 1.38698,-5.37068 2.06843,-8.06235 0.66886,-3.28706 0.86326,-6.62475 1.45075,-9.92717 0.71464,-3.83498 1.02041,-7.72318 1.19481,-11.61465 0.0975,-2.70979 0.10977,-5.42155 0.0981,-8.13275 -0.006,-2.02221 -0.012,-4.04441 -0.0118,-6.06664 -0.18369,-1.97483 0.11467,-3.78419 0.71792,-5.65186 0.62405,-1.7328 0.82519,-3.55104 0.93382,-5.37633 0.0658,-1.36826 0.0778,-2.73867 0.0603,-4.10823 -0.13606,-1.81235 0.19323,-3.50371 0.67651,-5.24692 0,0 7.68348,-3.64657 7.68348,-3.64657 l 0,0 c -0.50191,1.66663 -0.87637,3.24211 -0.69873,4.9866 -0.008,1.3913 -0.0358,2.78245 -0.0759,4.17317 -0.0987,1.87995 -0.20662,3.77598 -0.83901,5.56864 -0.56386,1.81914 -1.11232,3.46507 -0.83871,5.41794 0.005,2.02275 0.009,4.04549 0.0106,6.06825 -0.0109,2.72989 -0.0102,5.4609 -0.12672,8.18889 -0.16494,3.92396 -0.45604,7.84548 -1.15093,11.71645 -0.57373,3.31701 -0.84014,6.64616 -1.39879,9.96471 -0.64432,2.72572 -1.41902,5.4072 -2.04262,8.13797 -1.25327,3.6552 -2.55161,7.28542 -3.69769,10.97803 -1.01051,3.57685 -2.58452,6.98598 -3.15936,10.67533 -0.52931,2.94118 -0.6311,5.85422 -0.51202,8.84324 -7.7e-4,2.62222 -8.3e-4,5.24444 -0.004,7.86665 0.005,2.42525 0.0106,4.85049 0.0104,7.27574 0.003,1.97577 0.002,3.95154 10e-4,5.92731 -0.006,1.75298 -0.008,3.50595 -0.0163,5.25892 -10e-4,1.76078 -4.7e-4,3.5262 0.18273,5.27951 0.24953,1.55074 0.87057,2.92087 1.70863,4.2493 0.70934,1.17579 1.42317,2.58588 1.67363,3.92032 0.1681,1.50128 0.59064,2.94334 1.08958,4.3662 0.61235,2.16423 0.61487,4.2879 0.36719,6.52639 -0.22402,1.98888 -0.5696,3.93954 -1.30553,5.81375 -0.52669,2.12244 -0.14389,4.35447 -0.42778,6.52028 -0.19133,1.61666 -0.53789,3.21886 -1.25264,4.69283 -0.47921,1.34086 0.1269,2.88108 0.58746,4.17047 0.55523,0.98836 1.07721,2.06936 1.75602,2.92383 0.92363,0.32919 1.89991,0.49017 2.70868,1.10693 1.01763,0.69375 2.10407,1.15271 3.10071,1.86068 1.17488,1.18505 1.97742,2.76781 2.13563,4.44093 0.31317,2.42866 0.71094,4.86868 0.58493,7.32501 -0.56927,3.43216 -1.04121,6.82393 -0.98188,10.31649 -0.30684,3.62353 -0.87818,7.21802 -2.54763,10.49952 -1.91472,3.75306 -3.98448,7.38589 -6.9375,10.45116 -3.12118,3.66816 -6.32795,7.22891 -10.19497,10.14627 -3.72615,2.96377 -7.65706,5.63642 -11.45644,8.50279 -5.45903,4.45865 -11.62506,8.36738 -18.48493,10.16714 -3.39928,0.80773 -6.82437,1.16248 -10.31793,0.84854 -2.92576,-0.23427 -5.9016,-0.66633 -8.26769,-2.55662 -2.84926,-2.94298 -3.98818,-6.71609 -4.21614,-10.77289 -0.68999,-6.80623 -0.50004,-13.62332 -0.48216,-20.45815 0.0154,-7.5419 0.0272,-15.08538 0.27976,-22.62397 0.29951,-6.77621 0.85708,-13.52984 1.40315,-20.28953 0.0585,-5.93283 0.0684,-11.90667 1.11024,-17.76734 1.19037,-5.85734 3.34574,-11.40052 5.58698,-16.93059 2.45825,-6.33648 5.06372,-12.62854 7.03508,-19.14045 1.18338,-4.54537 2.00021,-9.12795 2.05578,-13.83967 0.47996,-4.66301 1.55763,-9.21372 2.56798,-13.78609 1.39359,-8.28119 3.43587,-16.44106 4.67446,-24.75264 1.48752,-9.59561 2.96371,-19.19659 3.81914,-28.87426 0.43076,-6.3178 0.99931,-12.62326 0.75586,-18.96364 -0.003,-2.81111 0.0269,-5.62417 -0.0681,-8.43398 -0.0856,-1.0253 -0.0354,-2.02791 -1.2891,-2.14356 -1.64103,-0.003 -3.28202,0.007 -4.92304,0.007 -1.5074,3.4e-4 -3.02179,0.019 -4.52143,-0.15477 -1.34359,-0.21982 -2.63074,-0.61273 -3.83254,-1.26621 -1.00062,-0.47187 -2.1023,-0.61543 -3.0407,-1.21977 -0.98487,-0.74598 -2.00758,-0.9272 -3.2379,-0.8877 -2.0517,-0.15362 -4.07658,-0.47918 -6.07453,-0.97803 -2.86686,-0.64954 -5.72519,-1.15826 -8.64205,-1.52618 -2.17151,-0.53414 -4.22372,-1.40718 -6.41221,-1.87308 7.78471,-5.47897 6.54122,-6.61455 6.50048,-1.62439 -0.1428,1.85708 -0.35134,3.66978 -1.22623,5.35156 -1.25698,2.90902 -2.68914,5.73286 -3.68687,8.75519 -1.06031,3.15121 -2.5641,6.15468 -3.25115,9.42381 -0.77187,2.81756 -1.20493,5.68844 -1.98627,8.507 -1.33163,4.52031 -2.01639,9.20102 -3.6159,13.64857 -1.70314,6.32071 -3.84078,12.5083 -5.70597,18.78038 -2.19842,6.8266 -3.94541,13.79114 -6.32636,20.56073 -2.1139,6.69472 -4.32403,13.35815 -7.47652,19.65446 -3.2443,6.86973 -6.89705,13.5477 -9.95636,20.50976 -3.00095,6.58033 -5.75478,13.27447 -8.91932,19.77686 -2.64619,4.9735 -5.66202,9.7174 -9.17345,14.13106 -2.97257,3.60718 -5.97626,7.16273 -9.37317,10.38773 -3.49475,3.60516 -6.92663,7.31214 -10.88216,10.42385 -6.41141,5.63596 -13.38703,10.3347 -21.05988,14.17665 -5.32064,2.827 -10.93064,5.07339 -16.95561,5.82031 -6.01242,0.81202 -11.99606,0.53337 -17.87954,-1.06632 -6.47338,-1.88654 -12.74609,-4.17711 -17.58753,-9.1063 -6.40792,-6.93988 -9.71572,-14.23549 -11.07184,-23.6345 -1.24256,-11.59408 -0.30109,-22.12769 2.53119,-33.45829 2.54315,-10.15915 5.53507,-20.19566 9.62402,-29.85594 2.44462,-5.2588 4.94399,-10.62648 9.10054,-14.78285 4.90085,-4.96086 11.25171,-8.33749 17.83284,-10.52434 4.51893,-1.35287 9.17762,-2.05883 13.89066,-2.27905 4.26958,0.0643 8.57296,0.11318 12.77759,0.94082 2.90708,0.72015 5.70495,1.85148 8.19738,3.53532 1.7899,1.30899 3.53809,2.62488 4.90304,4.4059 1.39702,1.51791 2.47831,3.30542 3.8519,4.84657 0.5252,0.63547 0.90559,0.82297 1.68199,1.09705 0.20167,0.0712 0.77962,0.0834 0.60658,0.20909 -3.88907,2.82457 -9.2133,5.47462 -6.33046,4.03159 1.26054,-0.82099 1.11618,-2.32779 1.71345,-3.63425 0.63809,-2.01477 0.59481,-4.0075 0.53518,-6.10995 0.0118,-1.68975 0.038,-3.38791 0.42951,-5.04183 0.80404,-2.82549 1.81742,-5.60873 2.22642,-8.52708 0.88445,-4.64701 2.22253,-9.16866 3.58834,-13.69286 1.21888,-3.3164 2.17099,-6.71904 3.46597,-10.00813 0.79033,-2.73293 1.83018,-5.37688 2.43947,-8.1653 1.01939,-3.43443 1.32287,-7.06594 2.53219,-10.46209 0.92108,-4.60603 2.26739,-9.11115 3.41634,-13.66134 1.26989,-4.31559 2.42131,-8.66082 3.85917,-12.92829 0.53748,-2.24892 1.39756,-4.38371 1.79188,-6.66565 -0.55374,-0.97723 -1.47417,-1.42381 -2.60608,-1.35503 -1.68579,-0.0118 -3.37442,-0.0124 -5.05526,-0.15855 -2.01748,-0.20343 -4.00594,-0.58314 -5.94617,-1.18235 -2.0018,-0.48557 -4.00312,-0.44208 -6.05591,-0.38911 -1.93925,0.007 -3.87898,0.0108 -5.81774,-0.039 -2.12439,-0.0686 -4.27964,-0.12281 -6.32862,-0.7493 -2.16317,-0.65015 -4.27174,-1.40621 -6.55798,-1.50593 -3.45341,-0.59356 -6.83304,-1.59902 -10.33305,-1.90839 -3.26879,-0.46301 -6.50306,-1.1647 -9.80664,-1.32874 -2.51312,-0.33762 -4.97246,-0.89506 -7.44328,-1.44636 -1.99322,-0.13724 -3.98062,-0.37106 -5.83868,-1.16103 -1.57631,-0.63471 -3.12887,-1.32411 -4.79486,-1.7008 9.38606,-5.90243 7.36956,-5.60934 4.80572,-0.71415 -2.67265,4.4153 -4.24895,9.50465 -6.69365,14.04959 -3.70893,7.75439 -7.29593,15.56475 -10.84739,23.39241 -3.95335,8.35518 -8.41759,16.43084 -13.38957,24.22728 -5.82589,9.08384 -12.17679,17.79601 -18.49532,26.54047 -7.27932,9.99474 -14.30025,20.1438 -21.24733,30.37035 -5.53304,7.67814 -11.16207,15.32757 -17.88478,22.02698 -6.27555,5.66309 -13.30257,11.01799 -21.45083,13.57692 -3.67321,0.89518 -7.04389,1.16104 -10.44606,-0.84022 -3.10959,-2.16953 -4.77321,-5.05894 -5.29444,-8.84051 -0.14752,-5.82531 1.17345,-11.59203 2.95708,-17.11031 2.5744,-6.98471 5.10607,-14.07199 9.01634,-20.4424 2.72222,-4.37568 5.62547,-8.7232 9.58676,-12.08969 4.96955,-4.11502 10.75186,-7.13162 16.62298,-9.75649 3.46772,-1.52837 7.03511,-2.85287 10.75871,-3.61059 3.03878,-0.7422 6.11798,-1.35181 9.21351,-1.78486 4.75849,0.0137 9.30741,-1.83079 -1.62887,4.2407 3.9e-4,-0.55421 4.1e-4,-1.10843 -0.004,-1.66263 -0.0121,-0.82667 0.0255,-1.65244 0.0797,-2.47733 0.21946,-1.04583 0.45597,-2.06948 1.09033,-2.95144 0.64688,-1.31325 0.63142,-2.5515 0.5784,-4.01208 0.0347,-1.27007 0.19681,-2.49263 0.64658,-3.69224 0.65529,-2.04734 1.66579,-3.96572 1.70655,-6.17549 0.42025,-1.96753 1.1685,-3.87138 1.15361,-5.90014 0.23259,-2.38002 1.02348,-4.61555 1.84312,-6.85231 1.8197,-4.75207 3.21988,-9.65707 4.73112,-14.51273 1.71643,-5.31885 3.23309,-10.70559 4.7572,-16.08248 1.0895,-3.6384 1.86594,-7.34375 2.44756,-11.09595 10e-4,-1.69414 0.0178,-3.38948 -0.0608,-5.08222 -0.27093,-0.0529 -1.50953,-0.38518 -2.03108,-0.60557 -1.69286,-0.58615 -3.33058,-1.29485 -5.13457,-1.47223 -1.82599,-0.48187 -3.60086,-1.28752 -5.52085,-1.24576 -2.69805,-0.15504 -5.39041,-0.41928 -8.04293,-0.9551 -3.61689,-0.63618 -7.22384,-1.06408 -10.89464,-1.24538 -2.89714,-0.3545 -5.75617,-1.12435 -8.67053,-1.14693 -1.99534,0.0949 -4.01623,0.22587 -5.86782,1.05146 12.69481,-7.51063 5.74663,-4.13563 3.82907,-1.53841 -1.52276,2.36109 -2.37672,5.08735 -3.01916,7.81056 -0.64125,2.35155 -1.03389,4.76318 -2.03544,6.99999 -1.27792,2.5397 -2.29472,5.2098 -3.90576,7.57323 -1.26945,2.49436 -2.32807,5.06677 -3.30958,7.68345 -0.79414,1.62863 -1.3003,3.53768 -1.68704,5.29163 -0.18671,1.61819 -0.5237,3.25203 -1.46258,4.61752 -0.92344,1.57676 -1.1313,3.5189 -2.14803,5.07495 -1.08846,2.68193 -1.7871,5.52141 -2.91639,8.1912 -0.95264,2.54619 -1.48348,5.21909 -2.68497,7.6709 -0.59128,2.30709 -1.71001,4.34799 -2.4666,6.59333 -0.83167,2.04745 -1.5709,4.17349 -2.77506,6.03345 -0.89244,2.32328 -2.38055,4.34218 -3.28996,6.66087 -1.21879,2.55888 -2.38984,5.12316 -3.74319,7.6128 -1.25517,1.91482 -2.09684,4.00901 -3.16545,6.02432 -0.83641,1.99096 -2.49302,3.40484 -3.69199,5.17452 -2.93738,2.82442 -5.90455,5.61764 -8.92503,8.35334 -4.25028,3.94618 -8.29204,8.06025 -12.19786,12.34754 -5.98043,5.26816 -12.39789,10.20695 -19.89916,13.12513 -4.0482,1.31817 -8.16438,2.26669 -12.42508,1.33602 -4.64044,-0.99528 -8.93455,-2.87844 -12.93562,-5.44397 -3.82825,-2.88357 -7.27742,-6.07072 -9.22914,-10.56346 -1.6133,-4.28628 -2.00367,-8.74286 -1.37919,-13.29004 0.63726,-5.43627 1.77647,-10.7589 3.72687,-15.89148 1.57052,-4.79741 3.31646,-9.57812 5.86966,-13.95264 3.44314,-5.79159 6.52803,-8.47196 13.79146,-11.18485 3.26617,-0.78541 6.52017,-0.82651 9.7262,0.32075 3.37827,1.18197 6.69788,2.61202 9.74799,4.49606 2.13972,1.2599 4.10274,2.82367 6.35171,3.87489 -10.09499,6.27856 -7.27585,5.74042 -5.22585,2.35433 0.79566,-1.15835 1.6531,-2.29878 2.79813,-3.15186 1.08153,-0.91696 1.9138,-2.07755 3.3566,-2.50041 0.587,-0.91381 1.32915,-1.5455 1.53148,-2.59 0.36465,-1.18059 1.43863,-2.06671 1.49616,-3.35493 0.33293,-2.1956 0.94583,-4.33032 1.64656,-6.43647 0.70158,-2.48627 1.00485,-5.07735 2.08287,-7.45894 0.37101,-1.91292 1.26793,-3.58643 1.75195,-5.44261 0.56552,-1.90919 1.51991,-3.6019 2.22563,-5.43824 0.73954,-1.70873 1.60466,-3.33854 2.26432,-5.08421 1.10568,-1.90019 1.85214,-3.95463 2.99699,-5.8352 0.71435,-1.64981 1.6696,-3.18406 2.3041,-4.87157 0.7216,-1.48743 0.88296,-3.213 1.61413,-4.71676 0.6818,-1.87688 0.38154,-4.0083 1.09432,-5.90761 0.5573,-1.6899 1.20038,-3.26559 1.26566,-5.07743 0.31381,-1.43549 1.03517,-2.74629 1.28247,-4.14416 -0.009,-1.23983 -0.001,-2.47984 -0.003,-3.71967 0.009,-1.35865 0.0538,-2.72234 0.29339,-4.06287 0.19804,-1.13784 0.46369,-2.63407 1.4476,-3.35466 -0.0166,-0.79726 0.002,-1.61888 -0.28481,-2.37601 -0.42475,-0.41725 -0.86859,-1.01254 -1.50617,-0.97189 -1.25488,-0.0109 -2.5098,-0.0163 -3.76473,-0.0152 -2.01826,-0.008 -4.03655,-0.0136 -6.05482,-0.0158 -1.86012,0.003 -3.72168,0.006 -5.57798,0.14246 -2.99909,0.25089 -5.96174,0.73911 -8.88067,1.48307 -3.767,0.88129 -7.59565,1.46124 -11.44572,1.84011 -2.61217,0.006 -5.22496,0.0277 -7.83664,-0.0338 -2.76733,-0.079 -5.53897,-0.23477 -8.27092,-0.70946 -3.69538,-0.63536 -7.38161,-1.28665 -11.14942,-1.21711 -4.84403,-0.2734 -9.67842,-0.69199 -14.48802,-1.33982 0,0 6.96733,-4.91254 6.96733,-4.91254 z"
       inkscape:connector-curvature="0" />
    <path
       style="fill:#2b0000"
       id="path5170"
       d="m 614.3125,661.74715 c 3.78261,-2.6146 7.24682,-5.67164 10.39704,-9.01463 3.15784,-4.1917 6.2737,-8.39034 9.70749,-12.36408 3.9062,-4.39882 7.87104,-8.72925 12.03929,-12.88174 4.31932,-4.4923 9.1079,-8.47771 13.79955,-12.56576 3.54014,-3.35485 7.37031,-6.36475 11.14956,-9.43913 4.07727,-3.90214 7.58831,-5.81561 12.75177,-8.86112 -11.9201,7.08493 -7.51149,5.0224 -5.47862,2.54146 0.48455,-0.60654 20.23087,-11.63557 2.47642,-1.62124 0.88197,-0.9731 1.81562,-1.90867 2.80656,-2.77204 1.18099,-1.11689 2.58764,-1.95054 3.82116,-2.99492 0.99836,-0.8472 1.94272,-1.69949 2.79896,-2.69249 0.0492,-0.26511 1.72943,-1.7337 1.23192,-1.37556 -1.91644,-0.28827 -3.73518,0.0636 -5.60344,0.45563 -3.73853,1.47653 -7.70249,2.09321 -11.67553,2.50728 -4.92776,0.54397 -9.83113,0.3737 -14.7465,-0.12533 -5.97781,-0.87082 -12.02176,-0.5599 -17.99354,0.17554 -5.8757,0.65701 -11.51196,2.48599 -17.21501,3.94399 -3.36202,1.17782 -6.72254,2.28363 -10.20719,3.03447 -1.15639,0.76705 -3.59785,1.00688 -2.28862,-1.06454 2.96774,-3.25699 6.08085,-6.37395 9.10054,-9.5828 5.76078,-6.46964 11.77419,-12.68248 18.05675,-18.64376 8.3287,-7.76331 16.50986,-15.68144 24.63709,-23.65467 7.96833,-7.83171 15.14209,-16.38338 21.96534,-25.21384 4.85576,-6.5588 9.3505,-13.36535 12.95072,-20.69249 2.59921,-5.23906 4.78789,-10.67295 7.04265,-16.06701 1.24255,-3.34918 2.63985,-6.63507 3.55968,-10.09255 0.43084,-2.24129 1.28036,-4.38312 2.2766,-6.42835 1.29373,-2.61309 3.00122,-4.97777 4.51314,-7.4618 0.99462,-1.96229 2.45614,-3.63119 3.4739,-5.57904 0.45885,-1.53923 -1.68189,0.19809 -2.18335,0.47492 1.96494,-1.06213 3.84965,-2.2884 5.89482,-3.1864 0.69328,-0.30441 -1.20603,0.91605 -1.79835,1.38771 -0.73969,0.58902 -1.46269,1.19871 -2.19732,1.79403 -3.31547,2.68677 -6.60276,5.40644 -9.90562,8.10889 -10.28247,7.82632 -20.74346,15.41514 -31.19278,23.0171 -11.89889,8.88034 -24.80491,16.24766 -37.65097,23.63665 -6.63512,4.06146 -13.95134,6.64188 -21.22276,9.26307 -2.8848,0.55165 -6.81802,2.90991 -9.80049,2.33307 -1.80611,-1.67378 1.7142,-5.78136 2.62857,-7.20559 4.86041,-7.36914 9.70319,-14.75086 14.74103,-22.00018 6.42237,-9.20976 12.70073,-18.55226 18.33389,-28.26936 5.72133,-9.60688 10.94781,-19.49059 16.11858,-29.40012 5.10494,-9.79007 9.91128,-19.70998 14.32144,-29.82985 2.0772,-4.66026 3.71341,-9.49959 4.72493,-14.50051 0.25211,1.21653 0.0653,-1.04001 -0.14107,-0.8434 -0.16974,0.1617 -0.17991,0.45854 -0.36679,0.60007 -0.28481,0.21569 -1.29459,0.60102 -0.98462,0.42338 7.7927,-4.46592 7.57091,-4.40544 4.34245,-2.11725 -6.10077,4.29949 -12.60738,7.97712 -19.0217,11.78024 -13.18264,7.39422 -26.35298,14.80367 -39.53248,22.20367 -11.77271,6.64958 -25.15923,14.64493 -38.45021,22.01012 -5.22192,2.86067 -10.45833,5.6915 -15.6587,8.59105 -1.0632,0.59281 4.23756,-2.39793 3.18759,-1.78201 -7.41554,4.34995 -15.80631,9.06456 -6.10093,3.58809 -2.87566,1.37543 -15.49654,11.11923 -12.67377,4.60654 4.06327,-4.80605 8.14472,-9.60353 12.16975,-14.44625 5.45501,-6.65784 10.75756,-13.41959 15.88119,-20.33396 5.07025,-6.99739 10.04139,-14.0711 15.52726,-20.75129 6.51306,-8.05459 13.69509,-15.52123 20.62163,-23.21074 5.46718,-6.01353 10.46529,-12.42731 15.75782,-18.59163 2.21708,-2.5788 4.50776,-5.09367 6.84047,-7.56807 1.47782,-1.5564 -1.73548,1.68918 0.58443,0.80535 8.24829,-3.1424 8.46366,-5.56803 5.12368,-2.16255 -4.04876,3.6056 -8.20137,7.09032 -12.29985,10.64001 -6.38519,5.64628 -12.92141,11.11431 -19.26108,16.81243 -8.33079,7.65641 -16.47118,15.52383 -24.33075,23.6631 -8.84784,9.17664 -17.42547,18.60003 -25.97695,28.05098 -5.78308,6.47707 -11.21514,13.25704 -16.43821,20.19068 -2.97598,4.09484 -5.37417,8.54368 -7.75078,12.99803 -1.59915,3.64599 -3.77855,6.94723 -6.22538,10.06937 -2.41048,2.89732 -5.07818,5.56672 -7.72745,8.243 -1.18146,1.27512 -2.53138,2.396 -3.64485,3.7322 -1.20688,1.62991 -2.58527,3.11502 -3.94655,4.61377 -1.62502,1.76843 -3.61474,3.12834 -5.53715,4.54592 -3.13253,2.17657 -6.50199,3.89388 -9.878,5.7164 -0.2343,0.12648 -0.99116,0.37475 -0.76222,0.23882 6.99485,-3.93246 8.97132,-5.1539 6.09029,-3.39019 -3.48376,1.69104 -6.53743,4.83831 -10.47554,5.37359 -2.89153,1.37533 -10.78112,5.86889 1.12952,-0.87572 -6.11668,3.61177 -12.33554,6.97143 -18.70227,10.09187 -3.089,1.50744 -6.36872,2.36739 -9.77143,2.71447 -2.83044,0.36686 -5.57108,0.17444 -8.35045,-0.3798 -3.62793,-0.81361 -7.20074,-1.90119 -10.7772,-2.93565 -3.73613,-1.05359 -7.38268,-2.28832 -11.2225,-2.92905 -2.97976,-0.15053 -5.82695,-0.6741 -8.71054,-1.39113 -2.1167,-0.59402 -4.31748,-0.72556 -6.50273,-0.80544 -3.26768,-0.30752 -6.49492,-1.00589 -9.77839,-1.34478 -4.43655,-0.71742 -8.82692,-1.5943 -13.11959,-2.93256 -3.91836,-1.70605 -7.91053,-3.30944 -11.72037,-5.2454 -2.71991,-1.15538 -4.90976,-3.09491 -6.54371,-5.52556 -1.30649,-2.5801 -1.19051,-5.54496 -1.23767,-8.36232 0.25162,-4.65974 1.24705,-9.21043 2.18525,-13.76523 1.13569,-4.27098 3.0318,-8.31669 4.83296,-12.34362 1.77173,-3.57078 3.68466,-7.05744 5.95603,-10.33483 1.05033,-1.68541 2.61436,-2.97803 3.61729,-4.6879 1.76405,-3.86454 3.09323,-2.84179 8.9535,-6.06557 0,0 -6.76628,5.272 -6.76628,5.272 l 0,0 c 2.25673,-1.32446 4.52868,-2.62331 6.77019,-3.97338 0.22915,-0.13802 -0.5767,0.0659 -0.75852,0.26208 -0.24009,0.25909 -0.0633,0.76758 -0.37896,0.98958 -0.89002,1.85075 -2.42937,3.15296 -3.6239,4.81074 -2.32917,3.22009 -4.26529,6.66385 -6.06368,10.20572 -1.82407,3.9679 -3.62969,8.00069 -4.91377,12.17356 -0.93025,4.50133 -1.94869,8.98132 -2.2426,13.58468 0.0463,2.6453 -0.0951,5.45982 1.04542,7.91239 1.54386,2.33223 3.69592,4.06329 6.27187,5.17491 3.79124,1.87367 7.68704,3.56973 11.61131,5.14496 4.27518,1.26304 8.63484,2.15796 13.04842,2.78797 3.27555,0.36485 6.5036,1.08632 9.78915,1.27058 2.22399,0.11157 4.44983,0.32194 6.59683,0.94986 2.85391,0.71796 5.72059,1.06075 8.64697,1.36207 3.83863,0.71249 7.50398,1.97486 11.25942,3.01453 3.56161,1.03353 7.13145,2.0918 10.7599,2.84898 2.72727,0.48534 5.44871,0.51539 8.20261,0.16786 3.33786,-0.44312 6.54488,-1.40317 9.56538,-2.91618 2.82608,-1.36286 17.52198,-9.29795 4.13933,-1.72615 4.22235,-2.46814 8.86142,-5.68942 13.66381,-7.37004 3.00263,-0.66954 8.36234,-5.21485 -4.38206,2.87647 4.31309,-2.45162 17.13285,-9.76718 2.85223,-1.40949 -0.59558,0.34856 2.62013,-1.57643 1.75318,-1.10101 1.95788,-1.33 3.84399,-2.76528 5.60831,-4.35042 1.27151,-1.5541 2.73296,-2.93286 3.9617,-4.5151 0.87507,-1.55649 2.46732,-2.56633 3.63397,-3.8993 2.6596,-2.6548 5.32345,-5.31358 7.77689,-8.16284 2.4886,-3.05732 4.75614,-6.28745 6.30435,-9.93652 2.42738,-4.48085 4.78408,-9.00502 7.77846,-13.14897 5.23428,-7.00013 10.75966,-13.78472 16.55843,-20.32535 8.57276,-9.44445 17.14632,-18.88403 25.98625,-28.08134 7.81446,-8.15571 15.93701,-16.01367 24.22799,-23.6841 6.29983,-5.70102 12.80859,-11.15471 19.164,-16.79217 4.06973,-3.5067 8.1072,-7.04237 12.20492,-10.51738 2.61141,-2.75824 6.97945,-8.83605 10.45409,-5.61768 0.0113,0.0105 -0.0121,0.0284 -0.0182,0.0426 -0.11885,0.11905 -0.2377,0.2381 -0.35655,0.35715 -2.4075,2.46153 -4.73752,4.99854 -7.00574,7.5888 -5.35388,6.16122 -10.38615,12.59379 -15.85819,18.65198 -6.9067,7.69608 -14.13105,15.1143 -20.62551,23.17474 -5.51303,6.63116 -10.44403,13.71211 -15.50136,20.69262 -5.13584,6.92163 -10.42064,13.70991 -15.87914,20.38252 -3.9669,4.79105 -7.88932,9.61964 -12.01667,14.27345 -0.36058,0.3513 -1.29823,1.41997 -1.06276,0.54387 0.0385,-0.1433 0.28164,-0.0951 0.41672,-0.15657 0.32762,-0.14894 1.27594,-0.6636 0.97009,-0.47392 -1.83944,1.14076 -3.70624,2.23708 -5.57475,3.32958 -0.76338,0.44634 1.50601,-0.92727 2.25902,-1.3909 9.09945,-5.31367 16.46814,-9.81602 32.76176,-18.5439 11.55614,-6.40341 25.13953,-14.5846 38.4427,-22.01054 7.6876,-4.32829 15.33407,-8.72213 23.07379,-12.95642 1.62371,-0.88831 3.19391,-1.87964 4.86189,-2.68175 0.87854,-0.42249 -1.65771,1.02632 -2.48656,1.53947 6.35815,-3.76947 12.7988,-7.42354 18.87434,-11.64189 4.03943,-2.9658 2.54132,-1.95296 10.27709,-6.2757 0.69284,-0.38716 1.33511,-0.52526 2.04592,-0.083 0.39473,0.2456 0.37316,1.1752 0.40438,1.45351 -1.07113,5.08231 -2.70713,10.02173 -4.85126,14.75561 -4.47619,10.12624 -9.25106,20.09792 -14.376,29.91565 -5.16631,9.91142 -10.33361,19.82833 -16.07999,29.42121 -5.59631,9.75121 -11.89814,19.09388 -18.29913,28.33081 -5.01829,7.19384 -9.79277,14.55215 -14.58144,21.9003 -1.03996,1.58823 -2.66784,4.27619 -3.39046,5.62288 3.25111,-0.17703 6.37116,-1.70339 9.47017,-2.53903 7.23465,-2.55834 14.42727,-5.27885 21.01665,-9.28666 -0.87281,0.51591 -3.49165,2.06293 -2.61843,1.54772 8.96958,-5.2921 17.85138,-10.76831 26.23131,-16.96593 10.41862,-7.5685 20.82344,-15.15681 31.09273,-22.92611 7.19961,-5.90111 13.98996,-12.2801 22.37192,-16.53862 1.5646,-0.7118 3.37516,-0.99689 3.3061,1.29722 -0.81416,2.09799 -2.48866,3.68385 -3.48078,5.68524 -1.43632,2.51108 -3.19728,4.81025 -4.51695,7.38704 -0.97105,2.01391 -1.96265,4.06299 -2.35353,6.28154 -0.91449,3.50971 -2.31089,6.8369 -3.57558,10.2298 -2.26332,5.42272 -4.51166,10.86607 -7.09415,16.14403 -3.57966,7.40842 -8.08282,14.26908 -12.96931,20.88625 -6.82874,8.8692 -14.00985,17.45973 -21.97553,25.34162 -8.1107,7.96268 -16.26202,15.88418 -24.56921,23.64253 -6.26357,5.923 -12.28261,12.07409 -17.97542,18.55282 -2.94612,3.20448 -6.02467,6.27586 -8.96117,9.48458 -0.52645,0.43542 -0.51594,0.70256 -1.02631,-0.0892 -0.16293,-0.25276 2.32481,-0.32531 2.2238,-0.67484 3.44099,-0.77241 6.74479,-1.96111 10.11082,-2.99879 5.70192,-1.47695 11.36509,-3.21893 17.24985,-3.8268 6.02662,-0.66257 12.0989,-0.9384 18.12189,-0.0476 4.89214,0.45125 9.7823,0.51779 14.67523,-0.0396 3.98246,-0.47052 7.87644,-1.27913 11.6727,-2.59692 1.94381,-0.36875 4.02156,-0.7017 5.95286,-0.0841 1.35048,1.07896 0.48238,1.79421 -0.48212,2.81326 -0.87697,1.00659 -1.66631,2.04461 -2.76189,2.78385 -1.17296,1.15902 -2.60013,1.8886 -3.79865,3.04187 -1.05026,0.78972 -2.01176,1.70738 -2.83361,2.70112 -2.5972,1.59489 -5.18452,3.20598 -7.79161,4.78466 -0.39922,0.24174 -1.66116,0.84505 -1.26817,0.59332 2.19955,-1.40893 4.4281,-2.77228 6.6578,-4.13302 0.0699,-0.0427 -0.2052,0.32765 -0.10637,0.22157 -2.00355,3.18118 -6.02002,4.53111 -9.08708,6.27929 13.34874,-7.91063 4.65264,-2.76933 1.79268,0.29732 -3.79687,3.07831 -7.67682,6.05352 -11.21602,9.43401 -4.6842,4.08775 -9.51099,8.02253 -13.82175,12.51621 -4.18011,4.13151 -8.1526,8.43448 -12.06015,12.82306 -3.45198,3.94883 -6.63958,8.0874 -9.6647,12.37239 -3.06187,3.40167 -6.5095,6.51751 -10.28605,9.10862 0,0 -7.92013,3.17841 -7.92013,3.17841 z"
       inkscape:connector-curvature="0" />
    <path
       style="fill:#2b0000"
       id="path5182"
       d="m 127.04481,258.65874 c -2.68147,2.92347 -6.51541,5.48021 -7.44323,9.53028 0.12118,0.44916 0.18345,0.91853 0.36354,1.34748 0.99291,2.365 2.78543,4.55172 4.19888,6.66016 3.01039,4.4906 1.41293,2.00687 4.42932,6.89865 5.76167,9.24732 11.09968,18.74833 16.79553,28.0336 5.86097,9.3974 12.28808,18.44635 19.61917,26.7525 5.54564,6.44557 12.39835,11.30627 20.38863,14.15826 6.44501,2.15488 12.36223,-0.0504 18.43647,-2.15774 3.53815,-1.39162 6.98607,-3.046 10.31397,-4.88568 0.63905,-0.35327 2.54102,-1.44016 1.90321,-1.08464 -1.85673,1.03495 -3.70669,2.08199 -5.56004,3.12298 3.80541,-2.42569 3.50399,-5.67391 3.05212,-9.70963 -1.78148,-8.93669 -3.92608,-17.80256 -5.85535,-26.71468 -3.06831,-13.97087 -3.63731,-28.25261 -3.60289,-42.4996 0.0685,-15.00665 2.75886,-29.7569 5.66161,-44.41785 1.46478,-7.86019 3.78705,-15.49884 5.93765,-23.18421 0.35553,-2.53422 1.5256,-4.16003 3.31817,-5.81219 3.35052,-2.95119 6.82117,-5.7589 10.14506,-8.74655 5.85917,-4.97454 11.69872,-9.97275 17.13683,-15.40865 5.57182,-5.39351 10.90399,-10.99737 15.90129,-16.92523 5.3949,-6.5308 9.70013,-13.87222 13.63664,-21.34741 4.45042,-8.52026 7.53848,-17.58755 9.73413,-26.92013 1.70431,-7.380563 2.06869,-14.081102 0.86265,-21.52357 -1.07583,-5.620924 -4.00228,-10.47274 -7.10197,-15.180016 -3.2687,-4.574928 -6.7071,-8.997467 -10.63618,-13.022075 -3.88821,-3.983897 -8.02744,-7.68032 -12.45988,-11.044804 -5.03797,-4.003857 -10.89507,-6.03049 -16.99811,-7.712253 -7.63617,-1.971526 -15.54035,-2.330819 -23.38309,-2.610318 -8.88185,-0.218747 -17.76745,-0.177588 -26.65124,-0.171794 -8.58631,0.409022 -17.1887,0.891472 -25.60479,2.709961 -4.34483,1.025463 -8.45651,2.715538 -12.39134,4.802583 -1.43566,0.761477 -2.95135,1.417012 -4.23858,2.40898 -0.76965,0.593108 1.7733,-0.79497 2.65995,-1.192456 -1.53787,1.145272 -3.07574,2.290543 -4.61361,3.435814 -9.98887,8.033403 -19.00589,17.2016 -27.68743,26.609682 -8.10789,8.572172 -14.35718,18.402146 -19.276942,29.069636 -4.763829,11.66633 -8.419263,23.76492 -12.149744,35.79433 -3.851492,13.13759 -7.434458,26.33875 -11.637348,39.36993 -4.309299,12.47179 -7.560796,25.25363 -10.283161,38.15427 -2.796859,11.69926 -4.098111,23.56285 -3.73405,35.5705 0.485512,9.34079 3.307985,18.13218 7.379196,26.4714 4.188458,7.22459 9.316147,13.9103 14.99853,20.02002 4.457442,4.85266 9.733061,8.68871 15.510253,11.79485 3.494016,1.55028 6.979886,3.18291 10.694096,4.13813 3.77701,0.89018 6.12274,-2.02716 -4.70803,3.8906 0,0 7.91256,-3.32156 7.91256,-3.32156 l 0,0 c -6.28205,3.79212 -5.63874,5.4972 -10.24454,4.26086 -3.705623,-1.09725 -7.22985,-2.71506 -10.720958,-4.35558 -5.794296,-3.22389 -11.112316,-7.13207 -15.58908,-12.06653 -5.70348,-6.19744 -10.88348,-12.94453 -15.105189,-20.24165 -4.105632,-8.45998 -6.989973,-17.34668 -7.473948,-26.81774 -0.396519,-12.07618 0.895069,-24.0077 3.704721,-35.77563 2.715064,-12.92695 5.930201,-25.74392 10.25638,-38.23668 4.214262,-13.02757 7.847733,-26.21291 11.651195,-39.36496 3.7087,-12.04524 7.349423,-24.15473 12.038691,-35.85891 4.860163,-10.767832 11.084318,-20.690689 19.222188,-29.328803 8.65324,-9.438443 17.66698,-18.604863 27.58264,-26.728562 9.88492,-7.51357 20.76449,-14.40553 32.89026,-17.543664 8.45878,-1.701754 17.07817,-2.231014 25.69007,-2.560981 8.89578,-0.01297 17.79342,-0.04391 26.68706,0.184642 7.89847,0.297666 15.8554,0.706711 23.53385,2.742628 6.19769,1.718 12.09732,3.903819 17.20773,7.957483 4.45776,3.39759 8.62269,7.12551 12.52623,11.151022 3.9536,4.072402 7.43825,8.529101 10.72147,13.157824 3.16036,4.807862 6.14821,9.764255 7.25809,15.499144 0.33397,2.057056 0.76897,4.4044 0.87857,6.484473 0.27216,5.165206 -0.82443,10.312224 -1.67518,15.371754 -2.17913,9.38971 -5.22993,18.52296 -9.65624,27.11438 -3.88577,7.52248 -8.16881,14.90164 -13.51558,21.49287 -4.98651,5.9558 -10.27353,11.61477 -15.88349,16.99244 -5.37907,5.4747 -11.20103,10.47875 -17.06363,15.42719 -3.26806,2.98368 -6.66481,5.81308 -10.02337,8.68209 -1.83514,1.74216 -3.18863,2.60997 -3.58142,5.42385 -2.21625,7.71161 -4.72909,15.34117 -6.21749,23.24633 -2.97869,14.61793 -5.72774,29.33004 -5.8074,44.31181 -0.0252,14.17715 0.5287,28.3875 3.63557,42.28155 1.97721,8.90963 4.14553,17.77173 6.07895,26.68514 0.54406,4.12514 1.17358,7.82725 -2.62141,10.5595 -6.871,4.05657 -13.6669,8.3477 -21.20427,11.09105 -6.19984,2.13431 -12.2704,3.99764 -18.76243,1.68076 -8.02142,-3.07835 -14.93307,-7.99319 -20.5173,-14.56625 -7.31667,-8.37745 -13.77826,-17.45418 -19.65859,-26.89306 -5.68821,-9.28878 -11.04354,-18.77783 -16.87234,-27.98284 -3.04143,-4.85195 -1.4164,-2.37222 -4.47415,-6.83518 -1.49203,-2.17771 -3.33695,-4.39793 -4.42025,-6.82988 -0.24196,-0.54318 -0.36602,-1.13155 -0.54903,-1.69733 0.56135,-4.31503 4.41256,-6.99375 7.22504,-10.00372 0,0 7.87613,-3.2624 7.87613,-3.2624 z"
       inkscape:connector-curvature="0" />
    <path
       style="fill:#2b0000"
       id="path5184"
       d="m 88.615797,224.20981 c -3.461362,-4.59085 -4.531893,-10.2367 -5.349499,-15.7904 -0.799937,-5.90535 -0.112568,-11.86764 0.354227,-17.77219 0.225576,-2.72363 0.406025,-5.45083 0.473969,-8.18315 0.02461,-1.16229 0.02884,-2.32473 0.01309,-3.48714 0.819506,-14.40684 8.612451,-3.11165 10.040425,-1.14951 2.005354,3.098 3.666216,6.39136 5.406325,9.64099 2.410126,4.01795 4.485096,8.22604 6.953156,12.20827 1.70463,3.10536 3.9962,5.83669 5.831,8.85865 1.18636,1.58674 2.3184,3.18 3.82704,4.47698 1.5587,1.22057 12.54801,-1.7425 -6.66232,3.44052 -0.43019,0.11607 -0.0374,-0.89057 -0.0728,-1.33473 -0.10544,-1.32087 -0.25485,-2.63786 -0.3763,-3.95735 -1.03674,-6.51955 -1.67891,-13.07982 -2.07068,-19.66663 -0.29327,-5.21001 -0.37824,-10.42759 -0.43939,-15.64437 -0.13738,-7.1431 -0.24013,-4.85677 8.48785,-9.54159 2.97662,0.44606 5.3569,2.82943 7.38339,4.87865 4.24745,4.3777 7.23092,9.74316 10.17751,15.03083 3.24316,5.56849 5.37237,11.66416 7.91589,17.55323 1.01968,2.06048 1.94555,4.16882 2.76049,6.31868 0.70269,3.53834 -5.89593,4.53791 -8.11806,5.8368 0,0 6.70214,-5.34153 6.70214,-5.34153 l 0,0 c -2.20517,1.33822 -4.38641,2.71668 -6.61549,4.01466 -0.11429,0.0666 0.11868,-0.29244 0.25,-0.30808 0.14053,-0.0167 0.21279,0.25752 0.35271,0.23633 0.0955,-0.0145 -0.0576,-0.18443 -0.0865,-0.27665 -0.73457,-2.16719 -1.64647,-4.27059 -2.6252,-6.33758 -2.47449,-5.88904 -4.54876,-11.97781 -7.80609,-17.51181 -2.92491,-5.21345 -5.89255,-10.50111 -10.13389,-14.78214 -1.84614,-1.79248 -4.20413,-4.29687 -7.00096,-4.13336 2.27724,-1.35335 4.59628,-2.63874 6.83174,-4.06006 0.17565,-0.11168 -0.4614,-0.0329 -0.61512,0.10748 -0.97067,0.88619 0.0998,3.37591 -0.28982,4.45367 -0.006,5.21969 0.0642,10.44069 0.32054,15.65482 0.37978,6.56641 0.98184,13.11546 2.13497,19.59728 0.12527,1.23469 0.83171,5.14382 0.57742,5.38746 -4.23833,4.06084 -5.34662,7.42789 -8.26692,4.90836 -1.52065,-1.39694 -2.71397,-3.05179 -3.9177,-4.72223 -1.81791,-3.02748 -4.09433,-5.76576 -5.782389,-8.87595 -2.473625,-3.99895 -4.535676,-8.23247 -6.969381,-12.25665 -1.745905,-3.20287 -3.398099,-6.45619 -5.415888,-9.50089 -0.09135,-0.12401 -1.912051,-2.60878 -1.906283,-2.61404 7.237361,-6.60293 6.884023,-7.58394 6.879445,-4.49611 -0.0055,1.17676 -0.005,2.35386 -0.03709,3.53022 -0.08453,2.76109 -0.266629,5.51613 -0.530804,8.26621 -0.533741,5.85006 -1.243831,11.77019 -0.501257,17.62988 0.778262,5.40057 1.762623,10.93871 5.241899,15.33591 0,0 -7.325409,4.37826 -7.325409,4.37826 z"
       inkscape:connector-curvature="0" />
    <path
       style="fill:#2b0000"
       id="path5186"
       d="m 145.00878,187.3656 c 1.70772,-4.11998 3.79436,-8.04263 6.01126,-11.90691 2.31958,-3.74931 5.22224,-7.07766 7.66675,-10.74336 2.35035,-3.16745 3.7896,-6.46502 3.87385,-10.40799 -0.27765,-3.65309 -2.34531,-5.86968 -5.60549,-7.18706 -0.5092,-0.0495 -1.01653,-0.17196 -1.5276,-0.14859 -1.6862,0.0771 -7.90792,3.40857 -4.89283,1.95022 5.89594,-2.85178 7.09192,-4.48016 3.73645,-1.00926 -3.97255,4.20445 -6.10097,9.45938 -7.9602,14.82578 -1.93881,5.23771 -1.79232,10.41056 -0.0854,15.63782 1.7964,4.71789 4.74978,8.40096 9.14545,10.83919 3.57795,2.0441 7.66907,2.65349 11.60332,1.45022 5.82753,-3.7986 -8.10001,5.97127 -3.12181,1.08027 0,0 7.84785,-3.27829 7.84785,-3.27829 l 0,0 c -3.03192,3.47115 -7.27133,5.55241 -11.47308,7.36732 -4.1414,0.89772 -8.29299,0.15547 -11.95952,-2.0036 -4.48604,-2.65323 -7.55996,-6.49162 -9.44153,-11.38121 -1.80786,-5.36263 -2.08511,-10.71619 -0.1511,-16.13615 1.87277,-5.42305 3.85081,-10.81381 7.79986,-15.13509 3.94443,-4.48171 1.36064,-1.91419 10.67264,-7.5851 2.13127,-1.29792 4.45827,-1.89723 6.89489,-1.19117 3.45271,1.60275 5.68949,4.13471 6.09841,8.05331 -0.009,4.40654 -1.0991,7.25947 -3.68413,10.85134 -2.37761,3.71006 -5.29017,7.01525 -7.69306,10.7057 -2.24143,3.81876 -4.39304,7.69255 -5.98342,11.8365 0,0 -7.77158,3.51611 -7.77158,3.51611 z"
       inkscape:connector-curvature="0" />
    <path
       style="fill:#2b0000"
       id="path5188"
       d="m 188.2835,127.78805 c -0.72056,0.25978 -1.45606,0.48139 -2.1617,0.77934 -0.77798,0.3285 -3.0111,1.52607 -2.28339,1.09757 1.61175,-0.94906 3.17538,-2.0409 4.93975,-2.66174 0.8867,-0.312 -1.53813,1.08766 -2.24079,1.71205 -1.97169,1.75203 -2.05366,2.16801 -3.51564,4.33737 -2.80804,4.76891 -2.14774,9.86745 -0.48179,14.88098 1.718,4.59252 4.87358,7.49099 9.3214,9.30029 2.55246,0.95268 5.0353,0.80772 7.48364,-0.36739 0.61446,-0.29492 2.38215,-1.32493 1.77606,-1.01316 -1.9023,0.97856 -3.77724,2.0094 -5.66586,3.0141 4.22765,-3.78625 4.89031,-9.18489 5.04964,-14.54384 -0.19726,-5.82104 -1.84999,-11.36747 -4.68433,-16.42008 -1.3745,-2.02756 -3.31466,-5.4112 -6.16816,-5.3747 0,0 7.00365,-4.93581 7.00365,-4.93581 l 0,0 c 3.01906,0.83472 4.95428,3.52784 6.49191,6.09334 2.89441,5.18993 4.57552,10.87169 4.86299,16.83428 -0.0884,5.49533 -0.62264,11.06479 -4.67061,15.20031 -6.02729,3.71754 -11.28516,8.84462 -18.53458,6.21723 -4.57527,-2.03381 -7.86161,-5.15267 -9.66617,-9.92628 -1.75981,-5.17408 -2.56851,-10.54359 0.16139,-15.5653 4.36969,-7.1399 11.90725,-11.18104 19.73517,-13.85772 0,0 -6.75258,5.19916 -6.75258,5.19916 z"
       inkscape:connector-curvature="0" />
    <path
       style="fill:#2b0000"
       id="path5190"
       d="m 212.41906,89.801528 c 0.0931,5.492209 1.39463,10.637172 3.79944,15.544452 2.63387,4.34016 6.85064,7.2011 11.11134,9.76161 4.05685,2.22086 7.88495,4.66517 11.53744,7.49218 2.09077,1.40239 3.03572,3.56912 4.32105,5.58206 -9.82786,4.97021 -6.50725,4.98954 -7.71903,-1.29377 -1.27227,-4.72085 -3.136,-9.24711 -5.22623,-13.65744 -2.61692,-5.3852 -5.68239,-10.59474 -9.38954,-15.302538 -1.97198,-2.760213 -4.02532,-5.452572 -6.0185,-8.189684 -1.68539,-4.212612 1.7063,-3.528089 7.75998,-6.072224 0.25579,-0.107496 1.7866,1.105446 1.82301,1.132272 2.92809,2.606564 5.70458,5.396783 8.27326,8.357315 3.75956,4.283967 7.61451,8.493739 11.47792,12.688289 2.63376,3.03446 5.55546,5.76615 8.4669,8.51559 1.71181,0.89409 3.11832,3.12419 5.03686,3.54398 2.52739,-0.68825 7.97788,-2.19557 -6.69953,3.41502 -0.29693,0.11351 0.19949,-0.60544 0.26047,-0.91743 0.28455,-1.45572 0.22775,-2.9932 0.25135,-4.46634 0.63454,-5.61138 1.24074,-11.20579 1.18322,-16.858339 -0.0744,-7.191849 -1.14193,-14.285342 -2.52814,-21.323544 -0.87194,-4.260602 -1.59047,-8.842093 -4.19718,-12.443231 -1.35987,-1.767144 -2.98238,-1.404278 -4.87039,-0.745737 0,0 6.76375,-5.198909 6.76375,-5.198909 l 0,0 c 2.22641,-0.470704 4.01472,-0.368551 5.45146,1.614155 2.60002,3.763865 3.42573,8.399894 4.2599,12.8176 1.37291,7.087745 2.49461,14.219228 2.59061,21.458526 0.12152,5.637329 -0.39223,11.231589 -1.0717,16.825899 -0.0163,4.39258 0.20551,12.87572 -8.51957,10.60539 -1.88899,-0.99795 -3.44183,-2.6083 -5.16517,-3.85349 -2.91976,-2.76104 -5.78281,-5.57112 -8.42133,-8.61352 -3.85949,-4.20964 -7.7264,-8.41826 -11.5115,-12.691213 -2.55526,-2.885871 -5.27804,-5.653195 -8.23587,-8.128741 -0.28799,-0.180045 -0.55758,-0.393578 -0.86397,-0.540134 -0.23031,-0.110165 -0.93271,-0.06504 -0.73256,-0.223536 10.985,-8.699136 5.65025,-6.250563 6.58009,-3.251215 1.98032,2.735113 3.92427,5.484246 5.90631,8.222449 3.70064,4.79059 6.81857,10.02817 9.4748,15.4651 2.13979,4.46095 4.01721,9.04376 5.40643,13.79806 0.75766,3.67204 2.44755,12.66901 -7.23166,9.61493 -1.11456,-2.01046 -2.09973,-3.9841 -4.07064,-5.35937 -3.6066,-2.82675 -7.45658,-5.17925 -11.44962,-7.4296 -4.38021,-2.6628 -8.68247,-5.68291 -11.35333,-10.17956 -2.45299,-5.01237 -3.78912,-10.251761 -4.05687,-15.844578 0,0 7.59674,-3.870734 7.59674,-3.870734 z"
       inkscape:connector-curvature="0" />
    <path
       style="fill:#2b0000"
       id="path5192"
       d="m 266.83784,100.37862 c 2.48682,0.65936 6.1046,2.12071 8.53979,0.6514 -9.93126,6.04974 -6.29755,5.47793 -6.59807,0.99615 0,0 7.62274,-3.953347 7.62274,-3.953347 l 0,0 c 0.40589,5.282327 -0.77901,4.623627 -7.76302,8.261487 -2.90659,0.69867 -6.09168,-0.36538 -8.86435,-1.16358 0,0 7.06291,-4.79211 7.06291,-4.79211 z"
       inkscape:connector-curvature="0" />
    <path
       style="fill:#2b0000"
       id="path5194"
       d="m 276.03258,93.304107 c -0.31872,3.571877 -0.3651,7.289413 1.95578,10.216253 0.74923,0.7573 1.09478,1.0675 1.98849,0.45196 0.21809,-0.1502 0.87165,-0.59791 0.63786,-0.47355 -6.81582,3.62547 -8.31528,5.71024 -5.98545,2.82034 1.42423,-2.11067 2.02119,-4.5928 2.38909,-7.075723 0.14376,-1.124267 0.44635,-2.305828 -0.63551,-3.006419 -0.30431,0.14561 -0.87381,-0.209586 -1.1439,-0.03251 -0.12242,0.08026 -0.31873,0.465011 -0.18956,0.396147 5.65366,-3.013921 9.10991,-5.631731 6.34407,-3.563161 -1.18702,1.37994 -1.93006,3.081136 -2.77684,4.678067 -1.24569,2.398839 -2.72825,4.654189 -4.13111,6.960369 -0.91541,1.44745 -1.91435,2.84004 -2.94481,4.20724 -0.0515,0.0678 -0.10311,0.13566 -0.15466,0.20349 0,0 -7.91199,3.38032 -7.91199,3.38032 l 0,0 c 0.0554,-0.0659 0.11088,-0.13182 0.16631,-0.19772 1.07657,-1.33035 2.08256,-2.71724 3.03783,-4.1369 1.39337,-2.31037 2.92328,-4.52148 4.12968,-6.93981 0.98594,-1.569215 1.61112,-3.338965 2.66909,-4.859549 2.21094,-3.063878 6.54759,-6.464855 10.18642,-4.671673 1.16301,1.058412 1.3132,2.290199 1.02043,3.805132 -0.31767,2.592569 -0.9225,5.16861 -2.20723,7.46754 -1.49427,2.17429 -7.62142,6.91453 -10.24125,6.17921 -0.66067,-0.18544 -1.12708,-0.78342 -1.58194,-1.22935 -2.36388,-3.1748 -2.52286,-6.97631 -2.27084,-10.817579 0,0 7.65004,-3.762128 7.65004,-3.762128 z"
       inkscape:connector-curvature="0" />
    <path
       style="fill:#2b0000"
       id="path5196"
       d="m 282.23923,74.011738 c -2.59698,2.125617 -5.05091,4.415703 -7.65175,6.541021 -0.53123,0.459025 -1.11497,0.856815 -1.64416,1.31736 6.30454,-19.623261 -6.29507,5.997972 -8.85847,4.06646 -0.40286,-0.303553 -0.39345,-0.779437 -0.75218,-1.087616 -0.85691,-0.845236 -1.6511,-1.782774 -2.54279,-2.614182 -1.21304,-1.499819 -2.38355,-3.011635 -3.27321,-4.726473 -0.59923,-1.210384 -0.70104,-2.497715 -1.37699,-3.657562 -0.6223,-0.875607 -0.9991,-1.794722 -1.21315,-2.840612 -0.66722,-0.516301 -1.07018,-1.261759 -1.46303,-2.001726 -0.274,-0.805544 -0.37223,-1.657272 -0.40093,-2.503731 0.11421,-0.962575 -0.12719,-1.180529 -0.65167,-1.932941 -0.61454,-0.720619 -0.81696,-1.613528 -0.98093,-2.521668 -0.11492,-1.160092 -0.0963,-2.329947 -0.0902,-3.494553 0.0131,-1.001898 -0.0754,-1.997835 0.1297,-2.98136 0.35354,-0.992667 0.9689,-1.661968 1.68835,-2.408979 0,0 7.91266,-3.207673 7.91266,-3.207673 l 0,0 c -0.85506,0.594624 -1.4402,1.044014 -1.78578,2.055015 -0.61712,0.594149 -0.17481,1.847777 -0.30173,2.650145 0.002,1.121302 -0.0165,2.243666 0.0455,3.363843 0.10828,0.800149 0.23339,1.556881 0.78168,2.186043 0.56176,0.796023 1.08266,1.339214 0.90139,2.372998 0.007,0.723891 0.0524,1.449744 0.21689,2.157341 0.42437,0.837499 0.99231,1.509239 1.58158,2.227184 0.15739,0.966064 0.47787,1.77986 1.05568,2.583912 0.71116,1.190426 0.87307,2.428573 1.38661,3.710694 0.82947,1.638663 1.96118,3.070831 3.13451,4.478283 0.88291,0.870191 1.72918,1.772663 2.59668,2.652227 0.62301,0.770081 0.23847,0.163336 0.38183,0.58599 0.0767,0.226175 0.60948,-0.281475 0.71341,-0.06644 -2.28657,1.364647 -4.57314,2.729293 -6.85971,4.09394 0.62888,-0.341887 1.15232,-0.859199 1.73553,-1.269265 2.63742,-2.094526 5.1293,-4.342532 7.66461,-6.549263 0,0 7.92013,-3.178412 7.92013,-3.178412 z"
       inkscape:connector-curvature="0" />
    <path
       sodipodi:type="spiral"
       style="fill:none;fill-rule:evenodd;stroke:#000000;stroke-width:1px;stroke-linecap:butt;stroke-linejoin:miter;stroke-opacity:1"
       id="path5260"
       sodipodi:cx="348.27585"
       sodipodi:cy="257.53461"
       sodipodi:expansion="1"
       sodipodi:revolution="3"
       sodipodi:radius="43.137917"
       sodipodi:argument="-17.318739"
       sodipodi:t0="0"
       d="m 348.27585,257.53461 c 0.0865,2.16114 -2.87052,1.18276 -3.59196,0.14368 -1.95503,-2.81584 0.55707,-6.33043 3.3046,-7.32759 4.91468,-1.78369 9.86605,2.04637 11.06322,6.75287 1.7569,6.90697 -3.54048,13.46384 -10.20114,14.79885 -8.87762,1.77936 -17.08559,-5.03427 -18.53449,-13.64941 -1.8233,-10.84128 6.52742,-20.71919 17.09769,-22.27013 12.802,-1.87839 24.35955,8.02012 26.00576,20.54596 1.93999,14.76127 -9.51251,28.00417 -23.99424,29.7414 -16.71972,2.0057 -31.6516,-11.0047 -33.47703,-27.44251 -2.07416,-18.67768 12.49675,-35.30102 30.89078,-37.21266 20.63532,-2.14457 38.95189,13.9887 40.9483,34.33905 2.2164,22.59274 -15.48059,42.60383 -37.78733,44.68393" />
    <path
       sodipodi:type="spiral"
       style="fill:#ffd5d5;fill-rule:evenodd;stroke:#000000;stroke-width:1px;stroke-linecap:butt;stroke-linejoin:miter;stroke-opacity:1"
       id="path5262"
       sodipodi:cx="462.06897"
       sodipodi:cy="262.70703"
       sodipodi:expansion="1"
       sodipodi:revolution="3"
       sodipodi:radius="62.759567"
       sodipodi:argument="-16.913559"
       sodipodi:t0="0"
       d="m 462.06897,262.70703 c -1.12379,2.93915 -4.51635,-0.0648 -4.88506,-1.86781 -0.99917,-4.88612 4.37522,-8.1447 8.62068,-7.90231 7.59415,0.43358 12.01795,8.39413 10.91956,15.37356 -1.61195,10.2426 -12.45511,15.97158 -22.12643,13.9368 -12.89034,-2.71205 -19.9574,-16.52941 -16.95404,-28.8793 3.77941,-15.54108 20.60964,-23.95945 35.63216,-19.97129 18.19429,4.83019 27.97082,24.69316 22.98854,42.38504 -5.87144,20.84926 -28.77869,31.98802 -49.13791,26.00578 -23.50552,-6.90672 -36.00912,-32.86558 -29.02303,-55.89078 7.93803,-26.16269 36.95342,-40.03295 62.64365,-32.04028 28.82055,8.96657 44.05876,41.04196 35.05753,69.39652 -9.99308,31.47894 -45.13103,48.08606 -76.1494,38.07478" />
    <path
       style="fill:#ffd5d5"
       id="path5264"
       d="m 367.76944,329.40322 c 0.62456,5.40289 1.24661,10.82627 1.11427,16.27025 -0.17794,4.90873 -1.00507,9.75949 -2.29889,14.49088 -1.05513,3.24249 -1.81485,6.56173 -2.21153,9.94668 -0.54613,2.19801 -1.05813,4.43089 -1.79158,6.57589 -0.62267,1.67001 -1.6098,3.15494 -2.39536,4.74139 -0.93432,2.04706 -2.36975,3.6857 -3.96075,5.23855 -3.8391,3.35045 -8.22831,5.71337 -13.19622,6.09987 -1.89435,0.11774 -3.79414,0.0747 -5.6909,0.0658 -2.12768,-0.0187 -4.25543,-0.0186 -6.38317,-0.0232 -1.85785,-0.006 -3.7157,0.003 -5.57356,7.5e-4 -1.37703,-0.47119 -2.65348,-1.20687 -4.09091,-1.49417 -1.37666,-0.11344 -2.50109,-0.92879 -3.7814,-1.40291 -1.43396,-0.94354 -2.76248,-2.07961 -4.26266,-2.91537 -1.8387,-1.2448 -3.39674,-2.81518 -5.08691,-4.24171 -1.75573,-1.67691 -3.38701,-3.48578 -5.18656,-5.11672 -0.91245,-0.94715 -1.73093,-1.97667 -2.52065,-3.02624 0,0 7.37825,-4.37212 7.37825,-4.37212 l 0,0 c 0.74014,1.01802 1.51281,2.01521 2.406,2.90602 1.76698,1.65217 3.41874,3.42278 5.17258,5.08896 1.63472,1.41856 3.19644,2.92031 5.01856,4.1067 1.42935,0.8829 2.73834,1.94972 4.19742,2.79129 1.23288,0.49658 2.3801,1.17083 3.72673,1.31335 1.33729,0.40043 2.57689,1.10972 3.95846,1.32883 1.85522,-0.002 3.71039,0.008 5.5656,0.007 2.12894,0.003 4.25784,0.0175 6.38677,0.0239 1.87877,0.01 3.76276,0.0327 5.6357,-0.13947 3.90151,-0.50336 8.6118,-3.7621 -2.46411,2.79724 -0.2973,0.17607 0.58856,-0.36214 0.88283,-0.54321 1.58953,-1.48597 3.09924,-2.96756 4.09172,-4.93225 0.66171,-1.65593 1.72933,-3.04791 2.41414,-4.70153 0.8795,-2.03344 1.15369,-4.30301 1.91136,-6.3895 0.35534,-3.4361 1.10305,-6.81241 2.188,-10.09434 1.38561,-4.65324 2.20439,-9.4702 2.42768,-14.32219 0.21537,-5.38467 -0.40768,-10.76744 -1.12111,-16.10063 0,0 7.5402,-3.97769 7.5402,-3.97769 z"
       inkscape:connector-curvature="0" />
    <path
       style="fill:#ffd5d5"
       id="path5266"
       d="m 369.31561,338.07739 c -0.30981,4.11568 0.40603,8.15384 0.99992,12.20404 0.43726,3.40042 0.5229,6.80429 1.1475,10.17825 0.79663,3.38319 0.82236,6.87362 1.36363,10.28938 0.55352,3.41231 1.29499,6.76424 2.20545,10.09758 0.76726,3.04615 1.78175,6.02803 2.80374,8.99804 0.75915,2.80925 2.16569,5.06513 4.27928,7.0149 2.17733,2.14193 4.84661,3.48134 7.61018,4.69686 2.67262,1.19849 5.59396,1.45242 8.38785,2.25882 2.59584,0.11012 5.29857,0.10387 7.82058,-0.5677 0.38646,-0.12704 0.7707,-0.26106 1.15939,-0.3811 1.60144,-0.49459 0.80277,-0.14142 2.38766,-0.87528 0.37459,-0.17345 1.46984,-0.75029 1.11375,-0.54147 -7.83794,4.59618 -7.88568,4.67916 -4.95047,2.67038 2.69248,-2.54803 4.97685,-5.45232 7.70585,-7.97328 2.55356,-2.6093 5.14103,-5.1807 7.57721,-7.90199 2.01786,-2.10417 3.78986,-4.42186 5.79344,-6.53568 1.39752,-1.72724 2.79218,-3.41652 4.53091,-4.81147 0.13463,-0.11823 0.26926,-0.23646 0.40389,-0.35469 0.0407,-0.0159 0.0815,-0.0318 0.12217,-0.0477 0,0 7.74311,-3.75325 7.74311,-3.75325 l 0,0 c 0.0396,0.6418 0.0979,0.30396 -0.29643,0.98487 -1.83933,1.28928 -3.3495,2.86253 -4.6352,4.70836 -2.05268,2.07281 -3.78127,4.40661 -5.81225,6.50622 -2.44752,2.74606 -5.04005,5.32702 -7.57015,7.994 -2.7725,2.48762 -5.17089,5.26591 -7.6379,8.04926 -4.32206,3.29578 -9.14,6.09937 -14.42696,7.42787 -2.64216,0.47623 -5.40514,0.64815 -8.06393,0.22339 -2.82233,-0.78274 -5.78815,-1.04897 -8.44304,-2.37142 -2.82287,-1.29016 -5.55128,-2.70243 -7.77057,-4.92559 -2.19268,-2.05651 -3.69063,-4.44666 -4.47792,-7.38178 -1.03009,-2.98667 -2.07945,-5.9788 -2.83918,-9.04554 -0.8922,-3.36682 -1.68734,-6.73347 -2.2348,-10.17624 -0.59348,-3.4022 -0.5548,-6.8951 -1.35648,-10.27329 -0.64578,-3.38682 -0.78106,-6.78915 -1.15979,-10.21279 -0.57805,-4.08427 -1.31162,-8.15469 -1.07718,-12.30122 0,0 7.59674,-3.87073 7.59674,-3.87073 z"
       inkscape:connector-curvature="0" />
    <path
       style="fill:#ffd5d5"
       id="path5268"
       d="m 312.41826,397.83506 c 2.6381,-2.95111 5.84355,-5.33239 8.95847,-7.75378 2.5137,-2.51323 10.21754,-8.63079 9.88162,-2.63033 -0.74426,2.51515 -1.87528,4.93117 -3.02389,7.29119 -0.96525,2.03279 -1.55634,4.19623 -1.87641,6.416 -0.20503,2.02929 -0.17075,4.07478 -0.16291,6.11184 -0.0542,2.58704 -0.0737,5.11851 0.46521,7.65399 0.75213,2.72476 2.71188,4.31237 4.71064,6.11312 2.47126,2.28929 5.21489,4.26526 7.78665,6.44373 2.3624,1.74405 4.67281,3.56078 7.4624,4.55428 1.92703,0.61585 3.97676,0.60013 5.97958,0.61599 2.04955,0.19932 3.72529,-0.19155 5.51666,-1.16749 -13.1853,8.97633 -1.16809,-0.69724 1.46382,-2.94378 2.89291,-2.56964 6.10759,-4.70597 9.27203,-6.91428 3.66037,-2.26148 2.3621,-1.47965 9.50812,-5.45082 0.53846,-0.29923 2.17043,-1.16605 1.63488,-0.86165 -6.274,3.56602 -8.77355,5.18431 -5.99974,3.4038 20.1338,-11.44245 2.38205,-1.34704 1.28467,-0.74702 -0.0209,0.0115 0.22667,-0.18087 1.1281,-0.88261 0.88776,-0.69109 0.43168,-0.29639 1.34767,-1.20568 1.35393,-1.41914 2.60617,-2.91782 3.81005,-4.4632 0.99237,-1.15117 2.13082,-2.16339 3.24372,-3.19475 0.75488,-0.42486 0.86141,-1.21367 1.36211,-1.83308 2.65618,-2.3513 5.87859,-4.54823 9.44437,-4.82161 0,0 -6.87213,5.1214 -6.87213,5.1214 l 0,0 c -4.4695,0.75943 9.1807,-5.5307 5.38291,-3.5475 -0.99854,0.62441 -0.51096,1.13681 -1.37237,1.83013 -1.12055,1.01683 -2.24316,2.03384 -3.31229,3.1048 -1.31968,1.43985 -2.36549,3.14047 -3.79279,4.51095 -3.72797,4.15054 -19.28714,11.68153 -3.66885,3.00555 -0.99455,0.6822 -20.21727,11.86408 -3.99492,2.24742 0.39394,-0.23353 -0.80278,0.44094 -1.20418,0.66141 -3.16864,2.216 -6.43903,4.28535 -9.33851,6.86182 -5.22214,4.27084 -9.31229,8.98846 -16.00742,11.44613 -1.88636,0.79728 -3.72108,1.02904 -5.76825,0.85882 -2.07173,-0.0536 -4.1813,-0.11253 -6.13921,-0.87116 -2.79602,-1.15969 -5.18685,-2.99279 -7.58721,-4.81117 -2.58722,-2.17532 -5.33048,-4.16428 -7.81486,-6.45595 -2.14177,-1.90873 -4.14131,-3.70696 -4.9832,-6.57086 -0.58309,-2.59095 -0.64473,-5.15554 -0.55765,-7.81091 -0.002,-2.06585 -0.0696,-4.13863 0.0945,-6.19965 0.25042,-2.30746 0.87158,-4.55143 1.79092,-6.68341 1.11484,-2.31539 2.20299,-4.64445 3.08503,-7.05423 0.21035,-0.60503 0.26062,-0.47059 0.13767,-1.05011 -0.006,-0.0267 -1.13739,0.62181 -0.32653,0.13592 7.41385,-4.44264 8.81548,-5.54042 5.93159,-3.37873 -3.11977,2.37696 -6.30548,4.73494 -9.03224,7.56257 0,0 -7.84786,3.3529 -7.84786,3.3529 z"
       inkscape:connector-curvature="0" />
  </g>
</svg>
